<svg xmlns="http://www.w3.org/2000/svg" width="20" height="20" viewBox="0 0 20 20">
  <g id="Group_1995" data-name="Group 1995" transform="translate(-2817 -5373)">
    <circle id="Ellipse_94" data-name="Ellipse 94" cx="6" cy="6" r="6" transform="translate(2821 5377)" fill="#fff"/>
    <g id="ic-safe" transform="translate(2817 5373)">
      <g id="Group_1994" data-name="Group 1994">
        <path id="Path_5666" data-name="Path 5666" d="M10,0A10,10,0,1,0,20,10,10.012,10.012,0,0,0,10,0Zm5.589,7.368L9.2,13.709a.983.983,0,0,1-1.378.025L4.436,10.652a1.016,1.016,0,0,1-.075-1.4.992.992,0,0,1,1.4-.05l2.682,2.456L14.16,5.94a1.01,1.01,0,0,1,1.429,1.429Z" fill="#88c827"/>
      </g>
    </g>
  </g>
</svg>
