<svg xmlns="http://www.w3.org/2000/svg" width="460.31" height="88.77" viewBox="0 0 460.31 88.77">
  <g id="header-title" transform="translate(-74.363 -160.127)">
    <g id="Union_1" data-name="Union 1" transform="translate(74.364 160.127)" fill="#fff">
      <path d="M 221.5201873779297 87.76958465576172 C 216.1264953613281 87.76958465576172 210.8611907958984 86.80995178222656 205.8706207275391 84.91732025146484 C 201.0496520996094 83.08901977539062 196.6249237060547 80.44728088378906 192.7193603515625 77.0655517578125 L 192.0647583007812 76.49874877929688 L 191.41015625 77.06552124023438 C 187.5045928955078 80.44728088378906 183.0798645019531 83.08901977539062 178.2589263916016 84.91732025146484 C 173.2683563232422 86.80995178222656 168.0031890869141 87.76958465576172 162.609619140625 87.76958465576172 C 157.2159271240234 87.76958465576172 151.9506225585938 86.80992126464844 146.9599609375 84.91725158691406 C 142.1389617919922 83.08892059326172 137.7141876220703 80.44718170166016 133.8086242675781 77.06541442871094 L 133.1540222167969 76.49858093261719 L 132.4994201660156 77.06541442871094 C 128.5938873291016 80.44718170166016 124.1692276000977 83.08892059326172 119.3482894897461 84.91725158691406 C 114.3577575683594 86.80992126464844 109.0925903320312 87.76958465576172 103.6990585327148 87.76958465576172 C 98.30535888671875 87.76958465576172 93.04005432128906 86.80992126464844 88.04939270019531 84.91725158691406 C 83.22835540771484 83.08892059326172 78.80362701416016 80.44718170166016 74.89805603027344 77.06541442871094 L 74.24346160888672 76.49858093261719 L 73.58885955810547 77.06541442871094 C 69.68335723876953 80.44718170166016 65.25868988037109 83.08892059326172 60.43775939941406 84.91725158691406 C 55.44719314575195 86.80992126464844 50.18202590942383 87.76958465576172 44.78849029541016 87.76958465576172 C 38.87549209594727 87.76958465576172 33.13995742797852 86.62221527099609 27.74125862121582 84.35935211181641 C 22.52682495117188 82.17372131347656 17.84372520446777 79.04475402832031 13.82205772399902 75.05931854248047 C 9.801024436950684 71.07455444335938 6.644224643707275 66.43478393554688 4.439391136169434 61.26895141601562 C 2.157157897949219 55.92181777954102 0.999991238117218 50.24128341674805 0.999991238117218 44.38515090942383 C 0.999991238117218 38.52881622314453 2.157191276550293 32.84815216064453 4.439391136169434 27.50091743469238 C 6.644224643707275 22.33498382568359 9.801024436950684 17.6951847076416 13.82205772399902 13.71035099029541 C 17.84372520446777 9.724884986877441 22.52682495117188 6.595884799957275 27.74125862121582 4.410251140594482 C 33.13995742797852 2.147384643554688 38.87545776367188 1.000018000602722 44.78849029541016 1.000018000602722 C 50.18205642700195 1.000018000602722 55.44722366333008 1.959684729576111 60.43775939941406 3.852351427078247 C 65.25868988037109 5.680684566497803 69.68335723876953 8.322451591491699 73.58885955810547 11.70425128936768 L 74.24346160888672 12.27108478546143 L 74.89805603027344 11.70425128936768 C 78.8035888671875 8.322451591491699 83.22835540771484 5.680684566497803 88.04939270019531 3.852351427078247 C 93.04002380371094 1.959684729576111 98.30535888671875 1.000018000602722 103.6990585327148 1.000018000602722 C 109.0925903320312 1.000018000602722 114.3577575683594 1.959684729576111 119.3482894897461 3.852351427078247 C 124.1692276000977 5.680684566497803 128.5939178466797 8.322451591491699 132.4994201660156 11.70425128936768 L 133.1540222167969 12.27108478546143 L 133.8086242675781 11.70425128936768 C 137.7141876220703 8.322451591491699 142.1389312744141 5.680684566497803 146.9599609375 3.852351427078247 C 151.9506225585938 1.959684729576111 157.2159271240234 1.000018000602722 162.609619140625 1.000018000602722 C 168.0032196044922 1.000018000602722 173.2683868408203 1.959651350975037 178.2589263916016 3.852251291275024 C 183.0798950195312 5.680584907531738 187.5046234130859 8.322318077087402 191.41015625 11.7040843963623 L 192.0647583007812 12.27091789245605 L 192.7193603515625 11.7040843963623 C 196.6248931884766 8.322318077087402 201.0496215820312 5.680584907531738 205.8706207275391 3.852251291275024 C 210.8611907958984 1.959651350975037 216.12646484375 1.000018000602722 221.5201873779297 1.000018000602722 C 227.4332275390625 1.000018000602722 233.1687622070312 2.147384643554688 238.5674591064453 4.410251140594482 C 243.7818908691406 6.595884799957275 248.4649963378906 9.724884986877441 252.4866638183594 13.71035099029541 C 256.5076904296875 17.6951847076416 259.6644897460938 22.33498382568359 261.8693237304688 27.50091743469238 C 264.1515502929688 32.84815216064453 265.3087158203125 38.52881622314453 265.3087158203125 44.38515090942383 C 265.3087158203125 50.24128341674805 264.1515502929688 55.92185211181641 261.8693237304688 61.26895141601562 C 259.6644897460938 66.43478393554688 256.5076904296875 71.07455444335938 252.4866638183594 75.05931854248047 C 248.4649963378906 79.04475402832031 243.7818908691406 82.17372131347656 238.5674591064453 84.35935211181641 C 233.1687622070312 86.62221527099609 227.4332275390625 87.76958465576172 221.5201873779297 87.76958465576172 Z" stroke="none"/>
      <path d="M 221.5201721191406 86.76956939697266 C 227.2997436523438 86.76956939697266 232.9052124023438 85.64835357666016 238.1808624267578 83.43707275390625 C 243.2763519287109 81.30132293701172 247.8526763916016 78.24364471435547 251.7827453613281 74.34903717041016 C 255.7115325927734 70.45564270019531 258.7957153320312 65.92282104492188 260.9495849609375 60.87639236450195 C 263.1785278320312 55.65407180786133 264.3087158203125 50.10560607910156 264.3087158203125 44.3851432800293 C 264.3087158203125 38.66449737548828 263.1785278320312 33.11589050292969 260.9495849609375 27.89346313476562 C 258.7957153320312 22.84696388244629 255.7115325927734 18.31403541564941 251.7827453613281 14.42064189910889 C 247.8526763916016 10.52596282958984 243.2763519287109 7.468284606933594 238.1808624267578 5.332499027252197 C 232.9052581787109 3.12121319770813 227.2997894287109 1.999998927116394 221.5201721191406 1.999998927116394 C 216.2480316162109 1.999998927116394 211.1020660400391 2.937784671783447 206.2252197265625 4.787284851074219 C 201.5142822265625 6.573856353759766 197.1905059814453 9.155356407165527 193.3739318847656 12.46010589599609 L 192.0647583007812 13.59371280670166 L 190.7555694580078 12.46010589599609 C 186.9389953613281 9.155356407165527 182.6152191162109 6.573856353759766 177.9043273925781 4.787284851074219 C 173.0274963378906 2.937784671783447 167.8816070556641 1.999998927116394 162.6096038818359 1.999998927116394 C 157.3374938964844 1.999998927116394 152.1914978027344 2.937784671783447 147.3145751953125 4.787355899810791 C 142.6036071777344 6.573963165283203 138.27978515625 9.155499458312988 134.4632568359375 12.46024894714355 L 133.1540374755859 13.59389209747314 L 131.8448181152344 12.46021366119385 C 128.0283203125 9.155499458312988 123.7045745849609 6.573963165283203 118.9936828613281 4.787355899810791 C 114.1168594360352 2.937784671783447 108.9710006713867 1.999998927116394 103.6990356445312 1.999998927116394 C 98.42692565917969 1.999998927116394 93.28092956542969 2.937784671783447 88.40399932861328 4.787355899810791 C 83.69300079345703 6.573963165283203 79.36917877197266 9.155499458312988 75.55268096923828 12.46024894714355 L 74.24346160888672 13.59389209747314 L 72.93424987792969 12.46021366119385 C 69.11775207519531 9.155499458312988 64.79399871826172 6.573963165283203 60.08310699462891 4.787355899810791 C 55.2062873840332 2.937784671783447 50.06042861938477 1.999998927116394 44.78850173950195 1.999998927116394 C 39.00893020629883 1.999998927116394 33.40346527099609 3.12121319770813 28.12785720825195 5.332499027252197 C 23.03235816955566 7.468284606933594 18.45603561401367 10.52596282958984 14.52596473693848 14.42064189910889 C 10.5971794128418 18.31403541564941 7.513000965118408 22.84696388244629 5.359143733978271 27.89346313476562 C 3.130179405212402 33.11589050292969 2.000000715255737 38.66449737548828 2.000000715255737 44.3851432800293 C 2.000000715255737 50.10560607910156 3.130179405212402 55.65407180786133 5.359143733978271 60.87639236450195 C 7.513000965118408 65.92282104492188 10.5971794128418 70.45564270019531 14.52596473693848 74.34903717041016 C 18.45603561401367 78.24364471435547 23.03235816955566 81.30132293701172 28.12782287597656 83.43707275390625 C 33.40346527099609 85.64835357666016 39.00893020629883 86.76956939697266 44.78850173950195 86.76956939697266 C 50.06042861938477 86.76956939697266 55.2062873840332 85.831787109375 60.08314514160156 83.98224639892578 C 64.79399871826172 82.19564056396484 69.11775207519531 79.61414337158203 72.93428802490234 76.30942535400391 L 74.24346160888672 75.17581939697266 L 75.55264282226562 76.30942535400391 C 79.36917877197266 79.61414337158203 83.69300079345703 82.19564056396484 88.40399932861328 83.98224639892578 C 93.28092956542969 85.831787109375 98.42692565917969 86.76956939697266 103.6990356445312 86.76956939697266 C 108.9709625244141 86.76956939697266 114.1168594360352 85.831787109375 118.9936828613281 83.98224639892578 C 123.7045745849609 82.19564056396484 128.0283203125 79.61414337158203 131.8448638916016 76.30942535400391 L 133.1540374755859 75.17581939697266 L 134.4632110595703 76.30942535400391 C 138.27978515625 79.61414337158203 142.6036071777344 82.19564056396484 147.3145751953125 83.98224639892578 C 152.1914978027344 85.831787109375 157.3374938964844 86.76956939697266 162.6096038818359 86.76956939697266 C 167.8816070556641 86.76956939697266 173.0274963378906 85.831787109375 177.9043273925781 83.98228454589844 C 182.6152191162109 82.19574737548828 186.9389953613281 79.61425018310547 190.7555694580078 76.30953216552734 L 192.0647583007812 75.17592620849609 L 193.3739318847656 76.30953216552734 C 197.1905059814453 79.61425018310547 201.5142822265625 82.19574737548828 206.2252197265625 83.98228454589844 C 211.1020660400391 85.831787109375 216.2480773925781 86.76956939697266 221.5201721191406 86.76956939697266 M 221.5201721191406 88.76956939697266 C 210.2421417236328 88.76956939697266 199.9389343261719 84.63964080810547 192.0647583007812 77.82150268554688 C 184.1905670166016 84.63964080810547 173.8873596191406 88.76956939697266 162.6096038818359 88.76956939697266 C 151.3315734863281 88.76956939697266 141.0281829833984 84.63949584960938 133.1540374755859 77.82138824462891 C 125.2799682617188 84.63949584960938 114.9767532348633 88.76956939697266 103.6990356445312 88.76956939697266 C 92.42103576660156 88.76956939697266 82.11756896972656 84.63949584960938 74.24346160888672 77.82138824462891 C 66.36939239501953 84.63949584960938 56.06618118286133 88.76956939697266 44.78850173950195 88.76956939697266 C 20.05228614807129 88.76956939697266 7.672991273466323e-07 68.89785766601562 7.672991273466323e-07 44.3851432800293 C 7.672991273466323e-07 19.87171363830566 20.05228614807129 -1.015799398373929e-06 44.78850173950195 -1.015799398373929e-06 C 56.06618118286133 -1.015799398373929e-06 66.36939239501953 4.130070209503174 74.24346160888672 10.94828510284424 C 82.11756896972656 4.130070209503174 92.42103576660156 -1.015799398373929e-06 103.6990356445312 -1.015799398373929e-06 C 114.9767532348633 -1.015799398373929e-06 125.2799682617188 4.130070209503174 133.1540374755859 10.94828510284424 C 141.0281829833984 4.130070209503174 151.3315734863281 -1.015799398373929e-06 162.6096038818359 -1.015799398373929e-06 C 173.8873596191406 -1.015799398373929e-06 184.1905670166016 4.129927635192871 192.0647583007812 10.94814205169678 C 199.9389343261719 4.129927635192871 210.2421417236328 -1.015799398373929e-06 221.5201721191406 -1.015799398373929e-06 C 246.2564239501953 -1.015799398373929e-06 266.3087158203125 19.87171363830566 266.3087158203125 44.3851432800293 C 266.3087158203125 68.89785766601562 246.2564239501953 88.76956939697266 221.5201721191406 88.76956939697266 Z" stroke="none" fill="#bed7ee"/>
    </g>
    <path id="Path_1726" data-name="Path 1726" d="M21.832-17.205h-.225a2.44,2.44,0,0,1-1.572-.584,2.416,2.416,0,0,1-.9-1.707q0-.135,0-.27a2.269,2.269,0,0,1,.584-1.527,2.277,2.277,0,0,1,1.662-.809,6.567,6.567,0,0,0,.809-.045.59.59,0,0,0,.494-.314,62.56,62.56,0,0,0,2.066-5.975.183.183,0,0,0-.045-.2.277.277,0,0,0-.225-.112H21.068a2.332,2.332,0,0,1-1.707-.719,2.358,2.358,0,0,1-.719-1.729,2.358,2.358,0,0,1,.719-1.729,2.332,2.332,0,0,1,1.707-.719h6.6q.359,0,.359-.314V-36.3a2.563,2.563,0,0,1,.764-1.887,2.563,2.563,0,0,1,1.887-.764h.27a2.585,2.585,0,0,1,1.864.764A2.526,2.526,0,0,1,33.6-36.3v2.336a.278.278,0,0,0,.314.314h7.5a2.332,2.332,0,0,1,1.707.719,2.358,2.358,0,0,1,.719,1.729,2.358,2.358,0,0,1-.719,1.729,2.332,2.332,0,0,1-1.707.719H31.311a.493.493,0,0,0-.494.314q-1.3,2.965-2.561,5.57a.233.233,0,0,0,.022.225.194.194,0,0,0,.157.09q2.426-.18,6.963-.539a.181.181,0,0,0,.18-.09.147.147,0,0,0-.045-.18l-.449-.719a1.907,1.907,0,0,1-.4-1.168,2.524,2.524,0,0,1,.045-.494,2.064,2.064,0,0,1,1.033-1.393,2.972,2.972,0,0,1,1.348-.314,4.147,4.147,0,0,1,.584.045,2.6,2.6,0,0,1,1.617,1.033,57.08,57.08,0,0,1,4.313,6.334,2.445,2.445,0,0,1,.314,1.168,2.544,2.544,0,0,1-.135.809,2.6,2.6,0,0,1-1.3,1.527,2.481,2.481,0,0,1-1.123.27,2.418,2.418,0,0,1-.764-.135,2.494,2.494,0,0,1-1.482-1.213q-.18-.359-.359-.674a.464.464,0,0,0-.494-.27q-3.1.225-8.692.7T21.832-17.205ZM3.01-9.793a2.29,2.29,0,0,1,.854-1.482,2.167,2.167,0,0,1,1.258-.4h.4a2.436,2.436,0,0,1,1.527.943A2.342,2.342,0,0,1,7.5-9.344v.359A44.946,44.946,0,0,1,5.84-1.572,1.754,1.754,0,0,1,4.672-.4a2.157,2.157,0,0,1-.764.135,2.083,2.083,0,0,1-.943-.225A2.37,2.37,0,0,1,1.752-1.752a2.875,2.875,0,0,1-.18-.988,3.717,3.717,0,0,1,.09-.809A34.538,34.538,0,0,0,3.01-9.793Zm12.578-4.9a.293.293,0,0,0-.359-.225l-1.752.135q-.314,0-.314.359V1.662a2.3,2.3,0,0,1-.7,1.685,2.386,2.386,0,0,1-3.369,0,2.3,2.3,0,0,1-.7-1.685V-14.105q0-.359-.314-.314L4.133-14.2a.4.4,0,0,1-.18.045,2.232,2.232,0,0,1-1.572-.629A2.285,2.285,0,0,1,1.527-16.4v-.225A2.205,2.205,0,0,1,2.066-18.1a2.192,2.192,0,0,1,1.617-.764l.584-.045a.68.68,0,0,0,.539-.27q.809-1.033,1.752-2.381a.435.435,0,0,0,0-.584A39.31,39.31,0,0,0,2.92-26.5a2.757,2.757,0,0,1-.764-1.662v-.27a2.649,2.649,0,0,1,.494-1.527l.584-.854a1.2,1.2,0,0,1,.809-.472A.965.965,0,0,1,4.9-31q.135.09.18-.045,1.348-2.7,2.426-5.48A2.643,2.643,0,0,1,8.85-37.959a2.469,2.469,0,0,1,1.033-.225,2.681,2.681,0,0,1,.854.135,2.158,2.158,0,0,1,1.3,1.3,1.977,1.977,0,0,1,.18.809,2.048,2.048,0,0,1-.27.988q-2.471,4.627-3.818,6.738a.413.413,0,0,0,.045.539q.943,1.078,1.123,1.3.09.135.2.112a.391.391,0,0,0,.2-.112q1.617-2.7,2.83-4.986a2.327,2.327,0,0,1,1.438-1.213,2.078,2.078,0,0,1,.854-.18,2.31,2.31,0,0,1,1.033.27,2.023,2.023,0,0,1,1.168,1.348,2.135,2.135,0,0,1,.09.584,2.065,2.065,0,0,1-.359,1.168Q13.027-23.719,9.7-19.361a.147.147,0,0,0-.045.18.144.144,0,0,0,.135.09l3.773-.18a.194.194,0,0,0,.157-.09.233.233,0,0,0,.022-.225q-.27-.629-.584-1.258a1.977,1.977,0,0,1-.18-.809,1.585,1.585,0,0,1,.135-.629,1.764,1.764,0,0,1,.988-1.078,2.078,2.078,0,0,1,.854-.18,2.035,2.035,0,0,1,.719.135,2.1,2.1,0,0,1,1.168,1.033A40.546,40.546,0,0,1,19.406-16.4a2.035,2.035,0,0,1,.135.719,2.048,2.048,0,0,1-.27.988,2.607,2.607,0,0,1-1.258,1.213,1.336,1.336,0,0,1-.674.18,1.417,1.417,0,0,1-.764-.225,1.749,1.749,0,0,1-.988-1.123ZM19.406-6.2a2.28,2.28,0,0,1,.09.629,2.129,2.129,0,0,1-.27,1.033,2.209,2.209,0,0,1-1.3,1.123,1.585,1.585,0,0,1-.629.135,1.994,1.994,0,0,1-.9-.225,2.061,2.061,0,0,1-.988-1.258q-.539-2.021-1.437-4.582a1.692,1.692,0,0,1-.135-.674,1.652,1.652,0,0,1,.225-.809,1.622,1.622,0,0,1,1.123-.988,1.925,1.925,0,0,1,.674-.135,2.083,2.083,0,0,1,.943.225,2.069,2.069,0,0,1,1.078,1.168Q18.777-8.266,19.406-6.2Zm4.223-7.008a2.559,2.559,0,0,1,.831-1.819,2.626,2.626,0,0,1,1.864-.741,2.365,2.365,0,0,1,1.8.764,2.357,2.357,0,0,1,.674,1.662A25.77,25.77,0,0,1,26.818-3.279a12.943,12.943,0,0,1-5.525,6.2,2.791,2.791,0,0,1-1.258.314,2.954,2.954,0,0,1-.719-.09,3.3,3.3,0,0,1-1.662-1.213A2.023,2.023,0,0,1,17.205.674a2.082,2.082,0,0,1,.045-.4,2.08,2.08,0,0,1,.943-1.393,9.549,9.549,0,0,0,4.043-4.6A24.373,24.373,0,0,0,23.629-13.207ZM38.049-1.123h1.527q.449,0,.629-.606a13.608,13.608,0,0,0,.27-2.583,1.215,1.215,0,0,1,.719-1.168A1.652,1.652,0,0,1,42-5.705a2.035,2.035,0,0,1,.719.135,3.868,3.868,0,0,1,1.662,1.348,2.928,2.928,0,0,1,.494,1.617q0,.18,0,.359-.449,3.414-1.5,4.672a4.014,4.014,0,0,1-3.257,1.258H37.061q-2.92,0-3.908-1.325t-.988-4.874V-13.252a2.473,2.473,0,0,1,.741-1.819,2.473,2.473,0,0,1,1.819-.741,2.473,2.473,0,0,1,1.819.741,2.473,2.473,0,0,1,.741,1.819V-2.561a3.127,3.127,0,0,0,.135,1.213Q37.555-1.123,38.049-1.123ZM73.043-3.369q0-.359-.314-.359H67.2q-.314,0-.314.359v1.438a.278.278,0,0,0,.314.314h5.525a.278.278,0,0,0,.314-.314ZM64.688,2.516a2.079,2.079,0,0,1-1.527-.629A2.079,2.079,0,0,1,62.531.359V-3.953a2.563,2.563,0,0,1,.764-1.887A2.563,2.563,0,0,1,65.182-6.6H75.02a2.585,2.585,0,0,1,1.864.764,2.526,2.526,0,0,1,.786,1.887V-.09A2.206,2.206,0,0,1,77,1.527a2.258,2.258,0,0,1-1.662.674H73.807a.735.735,0,0,1-.539-.225.735.735,0,0,1-.225-.539.079.079,0,0,0-.09-.09h-5.93a.119.119,0,0,0-.135.135.989.989,0,0,1-.314.719,1.04,1.04,0,0,1-.764.314ZM90.922-.449V-2.605q0-.359-.314-.359h-6.2a.106.106,0,0,0-.112.09.109.109,0,0,0,.067.135A24.123,24.123,0,0,1,86.969-.09a.68.68,0,0,0,.539.27q.943.045,1.572.045A10.024,10.024,0,0,0,90.2.18a.88.88,0,0,0,.562-.135A.63.63,0,0,0,90.922-.449ZM61-7.727a1.344,1.344,0,0,1-.988-.4,1.344,1.344,0,0,1-.4-.988,1.344,1.344,0,0,1,.4-.988,1.344,1.344,0,0,1,.988-.4h39.037a1.344,1.344,0,0,1,.988.4,1.344,1.344,0,0,1,.4.988,1.344,1.344,0,0,1-.4.988,1.344,1.344,0,0,1-.988.4H96.582q-.359,0-.359.314v1.123a.318.318,0,0,0,.359.359h2.65a1.51,1.51,0,0,1,1.078.427,1.4,1.4,0,0,1,.449,1.056,1.4,1.4,0,0,1-.449,1.056,1.51,1.51,0,0,1-1.078.427h-2.65a.318.318,0,0,0-.359.359V-.27a5.318,5.318,0,0,1-.4,2.381,2.817,2.817,0,0,1-1.572,1.213,10.677,10.677,0,0,1-3.369.584H90.7a3.7,3.7,0,0,1-1.977-.584,4.824,4.824,0,0,1-1.572-1.8,2.36,2.36,0,0,1-.225-.359q-.18-.314-.449-.135l-.584.359a2.694,2.694,0,0,1-1.437.449,1.836,1.836,0,0,1-.584-.09A3.445,3.445,0,0,1,82.027.719a.523.523,0,0,1-.09-.135,2.053,2.053,0,0,1-.584-1.437v-.27A1.955,1.955,0,0,1,82.3-2.605l.27-.18q.045,0,.022-.09t-.067-.09H80.186a1.457,1.457,0,0,1-1.033-.427A1.4,1.4,0,0,1,78.7-4.447,1.4,1.4,0,0,1,79.152-5.5a1.457,1.457,0,0,1,1.033-.427H90.607q.314,0,.314-.359V-7.412a.278.278,0,0,0-.314-.314ZM64.4-12.062a1.1,1.1,0,0,1-.337-.809,1.1,1.1,0,0,1,.337-.809,1.129,1.129,0,0,1,.831-.337H77.311a.318.318,0,0,0,.359-.359v-.584a.318.318,0,0,0-.359-.359H67.967a1.04,1.04,0,0,1-.764-.314,1.04,1.04,0,0,1-.314-.764,1.04,1.04,0,0,1,.314-.764,1.04,1.04,0,0,1,.764-.314H92.539a1.04,1.04,0,0,1,.764.314,1.04,1.04,0,0,1,.314.764,1.04,1.04,0,0,1-.314.764,1.04,1.04,0,0,1-.764.314H83.105a.318.318,0,0,0-.359.359v.584a.318.318,0,0,0,.359.359h11.9a1.077,1.077,0,0,1,.786.337,1.1,1.1,0,0,1,.337.809,1.1,1.1,0,0,1-.337.809,1.077,1.077,0,0,1-.786.337H65.227A1.129,1.129,0,0,1,64.4-12.062Zm31.2-9.276a24.454,24.454,0,0,1,3.908.225,1.806,1.806,0,0,1,1.213.854,1.829,1.829,0,0,1,.314.988,3.025,3.025,0,0,1-.045.494q-.27.988-.539,1.954a2.323,2.323,0,0,1-1.168,1.46,2.612,2.612,0,0,1-1.258.314,4.147,4.147,0,0,1-.584-.045,2.344,2.344,0,0,1-1.482-1.078,2.377,2.377,0,0,1-.4-1.3,3.025,3.025,0,0,1,.045-.494q.045-.225.09-.4.045-.359-.314-.359H61.363a1.309,1.309,0,0,1-.966-.382,1.255,1.255,0,0,1-.382-.921,1.255,1.255,0,0,1,.382-.921,1.309,1.309,0,0,1,.966-.382Zm-7.1-15q-.045.045,0,.112t.09.067H100a1.6,1.6,0,0,1,1.168.494,1.623,1.623,0,0,1,.494,1.19,1.623,1.623,0,0,1-.494,1.19,1.6,1.6,0,0,1-1.168.494H93.8a.106.106,0,0,0-.112.09.134.134,0,0,0,.022.135,1.62,1.62,0,0,1,.314.943,1.585,1.585,0,0,1-.135.629,1.749,1.749,0,0,1-1.213,1.078h-.045a2.544,2.544,0,0,1-.809.135,2.767,2.767,0,0,1-1.168-.27,3.345,3.345,0,0,1-1.572-1.3,13.665,13.665,0,0,0-.809-1.168.6.6,0,0,0-.539-.27H86.16a.735.735,0,0,0-.539.225,24.435,24.435,0,0,1-2.2,2.111.724.724,0,0,0-.27.584v.674a.318.318,0,0,0,.359.359H98.244a1.309,1.309,0,0,1,.966.382,1.282,1.282,0,0,1,.382.943,1.282,1.282,0,0,1-.382.943,1.309,1.309,0,0,1-.966.382H83.51a.318.318,0,0,0-.359.359v.494a.318.318,0,0,0,.359.359H95.145a1.129,1.129,0,0,1,.831.337,1.129,1.129,0,0,1,.337.831,1.129,1.129,0,0,1-.337.831,1.129,1.129,0,0,1-.831.337H66.08a1.129,1.129,0,0,1-.831-.337,1.129,1.129,0,0,1-.337-.831,1.129,1.129,0,0,1,.337-.831,1.129,1.129,0,0,1,.831-.337h11.5a.318.318,0,0,0,.359-.359v-.494a.318.318,0,0,0-.359-.359H62.98a1.331,1.331,0,0,1-.943-.382,1.246,1.246,0,0,1-.4-.943,1.246,1.246,0,0,1,.4-.943,1.331,1.331,0,0,1,.943-.382H77.715a.2.2,0,0,0,.225-.225,1.635,1.635,0,0,1,.472-1.168,1.576,1.576,0,0,1,1.19-.494h.539a.072.072,0,0,0,.067-.045.073.073,0,0,0-.022-.09q-.764-.4-1.752-.9a.509.509,0,0,1-.292-.449.515.515,0,0,1,.247-.494v-.067q0-.022-.045-.022H73.582a.181.181,0,0,0-.18.09q-.045.09,0,.135a1.912,1.912,0,0,1,.225.854,1.685,1.685,0,0,1-.18.764,1.9,1.9,0,0,1-1.258,1.078l-.135.045a3.357,3.357,0,0,1-.719.09,2.575,2.575,0,0,1-1.168-.27A3.084,3.084,0,0,1,68.73-31.4q-.27-.539-.584-1.123a.5.5,0,0,0-.494-.27h-.4a.735.735,0,0,0-.539.225q-.764.809-1.482,1.527a2.9,2.9,0,0,1-2.021.854H63.07a3.553,3.553,0,0,1-1.977-.584,1.815,1.815,0,0,1-.854-1.572,1.876,1.876,0,0,1,.674-1.482,22.04,22.04,0,0,0,3.055-3.234,4.182,4.182,0,0,1,1.8-1.437,3.718,3.718,0,0,1,1.258-.225,4.571,4.571,0,0,1,.9.09l.809.225a1.488,1.488,0,0,1,.943.854,1.252,1.252,0,0,1-.09,1.213q-.135.18.09.18H77.85a1.954,1.954,0,0,1,1.438.584,1.954,1.954,0,0,1,.584,1.438q0,.045.067.067a.369.369,0,0,0,.112.022,20.245,20.245,0,0,0,2.785-3.01,4.182,4.182,0,0,1,1.8-1.437,3.5,3.5,0,0,1,1.3-.27,3.926,3.926,0,0,1,.854.09l.809.225a1.427,1.427,0,0,1,1.011.831A1.274,1.274,0,0,1,88.5-36.342Zm60.42,32.883a.318.318,0,0,0-.359-.359h-17.52a.318.318,0,0,0-.359.359v1.887q0,.314.359.314h17.52q.359,0,.359-.314Zm-3.5-12.443q0-.314-.359-.314H131.037q-.359,0-.359.314V-14.2a.318.318,0,0,0,.359.359h14.016a.318.318,0,0,0,.359-.359ZM131.037-9.928q-.359,0-.359.314v1.438a.318.318,0,0,0,.359.359H151.7a2.585,2.585,0,0,1,1.864.764,2.526,2.526,0,0,1,.786,1.887V1.393a2.526,2.526,0,0,1-.786,1.887,2.585,2.585,0,0,1-1.864.764h-1.707a1.074,1.074,0,0,1-1.078-1.078q0-.18-.135-.18H130.813q-.135,0-.135.18A1.074,1.074,0,0,1,129.6,4.043h-1.527a2.585,2.585,0,0,1-1.864-.764,2.475,2.475,0,0,1-.786-1.842v-19a2.547,2.547,0,0,1,.786-1.864,2.547,2.547,0,0,1,1.864-.786H148.2a2.547,2.547,0,0,1,1.864.786,2.547,2.547,0,0,1,.786,1.864v4.986a2.547,2.547,0,0,1-.786,1.864,2.547,2.547,0,0,1-1.864.786ZM157-35.758a2.079,2.079,0,0,1,1.527.629,2.079,2.079,0,0,1,.629,1.527,2.079,2.079,0,0,1-.629,1.527,2.079,2.079,0,0,1-1.527.629h-5.076a.181.181,0,0,0-.18.09.191.191,0,0,0,0,.18,6.321,6.321,0,0,1,.4.539,1.9,1.9,0,0,1,.314,1.033,2.035,2.035,0,0,1-.135.719,1.9,1.9,0,0,1-1.348,1.213,2.972,2.972,0,0,1-.854.135,3.275,3.275,0,0,1-1.3-.27,3.676,3.676,0,0,1-1.662-1.437q-.584-.943-1.3-1.932a.564.564,0,0,0-.494-.27h-2.021a.735.735,0,0,0-.539.225,27.226,27.226,0,0,1-2.066,2.336.724.724,0,0,0-.27.584v1.8q0,.314.359.314h14.6a2.526,2.526,0,0,1,1.887.786,2.585,2.585,0,0,1,.764,1.864v3.818a2.563,2.563,0,0,1-.764,1.887,2.563,2.563,0,0,1-1.887.764,2.563,2.563,0,0,1-1.887-.764,2.563,2.563,0,0,1-.764-1.887v-2.021a.318.318,0,0,0-.359-.359H123.8a.318.318,0,0,0-.359.359v2.111a2.473,2.473,0,0,1-.741,1.819,2.473,2.473,0,0,1-1.819.741,2.473,2.473,0,0,1-1.819-.741,2.473,2.473,0,0,1-.741-1.819v-3.908a2.585,2.585,0,0,1,.764-1.864,2.526,2.526,0,0,1,1.887-.786H134.9q.359,0,.359-.314v-1.078a1.739,1.739,0,0,1,.517-1.28,1.739,1.739,0,0,1,1.28-.517l.022-.045a.073.073,0,0,0-.022-.09q-.4-.225-.9-.449a.827.827,0,0,1-.449-.674.787.787,0,0,1,.27-.719q.045-.045.022-.067a.091.091,0,0,0-.067-.022h-4.852a.181.181,0,0,0-.18.09.191.191,0,0,0,0,.18,3.142,3.142,0,0,1,.225.449,1.806,1.806,0,0,1,.27.943,2.078,2.078,0,0,1-.18.854,2.327,2.327,0,0,1-1.437,1.213,3.139,3.139,0,0,1-.764.09,2.526,2.526,0,0,1-1.213-.314,3.008,3.008,0,0,1-1.437-1.482q-.449-.9-.943-1.752a.564.564,0,0,0-.494-.27h-.135a.564.564,0,0,0-.494.27q-.854,1.123-1.707,2.156a2.627,2.627,0,0,1-1.887.943.848.848,0,0,1-.27.045,3,3,0,0,1-1.8-.584h-.045a1.959,1.959,0,0,1-.9-1.527v-.27a1.983,1.983,0,0,1,.539-1.393,24.9,24.9,0,0,0,3.729-5.121,3.378,3.378,0,0,1,1.572-1.527,3.074,3.074,0,0,1,1.3-.314,2.544,2.544,0,0,1,.809.135l.449.135a1.767,1.767,0,0,1,1.213.988,2.035,2.035,0,0,1,.135.719,1.977,1.977,0,0,1-.18.809.148.148,0,0,0,0,.157.151.151,0,0,0,.135.067h7.322a2.547,2.547,0,0,1,1.864.786,2.547,2.547,0,0,1,.786,1.864v.09q0,.135.09.157a.109.109,0,0,0,.135-.067,20.664,20.664,0,0,0,2.965-4,3.62,3.62,0,0,1,1.617-1.527,2.923,2.923,0,0,1,1.393-.359,2.954,2.954,0,0,1,.719.09l.4.09a1.769,1.769,0,0,1,1.258,1.033,1.581,1.581,0,0,1,.225.764,1.732,1.732,0,0,1-.225.854.148.148,0,0,0,0,.157.2.2,0,0,0,.18.067ZM186.516-9.523a2.035,2.035,0,0,1,.719-.135A2.065,2.065,0,0,1,188.4-9.3a2.058,2.058,0,0,1,1.078,1.527,3.557,3.557,0,0,1,.045.584,3.239,3.239,0,0,1-.4,1.527,3.012,3.012,0,0,1-1.662,1.3Q183.91-3.1,177.441-1.033a2.157,2.157,0,0,1-.764.135,2.213,2.213,0,0,1-1.168-.359,2.5,2.5,0,0,1-1.168-1.572l-.09-.359a5.151,5.151,0,0,1-.045-.629,2.748,2.748,0,0,1,.4-1.437,2.638,2.638,0,0,1,1.662-1.213q1.348-.359,2.7-.764a.4.4,0,0,0,.359-.4V-17.789q0-.314-.359-.314h-1.8a2.421,2.421,0,0,1-1.774-.741,2.421,2.421,0,0,1-.741-1.774,2.421,2.421,0,0,1,.741-1.774,2.421,2.421,0,0,1,1.774-.741h1.8a.318.318,0,0,0,.359-.359v-7.412q0-.314-.359-.314h-2.156a2.437,2.437,0,0,1-1.819-.764,2.522,2.522,0,0,1-.741-1.819,2.447,2.447,0,0,1,.741-1.8,2.473,2.473,0,0,1,1.819-.741h10.063a2.473,2.473,0,0,1,1.819.741,2.447,2.447,0,0,1,.741,1.8,2.522,2.522,0,0,1-.741,1.819,2.437,2.437,0,0,1-1.819.764h-2.021q-.359,0-.359.314v7.412a.318.318,0,0,0,.359.359h1.3a2.348,2.348,0,0,1,1.752.741,2.459,2.459,0,0,1,.719,1.774,2.459,2.459,0,0,1-.719,1.774,2.348,2.348,0,0,1-1.752.741h-1.3q-.359,0-.359.314v8.535a.221.221,0,0,0,.112.2.2.2,0,0,0,.2.022Q185.887-9.344,186.516-9.523Zm9.928-14.734a.318.318,0,0,0-.359.359v3.279q0,.314.359.314h4.043q.359,0,.359-.314V-23.9a.318.318,0,0,0-.359-.359Zm0-8.131a.318.318,0,0,0-.359.359v3.145q0,.314.359.314h4.043q.359,0,.359-.314v-3.145a.318.318,0,0,0-.359-.359ZM209.65-28.57q.359,0,.359-.314v-3.145a.318.318,0,0,0-.359-.359h-3.863a.318.318,0,0,0-.359.359v3.145q0,.314.359.314Zm0,8.266q.359,0,.359-.314V-23.9a.318.318,0,0,0-.359-.359h-3.863a.318.318,0,0,0-.359.359v3.279q0,.314.359.314ZM205.922-2.74a.318.318,0,0,0,.359.359h8.49a2.384,2.384,0,0,1,1.752.719A2.384,2.384,0,0,1,217.242.09a2.384,2.384,0,0,1-.719,1.752,2.384,2.384,0,0,1-1.752.719H190.154a2.384,2.384,0,0,1-1.752-.719A2.384,2.384,0,0,1,187.684.09a2.384,2.384,0,0,1,.719-1.752,2.384,2.384,0,0,1,1.752-.719h9.883a.318.318,0,0,0,.359-.359V-6.424a.318.318,0,0,0-.359-.359H193.3a2.332,2.332,0,0,1-1.707-.719,2.358,2.358,0,0,1-.719-1.729,2.358,2.358,0,0,1,.719-1.729,2.332,2.332,0,0,1,1.707-.719h6.738a.318.318,0,0,0,.359-.359v-3.279q0-.314-.359-.314h-6.2a2.526,2.526,0,0,1-1.887-.786,2.585,2.585,0,0,1-.764-1.864V-34.365a2.563,2.563,0,0,1,.764-1.887,2.563,2.563,0,0,1,1.887-.764h18.688a2.563,2.563,0,0,1,1.887.764,2.563,2.563,0,0,1,.764,1.887v16.082a2.585,2.585,0,0,1-.764,1.864,2.526,2.526,0,0,1-1.887.786h-6.244q-.359,0-.359.314v3.279a.318.318,0,0,0,.359.359h6.963a2.407,2.407,0,0,1,1.729.719,2.323,2.323,0,0,1,.741,1.729,2.323,2.323,0,0,1-.741,1.729,2.407,2.407,0,0,1-1.729.719h-6.963a.318.318,0,0,0-.359.359Z" transform="translate(96.556 219.117)" fill="#3e659f" opacity="0.92"/>
    <path id="Path_1727" data-name="Path 1727" d="M8.438-15.688q0,.352.308.352h5.186a.311.311,0,0,0,.352-.352v-5.933a.311.311,0,0,0-.352-.352h-5.1q-.308,0-.308.352v1.538Q8.525-17.227,8.438-15.688Zm5.845-16.26q0-.308-.352-.308h-5.1a.272.272,0,0,0-.308.308v5.757a.272.272,0,0,0,.308.308h5.1q.352,0,.352-.308Zm1.274-4.175a2.529,2.529,0,0,1,1.824.747,2.471,2.471,0,0,1,.769,1.846V-1.187a6.988,6.988,0,0,1-.374,2.549,2.731,2.731,0,0,1-1.252,1.406,9.187,9.187,0,0,1-4.043.791h-.044a2.219,2.219,0,0,1-1.494-.571,2.9,2.9,0,0,1-.967-1.494A1.517,1.517,0,0,1,10.217.2,1.344,1.344,0,0,1,11.382-.4h2.109a1.006,1.006,0,0,0,.615-.22.936.936,0,0,0,.176-.659v-9.8q0-.308-.352-.308H8.525q-.352,0-.352.308A50.057,50.057,0,0,1,5.713,1.846,1.344,1.344,0,0,1,4.7,2.725a1.54,1.54,0,0,1-.483.088A1.767,1.767,0,0,1,3.3,2.549a2.061,2.061,0,0,1-.967-1.143A1.934,1.934,0,0,1,2.153.615a1.99,1.99,0,0,1,.132-.7A36.023,36.023,0,0,0,4.263-9.119q.483-4.988.483-10.964V-33.53a2.507,2.507,0,0,1,.747-1.846,2.507,2.507,0,0,1,1.846-.747Zm10.2,19.2a.272.272,0,0,0-.308.308V-.044a.19.19,0,0,0,.088.154.157.157,0,0,0,.176.022A20.765,20.765,0,0,0,31.6-4.79a.4.4,0,0,0,.044-.527,42.467,42.467,0,0,1-5.317-11.294.407.407,0,0,0-.439-.308Zm12,.308a.228.228,0,0,0-.022-.22.231.231,0,0,0-.2-.088H30.1a.253.253,0,0,0-.176.088.2.2,0,0,0-.044.22,33.562,33.562,0,0,0,4,8.086.143.143,0,0,0,.176.11.221.221,0,0,0,.176-.11A33.159,33.159,0,0,0,37.749-16.611Zm1.582-4.131a2.165,2.165,0,0,1,1.143.044l.659.264a1.449,1.449,0,0,1,.813.659,1.3,1.3,0,0,1,.154,1.011A38.307,38.307,0,0,1,36.738-5.317a.351.351,0,0,0,.044.527A22.683,22.683,0,0,0,41.836-.659,1.5,1.5,0,0,1,42.583.527a.83.83,0,0,1,.044.264,1.688,1.688,0,0,1-.4,1.1,2.432,2.432,0,0,1-1.45.879,1.29,1.29,0,0,1-.483.088A1.953,1.953,0,0,1,39.2,2.5,25.743,25.743,0,0,1,34.365-1.67a.249.249,0,0,0-.439,0,26.406,26.406,0,0,1-3.911,3.6,2.49,2.49,0,0,1-1.406.439,3.2,3.2,0,0,1-.527-.044,3.25,3.25,0,0,1-1.758-1.055q-.352-.4-.659-.7a.131.131,0,0,0-.132-.022q-.088.022-.088.154v.879a1.876,1.876,0,0,1-.593,1.406,2.016,2.016,0,0,1-2.812,0,1.876,1.876,0,0,1-.593-1.406V-33.442a2.471,2.471,0,0,1,.769-1.846,2.529,2.529,0,0,1,1.824-.747H38.452a2.529,2.529,0,0,1,1.824.747,2.471,2.471,0,0,1,.769,1.846v6.021a5.275,5.275,0,0,1-.417,2.351,2.6,2.6,0,0,1-1.56,1.208,17.757,17.757,0,0,1-5.405.571,2.33,2.33,0,0,1-1.45-.505,2.946,2.946,0,0,1-.967-1.3,1.105,1.105,0,0,1,.11-1.143,1.156,1.156,0,0,1,.989-.527h3.735a1.34,1.34,0,0,0,.769-.154.659.659,0,0,0,.2-.549v-4.351q0-.308-.352-.308H25.752a.272.272,0,0,0-.308.308v10.723q0,.352.308.352H39.331ZM78.847-13.1q-.044.308.264.308h7.339A2.254,2.254,0,0,1,88.207-12a2.183,2.183,0,0,1,.615,1.538v.264a67.469,67.469,0,0,1-1.165,8.218A8.7,8.7,0,0,1,86.1,1.758,5.314,5.314,0,0,1,83.065,3.12q-.835.044-2.109.044h-.879a2.173,2.173,0,0,1-1.494-.593A2.872,2.872,0,0,1,77.7,1.1,1.24,1.24,0,0,1,77.9-.11a1.185,1.185,0,0,1,1.077-.505q1.23.088,2.175.088a1.842,1.842,0,0,0,1.428-.527q1.143-1.011,1.934-7.866.044-.352-.308-.352H78.363a.407.407,0,0,0-.439.308A19.121,19.121,0,0,1,74.5-2.131a17.771,17.771,0,0,1-6.372,4.856,2.231,2.231,0,0,1-.923.22,1.99,1.99,0,0,1-.7-.132,2.668,2.668,0,0,1-1.362-.967,1.515,1.515,0,0,1-.286-1.3,1.4,1.4,0,0,1,.813-1.033,14.669,14.669,0,0,0,8-8.481.179.179,0,0,0-.044-.2.238.238,0,0,0-.176-.11H69.223a1.7,1.7,0,0,1-1.252-.505,1.675,1.675,0,0,1-.505-1.23,1.748,1.748,0,0,1,.505-1.252,1.665,1.665,0,0,1,1.252-.527h5.1a.344.344,0,0,0,.4-.308q.132-.967.264-1.89a2.213,2.213,0,0,1,.747-1.472,2.227,2.227,0,0,1,1.538-.593,1.844,1.844,0,0,1,1.406.615,1.805,1.805,0,0,1,.439,1.187v.264Q78.979-14.062,78.847-13.1Zm3.164-16.26a.233.233,0,0,0,0-.2.171.171,0,0,0-.176-.11H74.188a.171.171,0,0,0-.176.11.233.233,0,0,0,0,.2,21.51,21.51,0,0,0,4.131,4.438.32.32,0,0,0,.483,0A15.8,15.8,0,0,0,82.011-29.355Zm7.339-3.3a1.711,1.711,0,0,1,.527,1.252,1.64,1.64,0,0,1-.527,1.23,1.723,1.723,0,0,1-1.23.505H87.108a.482.482,0,0,0-.483.308,21.481,21.481,0,0,1-4.614,6.68q-.264.22.044.4a31.466,31.466,0,0,0,6.68,2.681,1.225,1.225,0,0,1,.923.879,1.427,1.427,0,0,1-.22,1.318,3.537,3.537,0,0,1-1.494,1.143,2.626,2.626,0,0,1-1.011.22,2.488,2.488,0,0,1-.791-.132,31.886,31.886,0,0,1-7.383-3.56.508.508,0,0,0-.571,0,33.572,33.572,0,0,1-7.339,3.472,2.366,2.366,0,0,1-.747.132,2.033,2.033,0,0,1-.835-.176,2.968,2.968,0,0,1-1.318-1.011.149.149,0,0,0-.11-.044q-.066,0-.11.088-.967,3.34-1.8,5.537a1.316,1.316,0,0,1-.835.835,1.4,1.4,0,0,1-1.187-.088,1.7,1.7,0,0,1-.857-.945,1.878,1.878,0,0,1-.022-1.3q.615-1.89,1.318-4.922.088-.308-.22-.308H61.313a.311.311,0,0,0-.352.352V-1.187a7.435,7.435,0,0,1-.33,2.5,2.483,2.483,0,0,1-1.34,1.362,10.445,10.445,0,0,1-3.823.659H55.38a2.328,2.328,0,0,1-1.494-.527,2.9,2.9,0,0,1-.967-1.45,1.411,1.411,0,0,1,.2-1.3,1.3,1.3,0,0,1,1.121-.593H56.3A1,1,0,0,0,56.874-.7a.763.763,0,0,0,.132-.527V-13.1a.039.039,0,0,0-.044-.044.127.127,0,0,0-.088.044,34.763,34.763,0,0,1-4.438,7.734,1.212,1.212,0,0,1-1.011.527.829.829,0,0,1-.264-.044,1.6,1.6,0,0,1-1.187-.835,3.206,3.206,0,0,1-.352-1.45,2.037,2.037,0,0,1,.044-.4,2.934,2.934,0,0,1,.747-1.714A32.233,32.233,0,0,0,55.6-18.149a.2.2,0,0,0-.022-.2.216.216,0,0,0-.2-.11H51.293a1.789,1.789,0,0,1-1.318-.527,1.736,1.736,0,0,1-.527-1.274,1.81,1.81,0,0,1,.527-1.3,1.752,1.752,0,0,1,1.318-.549h9.316a.1.1,0,0,0,.11-.066q.022-.066-.066-.11a49.635,49.635,0,0,0-7.646-4.351,1.324,1.324,0,0,1-.747-.967,1.2,1.2,0,0,1,.352-1.143,2.6,2.6,0,0,1,1.406-.791,2.088,2.088,0,0,1,.571-.088,2.724,2.724,0,0,1,1.055.22q1.055.483,2.021.967a.516.516,0,0,0,.571-.088,25.494,25.494,0,0,0,3.384-3.3.248.248,0,0,0,.022-.176q-.022-.088-.154-.088H51.776a1.736,1.736,0,0,1-1.274-.527,1.711,1.711,0,0,1-.527-1.252,1.711,1.711,0,0,1,.527-1.252,1.736,1.736,0,0,1,1.274-.527h13.1a1.548,1.548,0,0,1,1.143.176l.791.527a1.55,1.55,0,0,1,.725.989,1.333,1.333,0,0,1-.242,1.165A31.476,31.476,0,0,1,61.4-26.807q-.264.22.044.4.615.352,1.23.747a2.073,2.073,0,0,1,.967,1.582v.22a2.183,2.183,0,0,1-.615,1.538q-.044.044,0,.132a.141.141,0,0,0,.132.088h2.5a1.54,1.54,0,0,1,1.143,0l.7.22a1.633,1.633,0,0,1,.813.725,1.361,1.361,0,0,1,.154,1.033q-.044.176-.088.308a.179.179,0,0,0,.044.132q.044.044.132,0a29.254,29.254,0,0,0,6.372-2.593q.308-.176.044-.4a27.755,27.755,0,0,1-3.56-4.219q-.176-.264-.4-.044-.483.483-.923.967a2.414,2.414,0,0,1-1.582.659h-.088a2.571,2.571,0,0,1-1.582-.527,1.437,1.437,0,0,1-.659-1.274,1.417,1.417,0,0,1,.527-1.143,26.662,26.662,0,0,0,6.021-7.69,2.829,2.829,0,0,1,1.23-1.187,2.319,2.319,0,0,1,.967-.22,2.725,2.725,0,0,1,.659.088,1.726,1.726,0,0,1,1.1.923,1.99,1.99,0,0,1,.132.7,1.844,1.844,0,0,1-.176.747q-.352.659-.791,1.45a.187.187,0,0,0,0,.176.177.177,0,0,0,.176.088H88.119A1.686,1.686,0,0,1,89.35-32.651Zm29.716,17.446q0,.308.352.308h11.03a.272.272,0,0,0,.308-.308V-25.444q0-.352-.308-.352h-11.03a.311.311,0,0,0-.352.352Zm-16,0a.272.272,0,0,0,.308.308h10.986q.352,0,.352-.308V-25.444a.311.311,0,0,0-.352-.352H103.377q-.308,0-.308.352Zm16-14.985q0,.308.352.308h13.14a2.492,2.492,0,0,1,1.824.769,2.492,2.492,0,0,1,.769,1.824v16.743a2.144,2.144,0,0,1-.637,1.538,2.086,2.086,0,0,1-1.56.659h-.044a2.071,2.071,0,0,1-1.516-.637,2.122,2.122,0,0,1-.637-1.56.233.233,0,0,0-.264-.264H119.417a.311.311,0,0,0-.352.352V1.318a2.122,2.122,0,0,1-.637,1.56,2.175,2.175,0,0,1-3.076,0,2.122,2.122,0,0,1-.637-1.56V-10.459a.311.311,0,0,0-.352-.352h-11.03q-.264,0-.264.308v.264a2.034,2.034,0,0,1-.615,1.494,2.034,2.034,0,0,1-1.494.615,2.034,2.034,0,0,1-1.494-.615,2.034,2.034,0,0,1-.615-1.494V-27.29a2.492,2.492,0,0,1,.769-1.824,2.492,2.492,0,0,1,1.824-.769h12.92q.352,0,.352-.308v-5.317a2.122,2.122,0,0,1,.637-1.56,2.1,2.1,0,0,1,1.538-.637,2.1,2.1,0,0,1,1.538.637,2.122,2.122,0,0,1,.637,1.56ZM174.8-20.742a1.694,1.694,0,0,1-.352-1.011,1.54,1.54,0,0,1,.088-.483,1.715,1.715,0,0,1,.923-1.187,2.519,2.519,0,0,1,1.143-.264,4.057,4.057,0,0,1,.571.044,2.39,2.39,0,0,1,1.45.967,56.859,56.859,0,0,1,3.911,6.548,43.59,43.59,0,0,1,2.461,5.845,2.623,2.623,0,0,1,.132.835,2.34,2.34,0,0,1-.264,1.055A2.8,2.8,0,0,1,183.5-7.031a1.934,1.934,0,0,1-.791.176,1.934,1.934,0,0,1-.791-.176,2,2,0,0,1-1.1-1.23,39.958,39.958,0,0,0-2.329-5.889A47.038,47.038,0,0,0,174.8-20.742Zm-27.29,0a1.757,1.757,0,0,1,.791-1.318,1.755,1.755,0,0,1,1.055-.352h.4a2.444,2.444,0,0,1,1.406.923,2.039,2.039,0,0,1,.439,1.274.974.974,0,0,1-.044.308q-1.143,8.657-3.6,13.4a1.878,1.878,0,0,1-1.318,1.011,2.088,2.088,0,0,1-.571.088,2.471,2.471,0,0,1-1.187-.308,2,2,0,0,1-.967-1.362,1.8,1.8,0,0,1-.088-.571,2.15,2.15,0,0,1,.308-1.1A34.548,34.548,0,0,0,147.507-20.742Zm10.107-13.843a1.459,1.459,0,0,1-.879-1.055,2.037,2.037,0,0,1-.044-.4,1.513,1.513,0,0,1,.352-.967,3.147,3.147,0,0,1,1.538-.967,3.45,3.45,0,0,1,.747-.088,3.318,3.318,0,0,1,1.055.176q2.9,1.143,6.064,2.725,2.944,1.494,5.186,2.9a2.021,2.021,0,0,1,.967,1.406,2.037,2.037,0,0,1,.044.4,2.039,2.039,0,0,1-.439,1.274,2.209,2.209,0,0,1-1.494.879,2.037,2.037,0,0,1-.4.044,2.614,2.614,0,0,1-1.362-.4,47.731,47.731,0,0,0-4.966-2.9A65.564,65.564,0,0,0,157.614-34.585Zm-2.2,10.591a2.122,2.122,0,0,1,.637-1.56,2.1,2.1,0,0,1,1.538-.637,2.1,2.1,0,0,1,1.538.637,2.122,2.122,0,0,1,.637,1.56V-4.351a2.868,2.868,0,0,0,.505,2.043,3.567,3.567,0,0,0,2.219.461h7.295a2.289,2.289,0,0,0,2.373-1.67,21.372,21.372,0,0,0,.747-5.1,1.131,1.131,0,0,1,.681-1.011,1.443,1.443,0,0,1,1.3,0,3.38,3.38,0,0,1,1.406,1.143,2.49,2.49,0,0,1,.439,1.406v.264q-.439,4.746-1.582,6.548-1.318,2.241-5.054,2.241h-8.042q-3.867,0-5.251-1.318t-1.384-5.01Z" transform="translate(349.549 218.779)" fill="#ee8569"/>
    <path id="Subtraction_1" data-name="Subtraction 1" d="M221.521,49.267a44.969,44.969,0,0,1-16-2.917,44.7,44.7,0,0,1-13.451-8.031,44.707,44.707,0,0,1-13.451,8.031,45.36,45.36,0,0,1-32.008,0,44.706,44.706,0,0,1-13.451-8.031A44.706,44.706,0,0,1,119.7,46.35a45.361,45.361,0,0,1-32.008,0,44.7,44.7,0,0,1-13.451-8.031A44.708,44.708,0,0,1,60.793,46.35a44.97,44.97,0,0,1-16,2.917,44.858,44.858,0,0,1-17.434-3.488,44.666,44.666,0,0,1-14.237-9.512,44.218,44.218,0,0,1-9.6-14.108A43.763,43.763,0,0,1,0,4.882,44.653,44.653,0,0,1,.268,0,44.554,44.554,0,0,0,44.789,39.5,44.991,44.991,0,0,0,74.244,28.554,44.988,44.988,0,0,0,103.7,39.5a44.99,44.99,0,0,0,29.455-10.948A44.991,44.991,0,0,0,162.61,39.5a44.991,44.991,0,0,0,29.455-10.948A44.99,44.99,0,0,0,221.521,39.5,44.555,44.555,0,0,0,266.041,0a44.638,44.638,0,0,1,.268,4.882,43.764,43.764,0,0,1-3.52,17.276,44.219,44.219,0,0,1-9.6,14.108,44.665,44.665,0,0,1-14.237,9.512A44.859,44.859,0,0,1,221.521,49.267Z" transform="translate(74.363 199.63)" fill="#bed7ee"/>
  </g>
</svg>
