<svg xmlns="http://www.w3.org/2000/svg" width="31" height="31" viewBox="0 0 31 31">
  <g id="ic-attatch" transform="translate(-6370 -5190)">
    <g id="attach" transform="translate(6371 5178.295)">
      <g id="Group_5383" data-name="Group 5383" transform="translate(0 13.704)">
        <path id="Path_4650" data-name="Path 4650" d="M26.321,16.419a9.294,9.294,0,0,0-13.129,0L1.938,27.673a6.631,6.631,0,0,0,9.378,9.378L21.632,26.735a3.979,3.979,0,1,0-5.627-5.627L9.26,27.854a1.326,1.326,0,1,0,1.876,1.876l6.746-6.746a1.326,1.326,0,1,1,1.875,1.875L9.441,35.175a3.979,3.979,0,0,1-5.627-5.627L15.068,18.295a6.631,6.631,0,1,1,9.378,9.378L13.192,38.926A1.326,1.326,0,0,0,15.068,40.8L26.321,29.548a9.284,9.284,0,0,0,0-13.129Z" transform="translate(0 -13.704)" fill="#7183ac"/>
      </g>
    </g>
    <rect id="Rectangle_1767" data-name="Rectangle 1767" width="31" height="31" transform="translate(6370 5190)" fill="none"/>
  </g>
</svg>
