<svg xmlns="http://www.w3.org/2000/svg" width="26" height="18.246" viewBox="0 0 26 18.246">
  <g id="ic-back" transform="translate(0 -44.589)">
    <g id="Group_932" data-name="Group 932" transform="translate(0 44.589)">
      <path id="Path_1587" data-name="Path 1587" d="M25.465,62.835a.535.535,0,0,1-.478-.3c-.031-.059-2.482-4.6-12.709-4.759V62.3a.535.535,0,0,1-.86.425L.21,54.136a.534.534,0,0,1,0-.849L11.417,44.7a.535.535,0,0,1,.86.423v4.763c.271-.017.623-.032,1.039-.032C17.13,49.853,26,51.066,26,62.3a.535.535,0,0,1-.413.521A.483.483,0,0,1,25.465,62.835Z" transform="translate(0 -44.589)" fill="#666"/>
    </g>
  </g>
</svg>
