<svg id="ic-calendar" xmlns="http://www.w3.org/2000/svg" width="20" height="18.692" viewBox="0 0 20 18.692">
  <path id="Path_4637" data-name="Path 4637" d="M18.819,2H16.95V3.869a.623.623,0,1,1-1.246,0V2H5.735V3.869a.623.623,0,1,1-1.246,0V2H2.62A1.716,1.716,0,0,0,1,3.869V6.112H20.938V3.869A2.1,2.1,0,0,0,18.819,2ZM1,7.421v11.4a1.691,1.691,0,0,0,1.682,1.869h16.2A2.1,2.1,0,0,0,21,18.822V7.421ZM6.545,17.888H5.05a.491.491,0,0,1-.5-.5V15.832a.491.491,0,0,1,.5-.5H6.607a.491.491,0,0,1,.5.5v1.558a.545.545,0,0,1-.561.5Zm0-5.607H5.05a.491.491,0,0,1-.5-.5V10.224a.491.491,0,0,1,.5-.5H6.607a.491.491,0,0,1,.5.5v1.558a.545.545,0,0,1-.561.5Zm4.984,5.607H9.972a.491.491,0,0,1-.5-.5V15.832a.491.491,0,0,1,.5-.5H11.53a.491.491,0,0,1,.5.5v1.558A.459.459,0,0,1,11.53,17.888Zm0-5.607H9.972a.491.491,0,0,1-.5-.5V10.224a.491.491,0,0,1,.5-.5H11.53a.491.491,0,0,1,.5.5v1.558A.459.459,0,0,1,11.53,12.28Zm4.984,5.607H14.956a.491.491,0,0,1-.5-.5V15.832a.491.491,0,0,1,.5-.5h1.558a.491.491,0,0,1,.5.5v1.558A.459.459,0,0,1,16.514,17.888Zm0-5.607H14.956a.491.491,0,0,1-.5-.5V10.224a.491.491,0,0,1,.5-.5h1.558a.491.491,0,0,1,.5.5v1.558A.459.459,0,0,1,16.514,12.28Z" transform="translate(-1 -2)" fill="#e57676"/>
</svg>
