<svg xmlns="http://www.w3.org/2000/svg" xmlns:xlink="http://www.w3.org/1999/xlink" width="146" height="64" viewBox="0 0 146 64">
  <defs>
    <clipPath id="clip-path">
      <rect id="Rectangle_1653" data-name="Rectangle 1653" width="146" height="64" transform="translate(1268 458)" fill="#fff" stroke="#707070" stroke-width="1"/>
    </clipPath>
    <clipPath id="clip-path-2">
      <rect id="Rectangle_1695" data-name="Rectangle 1695" width="122" height="95.845" fill="none"/>
    </clipPath>
  </defs>
  <g id="ic-check" transform="translate(-1268 -458)" clip-path="url(#clip-path)">
    <g id="Group_1056" data-name="Group 1056" transform="translate(199 -27.582)">
      <g id="Group_1057" data-name="Group 1057" transform="translate(1088 491.737)">
        <g id="Group_1056-2" data-name="Group 1056" clip-path="url(#clip-path-2)">
          <path id="Path_4593" data-name="Path 4593" d="M121.549,3.12a6.628,6.628,0,0,1,7.1.747c4.78,3.561,1.428,9.994,1.428,9.994s5.294.825,5.829,5.588-3.629,8.022-3.629,8.022l-13.563-.9L110.6,23.74a10.682,10.682,0,0,1,1.858-8.778,97.875,97.875,0,0,1,7.145-7.827Z" transform="translate(-31.572 -0.693)"/>
          <path id="Path_4594" data-name="Path 4594" d="M64.206,63.015s7.368.2,9.235-1.947S71.3,54.679,71.3,54.679l-5.47.442Z" transform="translate(-18.372 -15.646)" fill="#f48462"/>
          <path id="Path_4595" data-name="Path 4595" d="M62.2,62.98,50.055,65.46a1.068,1.068,0,0,1-1.311-1.012l-1.366-20.91a1.485,1.485,0,0,1,1.146-1.513l12.143-2.481a1.068,1.068,0,0,1,1.311,1.012l1.366,20.91A1.485,1.485,0,0,1,62.2,62.98" transform="translate(-13.556 -11.308)" fill="#6373ad"/>
          <path id="Path_4596" data-name="Path 4596" d="M64.387,62.533,52.244,65.013A1.068,1.068,0,0,1,50.933,64l-1.366-20.91a1.484,1.484,0,0,1,1.145-1.513L62.856,39.1a1.068,1.068,0,0,1,1.311,1.012l1.366,20.91a1.485,1.485,0,0,1-1.146,1.513" transform="translate(-14.183 -11.18)" fill="#68b6d8"/>
          <path id="Path_4597" data-name="Path 4597" d="M56.665,43.8a1.3,1.3,0,0,1-1.287-1.15l-.164-1.468a.234.234,0,0,1,.207-.258.238.238,0,0,1,.258.207l.165,1.468a.816.816,0,0,0,.334.576.8.8,0,0,0,.651.141l4.134-.844a.823.823,0,0,0,.656-.89l-.171-1.747a.234.234,0,0,1,.21-.256.238.238,0,0,1,.256.21l.171,1.746a1.289,1.289,0,0,1-1.029,1.395l-4.133.844a1.309,1.309,0,0,1-.258.026" transform="translate(-15.798 -11.325)" fill="#fff"/>
          <path id="Path_4598" data-name="Path 4598" d="M73.884,52.873a23.3,23.3,0,0,0-3.509-3.817c-1.536-1.142-4.972.117-5.082,1.241s3.6,1.119,3.6,1.119.929,5.427,4.567,5.783.423-4.326.423-4.326" transform="translate(-18.682 -13.908)" fill="#f48462"/>
          <path id="Path_4599" data-name="Path 4599" d="M74.391,58.5c-3.45-.264-3.828-4.159-3.832-4.2a.178.178,0,0,1,.355-.031c.013.148.358,3.633,3.491,3.873a.178.178,0,0,1-.014.356" transform="translate(-20.19 -15.481)"/>
          <path id="Path_4600" data-name="Path 4600" d="M129.574,45.3s27.166-4.664,21.319,26.785c-3.586,19.286-20.416,25.523-34.855,20.937S104,75.208,104,75.208Z" transform="translate(-29.717 -12.892)" fill="#e0dfe5"/>
          <path id="Path_4601" data-name="Path 4601" d="M92.559,74.893S83.185,80.456,77.7,93.169c-3.725,8.625,2.137,22.891,3.377,23.429s24.715,0,24.715,0,17.573-18.428,14.905-40.065c-.74-6-28.133-1.64-28.133-1.64" transform="translate(-21.882 -20.992)" fill="#6373ad"/>
          <path id="Path_4602" data-name="Path 4602" d="M96.184,32.285s-3.415,7.2-9.449,10.526a31.339,31.339,0,0,1-10.676,3.821l-2.32,12.65s16.82,4.26,22.958-3.726-.513-23.27-.513-23.27" transform="translate(-21.099 -9.238)" fill="#ffb655"/>
          <path id="Path_4603" data-name="Path 4603" d="M99.007,62.112s2.423-30.134,5.076-31.877,20.791-1.53,20.791-1.53-2.22,7.276-.972,12.582,3.86,6.555,3.86,6.555l-.622,15.911Z" transform="translate(-28.33 -8.211)" fill="#a37b90"/>
          <path id="Path_4604" data-name="Path 4604" d="M100.338,57.208l-1.33,4.907a38.781,38.781,0,0,0,14.014,2.824,72.507,72.507,0,0,0,14.118-1.184l-3.966-21.945-3.14-13.1-10.275.581Z" transform="translate(-28.33 -8.215)" fill="#a37b90"/>
          <path id="Path_4605" data-name="Path 4605" d="M114.788,29.67s-.354-2.985.465-3.1,1.727.472,3.644.18,2.957-.886,3.559-.869.085,3.695.085,3.695l-4.8,1.5Z" transform="translate(-32.824 -7.407)" fill="#8b558e"/>
          <path id="Path_4606" data-name="Path 4606" d="M121.7,25.012a5.035,5.035,0,0,1,2.167,1.223c.583.833-.38,3.107-3.272,4.947a16.523,16.523,0,0,1-3.917,1.854,16.489,16.489,0,0,1-2.374-4.1c-.412-1.566.84-3.679.84-3.679Z" transform="translate(-32.684 -7.157)" fill="#ffb655"/>
          <path id="Path_4607" data-name="Path 4607" d="M117.752,33.452a10.649,10.649,0,0,1,1.837,4.837,13.613,13.613,0,0,1-1.242,6.395s-2.886-3.062-3.333-5.432.716-5.792.716-5.792a27.318,27.318,0,0,0-1.42,4.675c-.253,1.765-.609,4.035-.609,4.035a8.591,8.591,0,0,1-1.749-4.841c.014-2.66,2.809-4.5,2.809-4.5Z" transform="translate(-32.034 -9.395)" fill="#ffb655"/>
          <path id="Path_4608" data-name="Path 4608" d="M119.3,38.832a.659.659,0,0,1-.511-.24c-.686-.8-.163-3.656-.1-3.98a.234.234,0,0,1,.208-.189.243.243,0,0,1,.24.146c.209.521,1.227,3.162.693,3.983a.6.6,0,0,1-.5.28Zm-.292-3.245a4.972,4.972,0,0,0,.136,2.7.172.172,0,0,0,.167.077.13.13,0,0,0,.123-.066c.233-.357-.056-1.608-.425-2.711" transform="translate(-33.89 -9.85)" fill="#6373ad"/>
          <path id="Path_4609" data-name="Path 4609" d="M111.1,11.351a6.855,6.855,0,0,1-1.382-5.47A4.649,4.649,0,0,1,111.1,2.9s-1.528-3.077,3.02-2.89a12.781,12.781,0,0,1,7.223,2.419,2.133,2.133,0,0,1,3.011,1.4c.932,2.424,0,6,0,6Z" transform="translate(-31.365 0)"/>
          <path id="Path_4610" data-name="Path 4610" d="M122.634,21.15,122.5,26.7s-1.042,1.57-4.3,1.753c-2.424.136-3.159-1.126-3.159-1.126l.707-4.844,5.9-1.143Z" transform="translate(-32.918 -6.052)" fill="#f48462"/>
          <path id="Path_4611" data-name="Path 4611" d="M122.757,20.676a1.828,1.828,0,0,1-.175.532c-1.311,2.742-5.712,3.786-7.112,3.876l.4-2.733Z" transform="translate(-33.041 -5.916)"/>
          <path id="Path_4612" data-name="Path 4612" d="M113.839,4.458s-3.088,6.887-2.037,10.783,4.6,3.319,6.722,2.588a7.009,7.009,0,0,0,3.121-2.02,2.987,2.987,0,0,0,3.313-1.137c1.341-1.827.547-3.948-.578-4.443a3.108,3.108,0,0,0-2.476.308l1.072-2s-4.332-10.257-9.137-4.078" transform="translate(-31.929 -0.709)" fill="#f48462"/>
          <path id="Path_4613" data-name="Path 4613" d="M122.4,10.132s-2.974.6-5.041-2.71-1.876-4.669-1.876-4.669L113.423,6.17a6.3,6.3,0,0,1,.488-3.879c.947-1.511,1.931-1.2,1.931-1.2L122.4,2.733l1.727,5.256Z" transform="translate(-32.423 -0.305)"/>
          <path id="Path_4614" data-name="Path 4614" d="M114.938,16.255a.233.233,0,0,1-.223-.166,3.938,3.938,0,0,1,.64-3.057.234.234,0,0,1,.382.271,3.528,3.528,0,0,0-.574,2.649.236.236,0,0,1-.224.3" transform="translate(-32.792 -3.701)"/>
          <path id="Path_4615" data-name="Path 4615" d="M126.347,17.347a.234.234,0,0,1-.17-.4l1.884-1.985a.234.234,0,0,1,.341.322l-1.885,1.985a.233.233,0,0,1-.17.074" transform="translate(-36.086 -4.262)"/>
          <path id="Path_4616" data-name="Path 4616" d="M128.615,17.324l-.036,0-1.3-.2a.234.234,0,0,1-.2-.267.239.239,0,0,1,.266-.2l1.3.2a.234.234,0,0,1-.036.465" transform="translate(-36.363 -4.766)"/>
          <path id="Path_4617" data-name="Path 4617" d="M113.114,9.378a.234.234,0,0,1-.041-.465L114.3,8.7a.234.234,0,0,1,.081.462l-1.227.213a.269.269,0,0,1-.041,0" transform="translate(-32.299 -2.488)"/>
          <path id="Path_4618" data-name="Path 4618" d="M119.459,10.184a.238.238,0,0,1-.106-.026l-2.014-1.02a.234.234,0,0,1,.212-.418l2.014,1.02a.234.234,0,0,1-.106.443" transform="translate(-33.539 -2.488)"/>
          <path id="Path_4619" data-name="Path 4619" d="M113.114,12.752a.237.237,0,0,1-.069-.011.234.234,0,0,1-.155-.292l.347-1.129-.3-.373a.234.234,0,0,1,.363-.3l.383.469a.236.236,0,0,1,.043.217l-.384,1.249a.233.233,0,0,1-.223.166" transform="translate(-32.3 -3.023)"/>
          <path id="Path_4620" data-name="Path 4620" d="M117.95,13.162a.237.237,0,0,1-.069-.011.234.234,0,0,1-.155-.292l.346-1.126-.445-.52a.234.234,0,1,1,.356-.3l.529.618a.233.233,0,0,1,.046.221L118.173,13a.233.233,0,0,1-.223.166" transform="translate(-33.642 -3.098)"/>
          <path id="Path_4621" data-name="Path 4621" d="M122.456,25.885s-3.821,2.8-5.68,2.878-1.649-1.476-1.649-1.476l-.415,1.195,1.254,4.493,5.3-3.437,2.219-2.656Z" transform="translate(-32.824 -7.407)" fill="#ffb655"/>
          <path id="Path_4622" data-name="Path 4622" d="M118.388,33.416a8.774,8.774,0,0,1-1.781-.246.254.254,0,0,1-.158-.129c-.181-.39-1.057-2.374-.561-3.109a.658.658,0,0,1,.63-.287.785.785,0,0,1,.647.358c.44.672.012,2.154-.195,2.769a5.083,5.083,0,0,0,1.915.119c.451-.147.66-1.713.451-2.585a.233.233,0,0,1,.172-.283.23.23,0,0,1,.282.172c.188.78.153,2.844-.76,3.14a2.133,2.133,0,0,1-.641.08m-1.921-3.3a.2.2,0,0,0-.191.082c-.206.306.044,1.267.358,2.084a3.225,3.225,0,0,0,.138-2.02.32.32,0,0,0-.278-.146h-.028" transform="translate(-33.117 -8.482)" fill="#6373ad"/>
          <path id="Path_4623" data-name="Path 4623" d="M93.121,52.865a1.224,1.224,0,0,1-.832-.335c-1.257-1.117-1.388-4.855-1.393-5.013a.234.234,0,0,1,.417-.154c.518.642,3.077,3.908,2.582,5.067a.73.73,0,0,1-.666.431c-.036,0-.073,0-.108,0m-1.706-4.609c.1,1.134.39,3.218,1.184,3.925a.753.753,0,0,0,.589.213c.221-.019.259-.109.276-.148.259-.607-.978-2.566-2.049-3.99" transform="translate(-26.009 -13.527)" fill="#fff"/>
          <path id="Path_4624" data-name="Path 4624" d="M96.213,77.944a21.316,21.316,0,0,0,10.505-3.414l-.311-6.5c-.6-1.836-5.119-2-6.893-1.238a29.948,29.948,0,0,0-2.754,1.378c-2.763,1.547-1.726,2.066-.518,2.415s4.088-.528,1.928,1.256c-1.226,1.009-8.912,1.516-8.978,2.254-.155,1.718,4.267,1.433,4.267,1.433s-3.283-.339-4.141.17,2.877,2.547,6.9,2.245" transform="translate(-25.52 -18.99)" fill="#f48462"/>
          <path id="Path_4625" data-name="Path 4625" d="M93.761,79.369a8.725,8.725,0,0,1-1.939-.206.2.2,0,0,1,.088-.382,9.668,9.668,0,0,0,3.68.028.2.2,0,0,1,.082.383,9.9,9.9,0,0,1-1.911.177" transform="translate(-26.23 -22.541)"/>
          <path id="Path_4626" data-name="Path 4626" d="M102.528,73.049a.2.2,0,0,1-.016-.391l1.721-.15a.193.193,0,0,1,.212.178.2.2,0,0,1-.178.212l-1.722.15h-.016" transform="translate(-29.281 -20.747)"/>
          <path id="Path_4627" data-name="Path 4627" d="M116.273,19.862a1.577,1.577,0,0,1-.364-.037.234.234,0,0,1-.168-.286.232.232,0,0,1,.284-.168,1.844,1.844,0,0,0,1.621-.578.235.235,0,0,1,.323.341,2.455,2.455,0,0,1-1.7.728" transform="translate(-33.116 -5.359)"/>
          <path id="Path_4628" data-name="Path 4628" d="M128.222,28.708a9.451,9.451,0,0,1,8.548,6.284c2.653,6.455,7.179,19.539-4.163,26.118-8.929,5.179-21.273,4.682-21.273,4.682l-.625-11.261L125.8,45.5s-.666-11.9,2.42-16.8" transform="translate(-31.678 -8.214)" fill="#ffb655"/>
          <path id="Path_4629" data-name="Path 4629" d="M133.012,51.808c-.572,0-1.039-.024-1.269-.038a.232.232,0,0,1-.215-.191.234.234,0,0,1,.134-.256c1.079-.482,4.662-2.012,5.455-1.381a.531.531,0,0,1,.179.548c-.218,1.13-2.668,1.319-4.285,1.319m-.188-.471c1.845,0,3.881-.244,4.013-.937.015-.074,0-.087-.01-.092-.329-.262-2.176.286-4,1.029" transform="translate(-37.634 -14.247)" fill="#fff"/>
          <path id="Path_4630" data-name="Path 4630" d="M94.55,82.166a10.11,10.11,0,0,1-2.167-.293.2.2,0,1,1,.095-.38c.69.171,2.609.513,3.19.038a.2.2,0,1,1,.248.3,2.244,2.244,0,0,1-1.366.331" transform="translate(-26.392 -23.317)"/>
          <rect id="Rectangle_1694" data-name="Rectangle 1694" width="6.822" height="12.029" transform="translate(14.406 46.518)" fill="#a89aaf"/>
          <path id="Path_4631" data-name="Path 4631" d="M36.979,59.754H2.558A2.558,2.558,0,0,1,0,57.2v-18.2a2.558,2.558,0,0,1,2.558-2.558H36.979a2.558,2.558,0,0,1,2.558,2.558V57.2a2.558,2.558,0,0,1-2.558,2.558" transform="translate(0 -10.425)" fill="#a89aaf"/>
          <path id="Path_4632" data-name="Path 4632" d="M8.326,38.893a.234.234,0,0,1,0-.468l11.807-.039a.234.234,0,0,1,0,.468l-11.807.039Z" transform="translate(-2.315 -10.984)" fill="#fff"/>
        </g>
      </g>
    </g>
  </g>
</svg>
