<svg xmlns="http://www.w3.org/2000/svg" width="20" height="20" viewBox="0 0 20 20">
  <g id="ic-download" transform="translate(-2 -2)">
    <path id="Path_1717" data-name="Path 1717" d="M22,16a1,1,0,0,0-2,0v3a1,1,0,0,1-1,1H5a1,1,0,0,1-1-1V16a1,1,0,0,0-2,0v3a3,3,0,0,0,3,3H19a3,3,0,0,0,3-3Z" fill="#fff"/>
    <path id="Path_1718" data-name="Path 1718" d="M11,3V14.6L9.711,13.3a1,1,0,0,0-1.422,1.4l3,3.03a1,1,0,0,0,1.422,0l3-3.03a1,1,0,0,0-1.422-1.4L13,14.6V3a1,1,0,0,0-2,0Z" fill="#fff"/>
  </g>
</svg>
