<svg xmlns="http://www.w3.org/2000/svg" width="20" height="19.999" viewBox="0 0 20 19.999">
  <g id="ic-danger" transform="translate(-2903 -5380)">
    <circle id="Ellipse_95" data-name="Ellipse 95" cx="8" cy="8" r="8" transform="translate(2905 5382)" fill="#fff"/>
    <path id="alert" d="M19.224,22.775a1.6,1.6,0,1,1-1.6,1.6,1.6,1.6,0,0,1,1.6-1.6Zm-.674-10.434H19.9a1.237,1.237,0,0,1,1.142,1.318l-.4,6.473a1.3,1.3,0,0,1-1.416,1.318,1.3,1.3,0,0,1-1.415-1.318l-.4-6.473A1.237,1.237,0,0,1,18.551,12.341Zm.674-3.184a10,10,0,1,0,10,10,10,10,0,0,0-10-10Z" transform="translate(2893.776 5370.843)" fill="#ffb300"/>
  </g>
</svg>
