<svg xmlns="http://www.w3.org/2000/svg" width="17" height="16.999" viewBox="0 0 17 16.999">
  <g id="ic-edit" transform="translate(0 -0.501)">
    <path id="Path_4634" data-name="Path 4634" d="M13.458,91.483a.708.708,0,0,0-.708.708v5.667a.709.709,0,0,1-.708.708H2.125a.709.709,0,0,1-.708-.708V87.941a.709.709,0,0,1,.708-.708H7.792a.708.708,0,0,0,0-1.417H2.125A2.128,2.128,0,0,0,0,87.941v9.917a2.128,2.128,0,0,0,2.125,2.125h9.917a2.128,2.128,0,0,0,2.125-2.125V92.191a.708.708,0,0,0-.708-.708Zm0,0" transform="translate(0 -82.482)" fill="#374a87"/>
    <path id="Path_4635" data-name="Path 4635" d="M182.413,73.866a.358.358,0,0,0-.1.181l-.5,2.5a.354.354,0,0,0,.348.423.337.337,0,0,0,.069-.007l2.5-.5a.353.353,0,0,0,.181-.1l5.6-5.6-2.5-2.5Zm0,0" transform="translate(-175.772 -65.511)" fill="#374a87"/>
    <path id="Path_4636" data-name="Path 4636" d="M394.93,1.019a1.772,1.772,0,0,0-2.5,0l-.98.98,2.5,2.5.98-.98a1.771,1.771,0,0,0,0-2.5Zm0,0" transform="translate(-378.448)" fill="#374a87"/>
  </g>
</svg>
