<svg xmlns="http://www.w3.org/2000/svg" width="15" height="12.479" viewBox="0 0 15 12.479">
  <g id="ic-go" transform="translate(0 0)">
    <g id="Group_1064" data-name="Group 1064" transform="translate(0 0)">
      <path id="Path_4638" data-name="Path 4638" d="M14.76,47,9.343,41.586a.823.823,0,0,0-1.161,0l-.492.492a.815.815,0,0,0-.24.58.831.831,0,0,0,.24.587l3.16,3.167H.81A.8.8,0,0,0,0,47.22v.7a.832.832,0,0,0,.81.843H10.886l-3.2,3.185a.813.813,0,0,0,0,1.153l.492.49a.823.823,0,0,0,1.161,0l5.417-5.417a.828.828,0,0,0,0-1.165Z" transform="translate(0 -41.346)" fill="#666"/>
    </g>
  </g>
</svg>
