<svg xmlns="http://www.w3.org/2000/svg" width="18.01" height="17.999" viewBox="0 0 18.01 17.999">
  <g id="ic-help" transform="translate(-5.999 -6.036)">
    <g id="LWPOLYLINE" transform="translate(12.074 10.551)">
      <g id="Group_880" data-name="Group 880">
        <path id="Path_1364" data-name="Path 1364" d="M26.233,25.94h-.006a.693.693,0,0,1-.687-.7l0-.346a.572.572,0,0,1,0-.06,3.317,3.317,0,0,1,1.3-2.122c.182-.168.355-.327.5-.493a.938.938,0,0,0,.166-1.115,1.531,1.531,0,0,0-1.681-.6,1.288,1.288,0,0,0-.936.981.693.693,0,0,1-1.339-.359,2.627,2.627,0,0,1,1.965-1.973,2.883,2.883,0,0,1,3.206,1.288,2.313,2.313,0,0,1-.345,2.7,8.287,8.287,0,0,1-.6.592c-.5.459-.808.766-.86,1.209l0,.313a.692.692,0,0,1-.692.687Z" transform="translate(-23.537 -19.069)" fill="#7183ac"/>
      </g>
    </g>
    <g id="POINT" transform="translate(14.077 18.125)">
      <g id="Group_881" data-name="Group 881">
        <path id="Path_1365" data-name="Path 1365" d="M30.013,42.308a.7.7,0,0,1-.488-.2.69.69,0,0,1,0-.98.717.717,0,0,1,.977,0,.687.687,0,0,1,.2.488.686.686,0,0,1-.693.693Z" transform="translate(-29.32 -40.935)" fill="#7183ac"/>
      </g>
    </g>
    <g id="CIRCLE_2_" transform="translate(5.999 6.036)">
      <g id="Group_882" data-name="Group 882">
        <path id="Path_1366" data-name="Path 1366" d="M14.979,24.035a8.934,8.934,0,0,1-2.322-.305,9.06,9.06,0,1,1,2.322.305Zm.044-16.614a7.616,7.616,0,0,0-2.005,14.97,7.56,7.56,0,0,0,1.962.258h0A7.62,7.62,0,0,0,18.407,8.212,7.6,7.6,0,0,0,15.023,7.422Z" transform="translate(-5.999 -6.036)" fill="#7183ac"/>
      </g>
    </g>
  </g>
</svg>
