<svg xmlns="http://www.w3.org/2000/svg" width="16.76" height="16.76" viewBox="0 0 16.76 16.76">
  <path id="ic-list" d="M30.727,10.24H19.693A2.832,2.832,0,0,0,16.83,13.1V24.137A2.778,2.778,0,0,0,19.284,27H30.317c2.015,0,3.272-1.257,3.272-2.863V13.1A2.832,2.832,0,0,0,30.727,10.24Zm-.976,12.919H20.873a.66.66,0,0,1-.7-.7.7.7,0,0,1,.7-.7h8.878a.751.751,0,0,1,.7.7A.7.7,0,0,1,29.751,23.159Zm0-3.841H20.873a.7.7,0,1,1,0-1.4h8.878a.7.7,0,1,1,0,1.4Zm0-3.841H20.873a.7.7,0,0,1-.7-.7.66.66,0,0,1,.7-.7h8.878a.7.7,0,0,1,.7.7A.751.751,0,0,1,29.751,15.477Z" transform="translate(-16.83 -10.24)" fill="#aebcde"/>
</svg>
