<svg xmlns="http://www.w3.org/2000/svg" width="18.333" height="23.329" viewBox="0 0 18.333 23.329">
  <g id="ic-lock" transform="translate(-54.817)">
    <g id="Group_883" data-name="Group 883" transform="translate(57.593)">
      <path id="Path_1367" data-name="Path 1367" d="M127.574,12.353a.941.941,0,0,1-.941-.941V6.391a4.51,4.51,0,0,0-9.019,0v5.021a.941.941,0,1,1-1.881,0V6.391a6.391,6.391,0,0,1,12.782,0v5.021A.941.941,0,0,1,127.574,12.353Z" transform="translate(-115.733 0)" fill="#dcdcdc"/>
    </g>
    <path id="Path_1369" data-name="Path 1369" d="M71.565,210.175H56.4a1.586,1.586,0,0,1-1.586-1.586V197.352a1.586,1.586,0,0,1,1.586-1.586H71.565a1.586,1.586,0,0,1,1.586,1.586v11.238A1.585,1.585,0,0,1,71.565,210.175Z" transform="translate(0 -186.846)" fill="#f7b369"/>
    <path id="Path_1370" data-name="Path 1370" d="M208.041,276.008a2.4,2.4,0,1,0-3.61,2.08v2.772a1.206,1.206,0,1,0,2.411,0v-2.772A2.4,2.4,0,0,0,208.041,276.008Z" transform="translate(-141.654 -261.138)" fill="#40507f"/>
  </g>
</svg>
