<svg xmlns="http://www.w3.org/2000/svg" width="24.025" height="24.025" viewBox="0 0 24.025 24.025">
  <g id="ic-manage" transform="translate(-2 -2)">
    <path id="Path_4510" data-name="Path 4510" d="M23.913,11.449c-.446-1.058-.66-1.59-1.125-2.626l.968-2.033L21.2,4.251l-2.007.964c-1.047-.446-1.579-.66-2.626-1.107L15.811,2H12.2l-.75,2.093c-1.062.446-1.594.66-2.626,1.107L6.8,4.251,4.251,6.79l.964,2.022c-.446,1.047-.66,1.579-1.107,2.626L2,12.2v3.616l2.093.75c.446,1.062.66,1.594,1.107,2.626L4.251,21.2c1.279,1.29,1.279,1.29,2.569,2.569l2.007-.964c1.047.446,1.579.66,2.626,1.125l.75,2.093h3.616l.75-2.093c1.058-.446,1.59-.66,2.626-1.125l2.007.949c1.29-1.279,1.29-1.279,2.569-2.569l-.964-2.007c.446-1.047.66-1.579,1.125-2.626l2.093-.75V12.2ZM14,20.481A6.482,6.482,0,1,1,20.485,14,6.482,6.482,0,0,1,14,20.481Z" fill="#374a87"/>
    <path id="Path_4511" data-name="Path 4511" d="M31.2,36.362a5.161,5.161,0,0,1-8.417,0A4.419,4.419,0,0,1,24.967,33.8a3.526,3.526,0,0,0,4.04,0A4.407,4.407,0,0,1,31.2,36.362Z" transform="translate(-12.986 -19.872)" fill="#374a87"/>
    <path id="Path_4512" data-name="Path 4512" d="M32.681,23.557a1.977,1.977,0,1,1-.58-1.4A1.981,1.981,0,0,1,32.681,23.557Z" transform="translate(-16.697 -12.236)" fill="#374a87"/>
  </g>
</svg>
