<svg xmlns="http://www.w3.org/2000/svg" width="24" height="24" viewBox="0 0 24 24">
  <g id="ic-member" transform="translate(-1589 -193)">
    <g id="ic-member-2" data-name="ic-member" transform="translate(1590 193.999)">
      <path id="Path_1363" data-name="Path 1363" d="M11,0A11,11,0,1,0,22,11,11,11,0,0,0,11,0ZM11,3.29A3.638,3.638,0,1,1,7.362,6.928,3.639,3.639,0,0,1,11,3.29Zm0,15.834a8.073,8.073,0,0,1-5.257-1.939A1.55,1.55,0,0,1,5.2,16.007a3.669,3.669,0,0,1,3.687-3.668h4.234A3.664,3.664,0,0,1,16.8,16.007a1.547,1.547,0,0,1-.544,1.178A8.07,8.07,0,0,1,11,19.124Z" fill="#374a87"/>
    </g>
    <rect id="Rectangle_1679" data-name="Rectangle 1679" width="24" height="24" transform="translate(1589 193)" fill="none"/>
  </g>
</svg>
