<svg xmlns="http://www.w3.org/2000/svg" width="31" height="31" viewBox="0 0 31 31">
  <g id="ic-member-apply" transform="translate(-6368 -4824)">
    <g id="user" transform="translate(6372 4825)">
      <path id="Path_4645" data-name="Path 4645" d="M93.816,13.569a6.564,6.564,0,0,0,4.8-1.988,6.564,6.564,0,0,0,1.987-4.8,6.565,6.565,0,0,0-1.988-4.8,6.783,6.783,0,0,0-9.594,0,6.565,6.565,0,0,0-1.988,4.8,6.564,6.564,0,0,0,1.988,4.8A6.566,6.566,0,0,0,93.816,13.569Zm0,0" transform="translate(-82.244 0)" fill="#7183ac"/>
      <path id="Path_4646" data-name="Path 4646" d="M23.443,255.37a16.757,16.757,0,0,0-.228-1.78,14.023,14.023,0,0,0-.438-1.789,8.838,8.838,0,0,0-.736-1.669,6.3,6.3,0,0,0-1.109-1.446,4.891,4.891,0,0,0-1.593-1,5.507,5.507,0,0,0-2.034-.368,2.065,2.065,0,0,0-1.1.468c-.331.216-.717.465-1.149.741a6.582,6.582,0,0,1-1.486.655,5.771,5.771,0,0,1-3.636,0,6.567,6.567,0,0,1-1.485-.655c-.427-.273-.814-.522-1.15-.741a2.062,2.062,0,0,0-1.1-.468,5.5,5.5,0,0,0-2.034.369,4.887,4.887,0,0,0-1.594,1,6.3,6.3,0,0,0-1.109,1.445A8.856,8.856,0,0,0,.722,251.8a14.056,14.056,0,0,0-.438,1.789,16.7,16.7,0,0,0-.228,1.78c-.037.539-.056,1.1-.056,1.663a4.677,4.677,0,0,0,1.389,3.539,5,5,0,0,0,3.58,1.306H18.531a5,5,0,0,0,3.579-1.306,4.675,4.675,0,0,0,1.389-3.539c0-.568-.019-1.127-.057-1.664Zm0,0" transform="translate(0 -233.71)" fill="#7183ac"/>
    </g>
    <rect id="Rectangle_1765" data-name="Rectangle 1765" width="31" height="31" transform="translate(6368 4824)" fill="none"/>
  </g>
</svg>
