<svg xmlns="http://www.w3.org/2000/svg" width="17.001" height="17" viewBox="0 0 17.001 17">
  <g id="ic-open-link" transform="translate(-0.025 0)">
    <g id="arrow_up_right_to_square" transform="translate(0.025 0)">
      <path id="Path_4652" data-name="Path 4652" d="M8,47.551h-5.1a2.878,2.878,0,0,1-2.092-.787,2.889,2.889,0,0,1-.787-2.1c0-3.692,0-7.026,0-10.193a2.855,2.855,0,0,1,.794-2.088,2.906,2.906,0,0,1,2.1-.784H6.306a1.339,1.339,0,0,1,.983.355,1.117,1.117,0,0,1,.309.823,1.151,1.151,0,0,1-1.275,1.159H2.933c-.465,0-.574.11-.574.581v10.12c0,.468.11.574.578.574h10.12c.468,0,.578-.106.578-.578V41.249A1.15,1.15,0,0,1,14.8,39.974H14.8a1.14,1.14,0,0,1,1.165,1.262v.319c0,1.039,0,2.115,0,3.171a2.8,2.8,0,0,1-.8,2.035,2.848,2.848,0,0,1-2.045.787H8Z" transform="translate(-0.025 -30.551)" fill="#68b6d8"/>
      <path id="Path_4653" data-name="Path 4653" d="M190.271,10.718a1.108,1.108,0,0,1-.966-.651,1.2,1.2,0,0,1,.259-1.4c.485-.491.983-.986,1.464-1.464l.511-.508,1.65-1.64q1.33-1.32,2.653-2.643c.017-.017.033-.033.05-.053-.538-.01-1.7-.017-2.351-.02a1.219,1.219,0,0,1-.9-.345,1.153,1.153,0,0,1-.315-.84A1.13,1.13,0,0,1,193.538,0c.883,0,1.76,0,2.64,0s1.72,0,2.53,0A1.112,1.112,0,0,1,199.9,1.175c.007,1.776.007,3.536,0,5.236a1.164,1.164,0,0,1-2.328.007c0-.349-.007-.89-.01-1.414,0-.385,0-.754-.007-1-.027.023-.05.046-.073.07-.511.515-1.023,1.026-1.534,1.541-1.507,1.514-3.065,3.081-4.605,4.612a1.847,1.847,0,0,1-.86.471,1.178,1.178,0,0,1-.213.02Z" transform="translate(-182.904 0)" fill="#68b6d8"/>
    </g>
  </g>
</svg>
