<svg xmlns="http://www.w3.org/2000/svg" xmlns:xlink="http://www.w3.org/1999/xlink" width="146" height="64" viewBox="0 0 146 64">
  <defs>
    <clipPath id="clip-path">
      <rect id="Rectangle_1653" data-name="Rectangle 1653" width="146" height="64" transform="translate(1268 458)" fill="#fff" stroke="#707070" stroke-width="1"/>
    </clipPath>
  </defs>
  <g id="ic-password" transform="translate(-1268 -458)" clip-path="url(#clip-path)">
    <g id="Group_1013" data-name="Group 1013">
      <g id="Group_1009" data-name="Group 1009" transform="translate(1300.376 385.179)">
        <g id="Group_1010" data-name="Group 1010">
          <path id="Path_4446" data-name="Path 4446" d="M105.366,129.662H24.313a3.369,3.369,0,0,1-3.369-3.369v-5.884a3.369,3.369,0,0,1,3.369-3.369h81.053a3.369,3.369,0,0,1,3.369,3.369v5.884a3.369,3.369,0,0,1-3.369,3.369" transform="translate(0 -18.096)" fill="#d2d2db"/>
          <path id="Path_4447" data-name="Path 4447" d="M105.366,146.132H24.313a3.369,3.369,0,0,1-3.369-3.369v-5.884a3.369,3.369,0,0,1,3.369-3.369h81.053a3.369,3.369,0,0,1,3.369,3.369v5.884a3.369,3.369,0,0,1-3.369,3.369" transform="translate(0 -18.096)" fill="#d2d2db"/>
          <path id="Path_4448" data-name="Path 4448" d="M32.512,123.351a2.445,2.445,0,1,1-2.444-2.445,2.444,2.444,0,0,1,2.444,2.445" transform="translate(0 -18.096)" fill="#40507f"/>
          <path id="Path_4449" data-name="Path 4449" d="M41.424,123.351a2.445,2.445,0,1,1-2.444-2.445,2.444,2.444,0,0,1,2.444,2.445" transform="translate(0 -18.096)" fill="#40507f"/>
          <path id="Path_4450" data-name="Path 4450" d="M50.257,123.351a2.445,2.445,0,1,1-2.444-2.445,2.444,2.444,0,0,1,2.444,2.445" transform="translate(0 -18.096)" fill="#40507f"/>
          <path id="Path_4451" data-name="Path 4451" d="M59.168,123.351a2.445,2.445,0,1,1-2.444-2.445,2.444,2.444,0,0,1,2.444,2.445" transform="translate(0 -18.096)" fill="#40507f"/>
          <path id="Path_4452" data-name="Path 4452" d="M68.712,123.351a2.444,2.444,0,1,1-2.444-2.445,2.444,2.444,0,0,1,2.444,2.445" transform="translate(0 -18.096)" fill="#40507f"/>
          <path id="Path_4453" data-name="Path 4453" d="M77.623,123.351a2.445,2.445,0,1,1-2.444-2.445,2.444,2.444,0,0,1,2.444,2.445" transform="translate(0 -18.096)" fill="#40507f"/>
          <path id="Path_4454" data-name="Path 4454" d="M32.128,139.821a2.444,2.444,0,1,1-2.445-2.444,2.444,2.444,0,0,1,2.445,2.444" transform="translate(0 -18.096)" fill="#e4e4ea"/>
          <path id="Path_4455" data-name="Path 4455" d="M41.04,139.821a2.445,2.445,0,1,1-2.446-2.444,2.445,2.445,0,0,1,2.446,2.444" transform="translate(0 -18.096)" fill="#e4e4ea"/>
          <path id="Path_4456" data-name="Path 4456" d="M49.872,139.821a2.445,2.445,0,1,1-2.445-2.444,2.444,2.444,0,0,1,2.445,2.444" transform="translate(0 -18.096)" fill="#e4e4ea"/>
          <path id="Path_4457" data-name="Path 4457" d="M58.784,139.821a2.445,2.445,0,1,1-2.445-2.444,2.445,2.445,0,0,1,2.445,2.444" transform="translate(0 -18.096)" fill="#e4e4ea"/>
          <path id="Path_4458" data-name="Path 4458" d="M68.327,139.821a2.445,2.445,0,1,1-2.444-2.444,2.444,2.444,0,0,1,2.444,2.444" transform="translate(0 -18.096)" fill="#e4e4ea"/>
          <path id="Path_4459" data-name="Path 4459" d="M77.239,139.821a2.445,2.445,0,1,1-2.445-2.444,2.444,2.444,0,0,1,2.445,2.444" transform="translate(0 -18.096)" fill="#e4e4ea"/>
          <path id="Path_4460" data-name="Path 4460" d="M86.068,139.821a2.445,2.445,0,1,1-2.445-2.444,2.444,2.444,0,0,1,2.445,2.444" transform="translate(0 -18.096)" fill="#e4e4ea"/>
          <path id="Path_4461" data-name="Path 4461" d="M95.179,139.821a2.445,2.445,0,1,1-2.445-2.444,2.444,2.444,0,0,1,2.445,2.444" transform="translate(0 -18.096)" fill="#e4e4ea"/>
        </g>
      </g>
      <g id="Group_1012" data-name="Group 1012" transform="translate(1267.622 469.942)">
        <g id="Group_1025" data-name="Group 1025" transform="translate(0 0)">
          <path id="Path_4462" data-name="Path 4462" d="M522.014,13.73s-3.421-3.763-10.456,1.189-1.648,23.258-1.648,23.258l13.929-3.486Z" transform="translate(-481.528 -11.288)"/>
          <path id="Path_4469" data-name="Path 4469" d="M364.1,258.23s-8.916,2.125-16.233,1.579-10.052-1.882-10.052-1.882V245.51l6.239-19.85,11.315.637,6.973,13.19Z" transform="translate(-307.029 -206.083)" fill="#7c576c"/>
          <path id="Path_4470" data-name="Path 4470" d="M465.176,164.908l.131,5.424s.978,1.535,4.034,1.713c2.277.133,2.967-1.1,2.967-1.1l-.665-4.732-5.538-1.117Z" transform="translate(-426.287 -150.601)" fill="#ff9280"/>
          <path id="Path_4471" data-name="Path 4471" d="M468.494,161.093a1.833,1.833,0,0,0,.164.519c1.232,2.679,5.365,3.7,6.68,3.787l-.377-2.671Z" transform="translate(-429.605 -147.117)"/>
          <path id="Path_4472" data-name="Path 4472" d="M449.568,16.744s2.9,6.729,1.913,10.535-4.318,3.242-6.314,2.528a6.592,6.592,0,0,1-2.931-1.974,2.737,2.737,0,0,1-3.112-1.111c-1.259-1.785-.513-3.857.543-4.341a2.823,2.823,0,0,1,2.326.3l-1.007-1.954s4.069-10.021,8.582-3.984" transform="translate(-403.348 -13.525)" fill="#ff9280"/>
          <path id="Path_4473" data-name="Path 4473" d="M462.915,102.512a.187.187,0,0,0,.178-.133,3.912,3.912,0,0,0-.595-2.944.186.186,0,0,0-.307.209,3.6,3.6,0,0,1,.545,2.63.186.186,0,0,0,.126.231.19.19,0,0,0,.052.007" transform="translate(-416.916 -90.735)"/>
          <path id="Path_4474" data-name="Path 4474" d="M553.083,117.416a.186.186,0,0,0,.138-.311l-1.77-1.94a.186.186,0,0,0-.275.25l1.77,1.94a.185.185,0,0,0,.138.061" transform="translate(-514.705 -105.119)"/>
          <path id="Path_4475" data-name="Path 4475" d="M558.8,129.824c.03,0,1.249-.2,1.249-.2a.187.187,0,0,0,.154-.213.185.185,0,0,0-.213-.154l-1.22.2a.186.186,0,0,0,.029.369" transform="translate(-522.292 -118.042)"/>
          <path id="Path_4476" data-name="Path 4476" d="M450.207,65.871a.186.186,0,0,0,.033-.369l-1.154-.209a.186.186,0,0,0-.066.366l1.154.209.033,0" transform="translate(-402.957 -59.628)"/>
          <path id="Path_4477" data-name="Path 4477" d="M482.514,66.648a.184.184,0,0,0,.087-.022l1.892-1a.186.186,0,1,0-.174-.329l-1.892,1a.186.186,0,0,0,.087.35" transform="translate(-440.058 -59.616)"/>
          <path id="Path_4478" data-name="Path 4478" d="M449.413,82.374a.2.2,0,0,0,.053-.008.186.186,0,0,0,.125-.231l-.333-1.128.3-.383a.186.186,0,1,0-.292-.23l-.36.458a.185.185,0,0,0-.032.167l.36,1.22a.187.187,0,0,0,.178.133" transform="translate(-402.163 -73.357)"/>
          <path id="Path_4479" data-name="Path 4479" d="M485.655,84.613a.2.2,0,0,0,.053-.008.186.186,0,0,0,.126-.231L485.5,83.25l.435-.528a.186.186,0,0,0-.287-.236l-.5.6a.186.186,0,0,0-.035.171l.36,1.22a.187.187,0,0,0,.178.133" transform="translate(-441.687 -75.268)"/>
          <path id="Path_4482" data-name="Path 4482" d="M470.11,206.662s.333-2.916-.437-3.024-1.622.461-3.422.176-2.777-.865-3.342-.849-.08,3.61-.08,3.61l4.512,1.464Z" transform="translate(-423.94 -185.355)" fill="#7c576c"/>
          <path id="Path_4483" data-name="Path 4483" d="M566.932,638.547a.167.167,0,0,0,.054-.008,6.8,6.8,0,0,0,4.677-5.233.186.186,0,0,0-.159-.209.181.181,0,0,0-.21.158,6.416,6.416,0,0,1-4.415,4.929.186.186,0,0,0,.054.363" transform="translate(-534.455 -578.169)" fill="#5d2866"/>
          <path id="Path_4484" data-name="Path 4484" d="M446.019,9.047a3.432,3.432,0,0,1,1.466-.307,2.686,2.686,0,0,1,1.154.421l.872,1.015L448.883,8a15.329,15.329,0,0,1,1.357-.773l-.456-1.887.926,1.655A11.739,11.739,0,0,1,453.4,6.06a13.888,13.888,0,0,1,1.382-.208l-.436-2.061.961,2.016a7.134,7.134,0,0,1,1.58.045l.887,2.085s-.327-5.8-2.972-7.173-7.212-.986-9.085,1.932.307,6.35.307,6.35" transform="translate(-409.994 -0.003)"/>
          <path id="Path_4485" data-name="Path 4485" d="M483.255,135.573a.186.186,0,0,0,.149-.3l-.739-.991a.186.186,0,0,0-.3.222l.739.991a.185.185,0,0,0,.149.075" transform="translate(-438.908 -122.567)"/>
          <path id="Path_4486" data-name="Path 4486" d="M1.761,190.069s6.9-1.473,10.674-3.786,4.538-3.951,4.273-4.559-2.952.312-2.952.312,3.49-2.271,2.886-3.593-3.889.331-3.889.331,2.158-2.136,1.062-2.8-6.868,2.88-6.868,2.88,2.255-2.679,1.415-3.2-5.267,1.765-6.39,3.339A18.739,18.739,0,0,0,0,183.214Z" transform="translate(69.621 -160.342)" fill="#ff9280"/>
          <path id="Path_4487" data-name="Path 4487" d="M111.087,217.286a.183.183,0,0,0,.113-.039c3.776-2.92,3.628-5.724,3.62-5.842a.186.186,0,0,0-.37.025c0,.027.128,2.735-3.476,5.523a.186.186,0,0,0,.113.333" transform="translate(-38.067 -192.907)"/>
          <path id="Path_4488" data-name="Path 4488" d="M75.9,211.365a.174.174,0,0,0,.055-.009.185.185,0,0,0,.122-.232l-2.179-6.99a.183.183,0,0,0-.233-.122.186.186,0,0,0-.122.232l2.179,6.99a.186.186,0,0,0,.177.131" transform="translate(3.914 -186.304)"/>
          <path id="Path_4489" data-name="Path 4489" d="M817.49,198.641s-6.9-1.473-10.674-3.786-4.538-3.951-4.273-4.559,2.952.312,2.952.312-3.49-2.271-2.886-3.593,3.889.331,3.889.331-2.158-2.136-1.062-2.8,6.868,2.88,6.868,2.88-2.255-2.679-1.415-3.2,5.268,1.765,6.39,3.339a18.741,18.741,0,0,1,1.971,4.224Z" transform="translate(-802.495 -168.171)" fill="#ff9280"/>
          <path id="Path_4490" data-name="Path 4490" d="M843.267,225.854a.186.186,0,0,0,.113-.333c-3.6-2.789-3.478-5.5-3.476-5.523a.186.186,0,0,0-.173-.2.183.183,0,0,0-.2.172c-.008.118-.156,2.922,3.62,5.842a.183.183,0,0,0,.113.039" transform="translate(-829.91 -200.731)"/>
          <path id="Path_4491" data-name="Path 4491" d="M892.886,219.934a.186.186,0,0,0,.178-.131l2.179-6.99a.186.186,0,0,0-.122-.232.184.184,0,0,0-.233.122l-2.179,6.99a.186.186,0,0,0,.122.232.176.176,0,0,0,.055.009" transform="translate(-886.321 -194.129)"/>
          <path id="Path_4492" data-name="Path 4492" d="M131.171,229.824s-6.885,11.083-13.311,12.314-14.641-4.467-14.641-4.467L97.608,219.8s3.171-2.1,5.611-1.634,9.1,7.987,11.077,7.9,8.683-5.041,8.683-5.041Z" transform="translate(-53.261 -199.178)" fill="#7c576c"/>
          <path id="Path_4493" data-name="Path 4493" d="M512.2,235.468s6.885,11.083,13.311,12.314,14.641-4.467,14.641-4.467l5.611-17.871s-3.171-2.1-5.611-1.634-9.1,7.987-11.078,7.9-8.683-5.041-8.683-5.041Z" transform="translate(-503.823 -204.332)" fill="#7c576c"/>
          <path id="Path_4494" data-name="Path 4494" d="M507.617,225.95a.186.186,0,0,0,.017-.371c-.014,0-1.476-.141-3.452-.292a.178.178,0,0,0-.2.171.185.185,0,0,0,.171.2c1.972.151,3.43.29,3.446.292h.017" transform="translate(-465.149 -205.742)" fill="#fff"/>
          <path id="Path_4495" data-name="Path 4495" d="M278.428,312.35a.783.783,0,0,0,.309-.07.974.974,0,0,0,.552-.61c.415-1.228-.955-3.688-1.014-3.793a.186.186,0,0,0-.345.057c-.113.607-.634,3.669.147,4.292a.551.551,0,0,0,.351.123m-.223-3.8c.419.862.977,2.278.732,3a.608.608,0,0,1-.347.388c-.181.078-.254.02-.281,0-.41-.328-.3-2.071-.1-3.388" transform="translate(-217.078 -281.081)" fill="#fff"/>
          <path id="Path_4496" data-name="Path 4496" d="M699.047,317.932a.617.617,0,0,0,.494-.245c.656-.832.015-3.788-.06-4.122a.186.186,0,0,0-.171-.145.179.179,0,0,0-.186.125c-.116.34-1.12,3.346-.536,4.154a.546.546,0,0,0,.459.232m.21-3.578c.185,1.064.359,2.638-.008,3.1a.239.239,0,0,1-.2.1.145.145,0,0,1-.162-.079c-.3-.408.016-1.927.368-3.127" transform="translate(-674.047 -286.229)" fill="#fff"/>
          <path id="Path_4497" data-name="Path 4497" d="M356.236,320.694a.188.188,0,0,0,.186-.191c0-.036-.112-3.633,0-6.892a7.954,7.954,0,0,0-2.744-5.784.186.186,0,0,0-.239.285c.027.023,2.717,2.317,2.611,5.487-.109,3.27,0,6.879,0,6.915a.186.186,0,0,0,.186.18" transform="translate(-300.702 -281.081)" fill="#fff"/>
        </g>
      </g>
    </g>
    <g id="forgot-password" transform="translate(1363.116 461)">
      <g id="Group_1016" data-name="Group 1016" transform="translate(21.631 0)">
        <path id="Path_4499" data-name="Path 4499" d="M82.812,3.134A5.791,5.791,0,0,1,88.59,8.9v4.374h3.142V8.9a8.92,8.92,0,0,0-17.84,0v4.374h3.142V8.9a5.792,5.792,0,0,1,5.778-5.763Z" transform="translate(-73.892 0)" fill="#dedbee" fill-rule="evenodd"/>
      </g>
      <path id="Union_8" data-name="Union 8" d="M12.667,20.994h-.329l-.069,0h-.022l-.053,0h-.02l-.067,0h-.024l-.051,0h-.022l-.067,0h-.024l-.047,0-.027,0-.062,0-.03,0-.04,0-.032,0-.048,0-.044,0-.034,0-.036,0-.033,0-.062-.006-.028,0-.041,0-.021,0-.082-.009H11.24l-.047-.005-.012,0-.153-.019h0A12.691,12.691,0,0,1,0,8.359v-5A3.375,3.375,0,0,1,3.369,0h18.6a3.375,3.375,0,0,1,3.369,3.36v5A12.69,12.69,0,0,1,13.988,20.925h-.007l-.048,0-.017,0-.081.008-.02,0-.042,0-.024,0-.065.006-.032,0-.037,0-.032,0-.042,0-.053,0-.03,0-.042,0-.027,0-.065,0H13.3l-.048,0h-.026l-.066,0h-.022l-.051,0h-.024l-.068,0h-.329Z" transform="translate(17.883 12.583)" fill="#f7b369"/>
      <g id="Group_1019" data-name="Group 1019" transform="translate(27.808 17.499)">
        <path id="Path_4502" data-name="Path 4502" d="M168.976,261.563a2.734,2.734,0,0,0-1.463,5.048l-.576,3.741a.2.2,0,0,0,.2.231h3.681a.2.2,0,0,0,.2-.231l-.576-3.741a2.734,2.734,0,0,0-1.463-5.048Z" transform="translate(-166.234 -261.563)" fill="#025f80" fill-rule="evenodd"/>
      </g>
    </g>
  </g>
</svg>
