<svg xmlns="http://www.w3.org/2000/svg" width="31" height="31" viewBox="0 0 31 31">
  <g id="ic-ps" transform="translate(-6369 -5263)">
    <path id="clipboard" d="M23.54,3.749V5.96a3.711,3.711,0,0,1-3.71,3.71H11.669A3.711,3.711,0,0,1,7.96,5.96V3.749A4.083,4.083,0,0,0,4.25,7.815V27.1a4.078,4.078,0,0,0,4.081,4.081H23.169A4.078,4.078,0,0,0,27.25,27.1V7.815A4.083,4.083,0,0,0,23.54,3.749Zm-6.306,21.5H11.3a1.113,1.113,0,1,1,0-2.226h5.935a1.113,1.113,0,1,1,0,2.226ZM20.2,20.8H11.3a1.113,1.113,0,0,1,0-2.226h8.9a1.113,1.113,0,0,1,0,2.226Zm0-4.452H11.3a1.113,1.113,0,1,1,0-2.226h8.9a1.113,1.113,0,0,1,0,2.226ZM10.185,5.96V3.734A1.484,1.484,0,0,1,11.669,2.25h8.161a1.484,1.484,0,0,1,1.484,1.484V5.96a1.484,1.484,0,0,1-1.484,1.484H11.669A1.484,1.484,0,0,1,10.185,5.96Z" transform="translate(6368.75 5261.75)" fill="#7183ac"/>
    <rect id="Rectangle_1768" data-name="Rectangle 1768" width="31" height="31" transform="translate(6369 5263)" fill="none"/>
  </g>
</svg>
