<svg id="ic-search" xmlns="http://www.w3.org/2000/svg" width="18.5" height="18.482" viewBox="0 0 18.5 18.482">
  <g id="search_1_" transform="translate(0 0)">
    <path id="Path_1715" data-name="Path 1715" d="M65.634,14.965a7.44,7.44,0,1,0-7.44-7.44A7.44,7.44,0,0,0,65.634,14.965Zm0-12.755A5.315,5.315,0,1,1,60.32,7.524,5.314,5.314,0,0,1,65.634,2.21Z" transform="translate(-58.194 -0.084)" fill="#fff"/>
    <path id="Path_1716" data-name="Path 1716" d="M5.982,304.466a1.251,1.251,0,0,0,.9-2.132l-.007-.007-4.7-4.7A1.278,1.278,0,1,0,.39,299.462l4.7,4.641a1.251,1.251,0,0,0,.888.363Z" transform="translate(11.259 -285.985)" fill="#fff"/>
  </g>
</svg>
