<svg xmlns="http://www.w3.org/2000/svg" width="24" height="24" viewBox="0 0 24 24">
  <g id="ic-sitemap" transform="translate(-1593 -81)">
    <rect id="Rectangle_352" data-name="Rectangle 352" width="24" height="24" transform="translate(1593 81)" fill="none"/>
    <g id="sitemap" transform="translate(1593 83)">
      <g id="Group_972" data-name="Group 972">
        <path id="Path_1732" data-name="Path 1732" d="M22.751,55.893h-.7V53.187a1.938,1.938,0,0,0-1.936-1.936H12.687V48.329h3.5A1.013,1.013,0,0,0,17.2,47.316V43.1a1.013,1.013,0,0,0-1.013-1.013H7.81A1.013,1.013,0,0,0,6.8,43.1v4.22A1.013,1.013,0,0,0,7.81,48.329h3.5v2.922H3.881a1.938,1.938,0,0,0-1.936,1.936v2.706h-.7A1.249,1.249,0,0,0,0,57.142v2.765a1.249,1.249,0,0,0,1.249,1.249H4.014a1.249,1.249,0,0,0,1.249-1.249V57.142a1.249,1.249,0,0,0-1.249-1.249h-.7V53.187a.563.563,0,0,1,.562-.562h7.432v3.268h-.7a1.249,1.249,0,0,0-1.249,1.249v2.765a1.249,1.249,0,0,0,1.249,1.249h2.765a1.249,1.249,0,0,0,1.249-1.249V57.142a1.249,1.249,0,0,0-1.249-1.249h-.7V52.625h7.432a.563.563,0,0,1,.562.562v2.706h-.7a1.249,1.249,0,0,0-1.249,1.249v2.765a1.249,1.249,0,0,0,1.249,1.249h2.765A1.249,1.249,0,0,0,24,59.907V57.142A1.249,1.249,0,0,0,22.751,55.893Z" transform="translate(0 -42.083)" fill="#374a87"/>
      </g>
    </g>
  </g>
</svg>
