<svg xmlns="http://www.w3.org/2000/svg" width="31" height="31" viewBox="0 0 31 31">
  <g id="ic-server" transform="translate(-6369 -4913)">
    <g id="Icon" transform="translate(6369.75 4913.75)">
      <path id="Path_4647" data-name="Path 4647" d="M28.75,3.488A2.24,2.24,0,0,0,26.512,1.25H3.488A2.24,2.24,0,0,0,1.25,3.488V7.326A2.24,2.24,0,0,0,3.488,9.564H26.512A2.24,2.24,0,0,0,28.75,7.326Zm-22.064.64A1.279,1.279,0,1,1,5.407,5.407,1.28,1.28,0,0,1,6.686,4.128Zm4.477,0A1.279,1.279,0,1,1,9.884,5.407,1.28,1.28,0,0,1,11.163,4.128Zm13.43.32H20.756a.959.959,0,1,0,0,1.919h3.837a.959.959,0,0,0,0-1.919Z" fill="#7183ac" fill-rule="evenodd"/>
      <path id="Path_4648" data-name="Path 4648" d="M28.75,10.988A2.24,2.24,0,0,0,26.512,8.75H3.488A2.24,2.24,0,0,0,1.25,10.988v3.837a2.24,2.24,0,0,0,2.238,2.238H26.512a2.24,2.24,0,0,0,2.238-2.238Zm-22.064.64a1.279,1.279,0,1,1-1.279,1.279A1.28,1.28,0,0,1,6.686,11.628Zm4.477,0a1.279,1.279,0,1,1-1.279,1.279A1.28,1.28,0,0,1,11.163,11.628Zm13.43.32H20.756a.959.959,0,1,0,0,1.919h3.837a.959.959,0,0,0,0-1.919Z" transform="translate(0 2.093)" fill="#7183ac" fill-rule="evenodd"/>
      <path id="Path_4649" data-name="Path 4649" d="M28.75,18.488a2.24,2.24,0,0,0-2.238-2.238H3.488A2.24,2.24,0,0,0,1.25,18.488v3.837a2.24,2.24,0,0,0,2.238,2.238H26.512a2.24,2.24,0,0,0,2.238-2.238Zm-22.064.64a1.279,1.279,0,1,1-1.279,1.279A1.28,1.28,0,0,1,6.686,19.128Zm4.477,0a1.279,1.279,0,1,1-1.279,1.279A1.28,1.28,0,0,1,11.163,19.128Zm13.43.32H20.756a.959.959,0,1,0,0,1.919h3.837a.959.959,0,0,0,0-1.919Z" transform="translate(0 4.186)" fill="#7183ac" fill-rule="evenodd"/>
    </g>
    <rect id="Rectangle_1766" data-name="Rectangle 1766" width="31" height="31" transform="translate(6369 4913)" fill="none"/>
  </g>
</svg>
