<svg xmlns="http://www.w3.org/2000/svg" width="73" height="73" viewBox="0 0 73 73">
  <g id="ic-title-sitemap" transform="translate(-67 -43)">
    <rect id="Rectangle_299" data-name="Rectangle 299" width="73" height="73" transform="translate(67 43)" fill="none"/>
    <g id="sitemap" transform="translate(72.999 50.5)">
      <path id="Path_4503" data-name="Path 4503" d="M48.027,30.592A3.013,3.013,0,1,0,45.014,33.6,3.017,3.017,0,0,0,48.027,30.592Zm-4.23,0a1.216,1.216,0,1,1,1.217,1.216A1.218,1.218,0,0,1,43.8,30.592Zm0,0" transform="translate(-36.968 -23.834)" fill="#fff"/>
      <path id="Path_4504" data-name="Path 4504" d="M104.775,33.6a3.013,3.013,0,1,0-3.013-3.013A3.017,3.017,0,0,0,104.775,33.6Zm0-4.23a1.216,1.216,0,1,1-1.216,1.217A1.218,1.218,0,0,1,104.775,29.375Zm0,0" transform="translate(-89.571 -23.834)" fill="#fff"/>
      <path id="Path_4505" data-name="Path 4505" d="M164.533,33.6a3.013,3.013,0,1,0-3.014-3.013A3.017,3.017,0,0,0,164.533,33.6Zm0-4.23a1.216,1.216,0,1,1-1.217,1.217A1.218,1.218,0,0,1,164.533,29.375Zm0,0" transform="translate(-142.17 -23.834)" fill="#fff"/>
      <path id="Path_4506" data-name="Path 4506" d="M263.066,47.031h21.882a.9.9,0,0,0,0-1.8H263.066a.9.9,0,0,0,0,1.8Zm0,0" transform="translate(-230.762 -39.376)" fill="#fff"/>
      <path id="Path_4507" data-name="Path 4507" d="M90.781,155.783H87.37v-3.125a2.426,2.426,0,0,0-2.423-2.423H68.533v-3.751H81.411a3.178,3.178,0,0,0,3.174-3.174v-6.885a3.178,3.178,0,0,0-3.174-3.174H53.859a3.178,3.178,0,0,0-3.174,3.174v6.885a3.178,3.178,0,0,0,3.174,3.174H66.736v3.751H50.322a2.426,2.426,0,0,0-2.423,2.423v3.125h-3.41A2.492,2.492,0,0,0,42,158.272v8.618a2.492,2.492,0,0,0,2.489,2.489h8.618A2.492,2.492,0,0,0,55.6,166.89v-8.618a2.493,2.493,0,0,0-2.489-2.489H49.7v-3.125a.627.627,0,0,1,.626-.626H66.736v3.751h-3.41a2.492,2.492,0,0,0-2.489,2.489v8.618a2.492,2.492,0,0,0,2.489,2.489h2.739a.9.9,0,1,0,0-1.8H63.326a.693.693,0,0,1-.693-.693v-8.618a.693.693,0,0,1,.693-.693h8.618a.693.693,0,0,1,.693.693v8.618a.693.693,0,0,1-.693.693H69.419a.9.9,0,1,0,0,1.8h2.525a2.492,2.492,0,0,0,2.489-2.489v-8.618a2.493,2.493,0,0,0-2.489-2.489h-3.41v-3.751H84.947a.627.627,0,0,1,.627.626v3.125h-3.41a2.492,2.492,0,0,0-2.489,2.489v8.618a2.492,2.492,0,0,0,2.489,2.489h8.618a2.492,2.492,0,0,0,2.489-2.489v-8.618a2.492,2.492,0,0,0-2.489-2.489Zm-38.3-12.474v-6.885a1.379,1.379,0,0,1,1.378-1.378H81.411a1.379,1.379,0,0,1,1.378,1.378v6.885a1.379,1.379,0,0,1-1.378,1.378H53.859A1.379,1.379,0,0,1,52.481,143.309ZM53.8,158.272v8.618a.693.693,0,0,1-.693.693H44.489a.693.693,0,0,1-.693-.693v-8.618a.693.693,0,0,1,.693-.693h8.618A.693.693,0,0,1,53.8,158.272Zm37.675,8.618a.693.693,0,0,1-.693.692H82.163a.693.693,0,0,1-.693-.692v-8.618a.693.693,0,0,1,.693-.692h8.618a.693.693,0,0,1,.692.692v8.618Zm0,0" transform="translate(-36.967 -116.847)" fill="#fff"/>
      <path id="Path_4508" data-name="Path 4508" d="M57.583.5H3.752A3.756,3.756,0,0,0,0,4.251V54.235a3.756,3.756,0,0,0,3.751,3.751H57.583a3.756,3.756,0,0,0,3.751-3.751V4.251A3.756,3.756,0,0,0,57.583.5Zm0,55.689H3.752A1.957,1.957,0,0,1,1.8,54.235V13.014H6.806a.9.9,0,0,0,0-1.8H1.8V4.251A1.957,1.957,0,0,1,3.752,2.3H57.583a1.957,1.957,0,0,1,1.955,1.955v6.966H10.16a.9.9,0,0,0,0,1.8H59.537V54.235A1.957,1.957,0,0,1,57.583,56.189Zm0,0" fill="#fff"/>
    </g>
  </g>
</svg>
