<svg xmlns="http://www.w3.org/2000/svg" width="18.604" height="18.604" viewBox="0 0 18.604 18.604">
  <g id="ic-trash" transform="translate(-2 -2)">
    <path id="Path_4654" data-name="Path 4654" d="M19.674,5H2.93a.93.93,0,0,0,0,1.86h1.86V18.023a2.791,2.791,0,0,0,2.791,2.791h7.442a2.791,2.791,0,0,0,2.791-2.791V6.86h1.86a.93.93,0,1,0,0-1.86Zm-9.3,10.232a.93.93,0,0,1-1.86,0V10.581a.93.93,0,0,1,1.86,0Zm3.721,0a.93.93,0,0,1-1.86,0V10.581a.93.93,0,0,1,1.86,0Z" transform="translate(0 -0.209)" fill="#374a87"/>
    <path id="Path_4655" data-name="Path 4655" d="M9.93,3.86h3.721a.93.93,0,0,0,0-1.86H9.93a.93.93,0,0,0,0,1.86Z" transform="translate(-0.489)" fill="#374a87"/>
  </g>
</svg>
