<svg xmlns="http://www.w3.org/2000/svg" xmlns:xlink="http://www.w3.org/1999/xlink" width="180" height="202" viewBox="0 0 180 202">
  <defs>
    <clipPath id="clip-path">
      <rect id="Rectangle_128" data-name="Rectangle 128" width="176.94" height="148.778" fill="none"/>
    </clipPath>
  </defs>
  <g id="main-man3" transform="translate(-476.421 -547)">
    <g id="main" transform="translate(-0.667 -0.454)">
      <g id="speech-bubble" transform="translate(536.405 547.454)">
        <path id="Path_1334" data-name="Path 1334" d="M31.153,65.332c17.2,0,31.153,8.926,31.153,19.938,0,7.87-7.126,14.674-17.474,17.917a10.588,10.588,0,0,0,4.318,7.662,10.683,10.683,0,0,1-14.143-5.793,44.282,44.282,0,0,1-22.744-3.927C6.109,98.136,0,92.649,0,85.27,0,74.258,13.948,65.332,31.153,65.332Z" transform="translate(0 -65.332)" fill="#cfcfcf"/>
      </g>
      <g id="Group_404" data-name="Group 404" transform="translate(479.088 599.913)" style="isolation: isolate">
        <g id="Group_403" data-name="Group 403" transform="translate(0 0)" clip-path="url(#clip-path)">
          <path id="Path_774" data-name="Path 774" d="M123.125,99.6H57.947c.5-5.754.922-9.382.922-9.382l.936-8.265,26.939-1.5s27.118,1.01,34.478,14.525a28.7,28.7,0,0,1,1.9,4.624" transform="translate(35.417 49.173)" fill="#f7b369"/>
          <path id="Path_775" data-name="Path 775" d="M83.353.679s18.171-5.127,25.987,12.8,1.6,67.263,1.6,67.263L70.567,72.954,75.544,33.2Z" transform="translate(43.131 -0.001)"/>
          <path id="Path_776" data-name="Path 776" d="M103.546,28.558s-18.658,6.931-36.221,8c-15.2.93-35.806-6.2-35.806-6.2l-12.2,26.449S58.971,88.69,83.545,75.3c31.684-17.264,20-46.743,20-46.743" transform="translate(11.806 17.454)" fill="#a37b90"/>
          <path id="Path_777" data-name="Path 777" d="M99.873,26.645s24.041,6.783,27.951,19.615-12.614,66.584-17.838,68.79-42.1,1.64-46.238-1.215-6.691-36.7-6.057-41.277,3.172-22.873,7.956-30.929S83.265,27.391,88.625,26.987s11.248-.342,11.248-.342" transform="translate(35.202 16.283)" fill="#a37b90"/>
          <path id="Path_778" data-name="Path 778" d="M92.91,20.568,92.626,33.4s-2.394,3.636-9.912,4.081c-5.6.33-7.537-.976-7.537-.976l.923-6.48.907-6.319,13.618-2.681Z" transform="translate(45.948 12.571)" fill="#f48462"/>
          <path id="Path_779" data-name="Path 779" d="M90.275,20.848a4.215,4.215,0,0,1-.4,1.229c-3.013,6.345-10.89,7.553-14.125,7.771l.907-6.319Z" transform="translate(46.298 12.742)"/>
          <path id="Path_780" data-name="Path 780" d="M76.892,6.069S69.8,22.005,72.261,31s10.645,7.635,15.551,5.932a16.192,16.192,0,0,0,7.2-4.69,6.9,6.9,0,0,0,7.648-2.65c3.085-4.231,1.234-9.126-1.368-10.262s-5.72.728-5.72.728l2.464-4.629S87.953-8.242,76.892,6.069" transform="translate(43.85 0.899)" fill="#f48462"/>
          <path id="Path_781" data-name="Path 781" d="M94.511,20.935s-6.869,1.408-11.665-6.226S78.478,3.934,78.478,3.934l-4.734,7.909s-1.079-5.472,1.1-8.968S79.3.1,79.3.1l15.165,3.74L98.489,15.97Z" transform="translate(44.909 0.021)"/>
          <path id="Path_782" data-name="Path 782" d="M76.727,68.8s-6.773-7.337-11.436-8.876c-2.3-.759-10.868-1.684-11.491.421s7.748,5.966,7.748,5.966-20.072-5.9-23.224-4.067c-3.793,2.2,2.078,4.3,2.078,4.3s-6.263.783-5.09,2.855S40.46,73.4,40.46,73.4s-7.078-.64-3.023,3.964,34.831,17.681,43.626,8.672c4.344-4.45-4.337-17.24-4.337-17.24" transform="translate(21.494 36.091)" fill="#f48462"/>
          <path id="Path_783" data-name="Path 783" d="M53.742,69.018A.435.435,0,0,1,53.6,69l-15.142-4.65a.484.484,0,1,1,.282-.926l15.144,4.652a.484.484,0,0,1-.142.947" transform="translate(23.296 38.748)"/>
          <path id="Path_784" data-name="Path 784" d="M51.125,72.574a.515.515,0,0,1-.147-.023L38.488,68.6a.484.484,0,0,1,.293-.923l12.49,3.947a.484.484,0,0,1-.147.946" transform="translate(23.318 41.352)"/>
          <path id="Path_785" data-name="Path 785" d="M56.335,64.518l-4.643-.295a.482.482,0,0,1-.451-.514.451.451,0,0,1,.514-.453l4.613.293a.485.485,0,0,1-.032.968" transform="translate(31.318 38.661)"/>
          <path id="Path_786" data-name="Path 786" d="M127.29,35.735S152.516,62.6,140.734,98.467c-9.561,29.106-40.091,27.806-56.057,24.11s-30.568-15.335-30.568-15.335L66.578,80.889s24.769,2.441,40.254-.2S127.29,35.735,127.29,35.735" transform="translate(33.071 21.841)" fill="#a37b90"/>
          <path id="Path_787" data-name="Path 787" d="M86.057,66.562a.485.485,0,0,1-.348-.822c.329-.337,8.1-8.22,14.212-5.235.375.184,1.523.743,1.357,1.7-.417,2.451-11.713,3.949-15.165,4.35a.318.318,0,0,1-.056,0m10.88-5.757c-3.68,0-7.6,2.992-9.451,4.606,6.309-.835,12.656-2.3,12.84-3.367.01-.068-.116-.321-.83-.669a5.764,5.764,0,0,0-2.559-.57" transform="translate(52.302 36.569)" fill="#f7b369"/>
          <path id="Path_788" data-name="Path 788" d="M74.068,8.188a.485.485,0,0,1-.114-.955l1.477-.358a.478.478,0,0,1,.585.356.486.486,0,0,1-.356.585l-1.477.358a.474.474,0,0,1-.114.015" transform="translate(44.974 4.192)"/>
          <path id="Path_789" data-name="Path 789" d="M80.865,9.494a.479.479,0,0,1-.187-.039L77.245,8.013a.484.484,0,1,1,.374-.893l3.433,1.442a.485.485,0,0,1-.187.931" transform="translate(47.03 4.328)"/>
          <path id="Path_790" data-name="Path 790" d="M75.524,19.376a.481.481,0,0,1-.35-.15c-2.755-2.873.346-7.577.479-7.777a.485.485,0,0,1,.806.54c-.029.042-2.8,4.257-.585,6.567a.485.485,0,0,1-.35.82" transform="translate(45.252 6.866)"/>
          <path id="Path_791" data-name="Path 791" d="M86.682,19.715a.491.491,0,0,1-.367-.168.485.485,0,0,1,.052-.683l5.42-4.689a.484.484,0,0,1,.633.733L87,19.6a.481.481,0,0,1-.316.118" transform="translate(52.684 8.593)"/>
          <path id="Path_792" data-name="Path 792" d="M91.77,18.757a.483.483,0,0,1-.2-.045L87.632,16.9a.484.484,0,1,1,.406-.88l3.935,1.816a.485.485,0,0,1-.2.925" transform="translate(53.388 9.761)"/>
          <path id="Path_793" data-name="Path 793" d="M46.608,45.057a1.894,1.894,0,0,1-.211-.011,1.594,1.594,0,0,1-1.31-.856c-1.268-2.406,2.547-9.579,2.987-10.387a.5.5,0,0,1,.514-.247.484.484,0,0,1,.392.414c.111.856,1.023,8.409-1.021,10.505a1.844,1.844,0,0,1-1.35.582m1.574-9.347c-1.418,2.908-2.9,6.782-2.238,8.029a.637.637,0,0,0,.553.345.865.865,0,0,0,.769-.285c1.178-1.208,1.129-5.378.917-8.088" transform="translate(27.4 20.505)" fill="#f7b369"/>
          <path id="Path_794" data-name="Path 794" d="M41.527,36s-3.516-7.46-8.507-10.105-10.468-3.848-8.892-.857a52.3,52.3,0,0,0,5.639,7.548L21.7,32.246a67.6,67.6,0,0,0-9.3-1.361c-3.82-.158-4.365,2.744-4.365,2.744s-3.82-.158-5.153,1.249.282,3.425.282,3.425S-1.98,39.552.849,43.082,15.4,51,20.874,52.2s16.995.219,16.995.219S48.4,52.385,41.527,36" transform="translate(0 14.228)" fill="#f48462"/>
          <path id="Path_795" data-name="Path 795" d="M8.86,40.283a.491.491,0,0,1-.367-.168.485.485,0,0,1,.052-.683L20.172,29.415a.484.484,0,0,1,.633.733L9.176,40.165a.481.481,0,0,1-.316.118" transform="translate(5.119 17.907)"/>
          <path id="Path_796" data-name="Path 796" d="M29.339,38.765c-4.545-.161-7.724-1.381-9.464-3.625A6.878,6.878,0,0,1,18.57,29.8a.485.485,0,0,1,.947.206,5.99,5.99,0,0,0,1.133,4.552c1.558,2,4.487,3.089,8.707,3.239a.484.484,0,0,1-.018.968" transform="translate(11.288 17.981)"/>
          <path id="Path_797" data-name="Path 797" d="M96.31,27.65s1.518.155,1.7,1.109S92.3,45.952,87.7,47.408,79.518,34.519,79.3,34.762s-8.454,6.361-9.339,6.166,2.932-7.241,5.333-10.007a23.634,23.634,0,0,1,3.917-3.8s-.287,3.355-.263,4.072,2.87,2.3,7.924,1.487C94.1,31.511,96.31,27.65,96.31,27.65" transform="translate(42.68 16.575)" fill="#f7b369"/>
          <path id="Path_798" data-name="Path 798" d="M61.137,95.071,75.651,69.106a1.4,1.4,0,0,0-.537-1.895L69,63.794a1.393,1.393,0,0,0-1.893.537L52.593,90.295a1.393,1.393,0,0,0,.537,1.895l6.113,3.417a1.393,1.393,0,0,0,1.895-.537" transform="translate(32.037 38.882)" fill="#f7b369"/>
          <path id="Path_799" data-name="Path 799" d="M25.78,59.567,40.294,33.6a1.393,1.393,0,0,0-.537-1.895l-6.115-3.417a1.393,1.393,0,0,0-1.893.537L17.236,54.792a1.4,1.4,0,0,0,.537,1.895L23.885,60.1a1.393,1.393,0,0,0,1.895-.537" transform="translate(10.427 17.183)" fill="#f7b369"/>
          <path id="Path_800" data-name="Path 800" d="M79.645,15.035a.494.494,0,0,1-.482-.532l.288-3-1.656-1.315a.484.484,0,0,1,.6-.759l1.863,1.477a.483.483,0,0,1,.18.427L80.126,14.6a.486.486,0,0,1-.482.438" transform="translate(47.436 5.7)"/>
          <path id="Path_801" data-name="Path 801" d="M74.172,14.324a.494.494,0,0,1-.482-.532l.288-3.008L72.754,9.752a.485.485,0,0,1,.627-.74l1.416,1.2a.477.477,0,0,1,.169.416l-.313,3.261a.486.486,0,0,1-.482.438" transform="translate(44.363 5.438)"/>
          <path id="Path_802" data-name="Path 802" d="M57.683,68.843a.486.486,0,0,1-.482-.432c-2.422-22.067,7.268-28.8,7.682-29.079a.484.484,0,0,1,.538.8c-.1.066-9.608,6.743-7.257,28.17a.486.486,0,0,1-.429.533c-.019,0-.035,0-.053,0" transform="translate(34.724 23.989)" fill="#f7b369"/>
          <path id="Path_803" data-name="Path 803" d="M72.226,66.144a.485.485,0,0,1-.037-.968l22.285-1.766a.484.484,0,1,1,.076.965L72.263,66.142l-.037,0" transform="translate(43.848 38.755)" fill="#f7b369"/>
          <path id="Path_804" data-name="Path 804" d="M78.874,21.788a4.039,4.039,0,0,1-3.019-1.851.5.5,0,0,1-.045-.429.489.489,0,0,1,.314-.295L81.439,17.6a.486.486,0,0,1,.625.456c0,.118.016,2.863-2.3,3.59a2.953,2.953,0,0,1-.893.14m-1.782-1.856a2.354,2.354,0,0,0,2.385.793,2.425,2.425,0,0,0,1.545-1.983Z" transform="translate(46.317 10.746)"/>
        </g>
      </g>
    </g>
    <rect id="Rectangle_308" data-name="Rectangle 308" width="180" height="202" transform="translate(476.421 547)" fill="none"/>
  </g>
</svg>
