<svg xmlns="http://www.w3.org/2000/svg" xmlns:xlink="http://www.w3.org/1999/xlink" width="180" height="202" viewBox="0 0 180 202">
  <defs>
    <clipPath id="clip-path">
      <rect id="Rectangle_127" data-name="Rectangle 127" width="173.144" height="146.833" fill="none"/>
    </clipPath>
  </defs>
  <g id="main-man2" transform="translate(-11.421 -294)">
    <g id="main-man2-2" data-name="main-man2" transform="translate(14.421 -0.711)">
      <g id="tick" transform="translate(46.516 296.711)" opacity="0.57">
        <circle id="Ellipse_44" data-name="Ellipse 44" cx="19.936" cy="19.936" r="19.936" transform="translate(0 0)" fill="#ababab"/>
        <path id="Path_1282" data-name="Path 1282" d="M92.842,110.145l-13.4,12.485L72.872,116.5l-3.338,3.11,9.911,9.237,16.734-15.6Z" transform="translate(-63.106 -99.747)" fill="#fff"/>
      </g>
      <g id="Group_402" data-name="Group 402" transform="translate(0 349.342)" style="isolation: isolate">
        <g id="Group_401" data-name="Group 401" transform="translate(0 0)" clip-path="url(#clip-path)">
          <path id="Path_742" data-name="Path 742" d="M73.658,112.6H42.571L54.077,92.314l6.657-8.606s.728,1.572,1.963,4.328c.559,1.261,1.236,2.756,2.015,4.472,2.328,5.2,5.487,12.274,8.946,20.088" transform="translate(17.411 34.236)" fill="#a37b90"/>
          <path id="Path_743" data-name="Path 743" d="M76.216,112.863l-.259.156h-61.3a188.6,188.6,0,0,1,.3-21.882l29.358-7.618,29.279-.845h.144l.052.741.416,5.044Z" transform="translate(5.907 33.813)" fill="#a37b90"/>
          <path id="Path_744" data-name="Path 744" d="M122.448,58.4s-20.06.458-35.794-3.349S55.987,35.231,49.621,34.735s9.115,51.613,9.115,51.613,18.78,17.421,46.7,6.038S122.448,58.4,122.448,58.4" transform="translate(19.666 14.205)" fill="#6876aa"/>
          <path id="Path_745" data-name="Path 745" d="M43.5,32.8s-15.736-.528-23.857,6.832S16.914,119.4,16.914,119.4s21.186,1.775,36.353,0,23.374-4.457,23.374-4.457-1.1-66.082-5.164-73.179S43.5,32.8,43.5,32.8" transform="translate(6.2 13.412)" fill="#f7b369"/>
          <path id="Path_746" data-name="Path 746" d="M47.055,121.566l-34,.744c-2.043-19.919-2.175-34.729-2.175-34.729L10.225,62.8A29.171,29.171,0,0,1,33.666,33.378a38.026,38.026,0,0,1,7.4-.745S43.5,66.88,46.044,103.987c.824,12.058.235,5.992,1.01,17.579" transform="translate(4.178 13.347)" fill="#6876aa"/>
          <path id="Path_747" data-name="Path 747" d="M83.057,90.97l30.6,2.063a2.841,2.841,0,0,0,2.68-2.012l14.875-47.965a1.618,1.618,0,0,0-1.347-2.285l-30.6-2.061a2.843,2.843,0,0,0-2.681,2.012L81.708,88.686a1.617,1.617,0,0,0,1.348,2.284" transform="translate(33.374 15.83)" fill="#e89c4f"/>
          <path id="Path_748" data-name="Path 748" d="M85.593,91.135l30.6,2.063a2.844,2.844,0,0,0,2.681-2.013L133.745,43.22a1.619,1.619,0,0,0-1.348-2.285l-30.6-2.063a2.846,2.846,0,0,0-2.681,2.013L84.244,88.851a1.617,1.617,0,0,0,1.348,2.284" transform="translate(34.411 15.897)" fill="#f7b369"/>
          <path id="Path_749" data-name="Path 749" d="M111.718,47.646c-.09,0-.18,0-.272-.008L104,47.155a3.634,3.634,0,0,1-2.736-1.543,3.834,3.834,0,0,1-.558-3.269l.874-3.121a.423.423,0,1,1,.814.228l-.874,3.121a3,3,0,0,0,.434,2.55,2.793,2.793,0,0,0,2.1,1.188l7.444.483a3.494,3.494,0,0,0,3.5-2.464l1.322-4.2a.425.425,0,0,1,.81.255l-1.323,4.195a4.32,4.32,0,0,1-4.095,3.065" transform="translate(41.129 15.915)" fill="#6876aa"/>
          <path id="Path_750" data-name="Path 750" d="M126.075,58.273s7.5-3.535,3.359-6.154c-3.515-2.228-20.518,2.439-21.856,4.19-1.5,1.964,4.5,4.178,4.5,4.178s-8.5.883-8.248,3.941,7.248,2.66,7.248,2.66-6.956-.914-4.707,3.318,17.705,4.378,19.455,2.2.75-5.513.75-5.513a6,6,0,0,0,2.874-4.568c.375-3.283-3.373-4.247-3.373-4.247" transform="translate(42.463 21.075)" fill="#f48462"/>
          <path id="Path_751" data-name="Path 751" d="M110.273,58.275a.423.423,0,0,1-.035-.845l12.371-1.043a.405.405,0,0,1,.458.386.423.423,0,0,1-.386.458l-12.372,1.043h-.035" transform="translate(44.928 23.06)"/>
          <path id="Path_752" data-name="Path 752" d="M107.459,63.213a.423.423,0,0,1,0-.847l13.247-.148a.423.423,0,1,1,.008.847l-13.247.148Z" transform="translate(43.777 25.447)"/>
          <path id="Path_753" data-name="Path 753" d="M24.523,16.866s.417,7.528,3.807,7.875S36.705,20.8,36.705,20.8L34.369,12.33Z" transform="translate(10.03 5.043)"/>
          <path id="Path_754" data-name="Path 754" d="M32.045,25.583l.1,11.809s2.16,3.376,9.074,3.876c5.15.373,6.948-.807,6.948-.807L47.4,34.486l-.759-5.826-12.5-2.633Z" transform="translate(13.106 10.463)" fill="#f48462"/>
          <path id="Path_755" data-name="Path 755" d="M32.044,26.493s3.806,9.931,14.832,10.155c9.616.2,3.384-13.283,3.384-13.283Z" transform="translate(13.106 9.556)"/>
          <path id="Path_756" data-name="Path 756" d="M51.483,9.9s6.328,14.752,3.958,23-9.89,6.9-14.384,5.271a14.913,14.913,0,0,1-6.567-4.4,6.353,6.353,0,0,1-7-2.533C24.7,27.3,26.46,22.822,28.869,21.808s5.256.74,5.256.74l-2.214-4.289S41.477-3.4,51.483,9.9" transform="translate(10.659 2.282)" fill="#f48462"/>
          <path id="Path_757" data-name="Path 757" d="M33.187,23.46a.424.424,0,0,1-.244-.077L27.589,19.6a.424.424,0,0,1,.489-.693l5.354,3.78a.424.424,0,0,1-.245.769" transform="translate(11.21 7.703)"/>
          <path id="Path_758" data-name="Path 758" d="M28.192,22.618a.424.424,0,0,1-.111-.833l3.5-.934a.424.424,0,0,1,.22.819l-3.5.934a.488.488,0,0,1-.108.014" transform="translate(11.357 8.522)"/>
          <path id="Path_759" data-name="Path 759" d="M44.264,23.116a.376.376,0,0,1-.11-.015.423.423,0,0,1-.3-.519c.755-2.815-1.213-7.029-1.233-7.072a.421.421,0,0,1,.2-.564.426.426,0,0,1,.564.2c.086.185,2.122,4.536,1.285,7.654a.424.424,0,0,1-.409.314" transform="translate(17.415 6.097)"/>
          <path id="Path_760" data-name="Path 760" d="M45.588,17.689a.424.424,0,0,1-.407-.309l-.764-2.7a.424.424,0,0,1,.816-.23l.762,2.7a.423.423,0,0,1-.292.521.41.41,0,0,1-.116.017" transform="translate(18.16 5.782)"/>
          <path id="Path_761" data-name="Path 761" d="M40.286,17.84a.424.424,0,0,1-.407-.309l-.764-2.7a.424.424,0,0,1,.292-.523.419.419,0,0,1,.523.293l.764,2.7a.423.423,0,0,1-.293.521.4.4,0,0,1-.114.017" transform="translate(15.991 5.844)"/>
          <path id="Path_762" data-name="Path 762" d="M51.461,12.529s-.874-1.179-3.82-1.172a6.37,6.37,0,0,0-4.648,2.1s-.247,5.341-4.228,8.012-5.506,1.57-5.506,1.57l-2.914-1.009L28.175,17.8,36.5,8.664l10-4.271L51.461,9.9Z" transform="translate(11.523 1.797)"/>
          <path id="Path_763" data-name="Path 763" d="M42.026,25.789a2.017,2.017,0,0,1-.954-.221c-.843-.441-1.27-1.488-1.27-3.108a.428.428,0,0,1,.635-.375l3.909,2.157a.428.428,0,0,1,.035.728,4.814,4.814,0,0,1-2.356.819M40.7,23.206a2,2,0,0,0,.769,1.6,2.2,2.2,0,0,0,1.788-.19Z" transform="translate(16.279 9.01)"/>
          <path id="Path_764" data-name="Path 764" d="M42.482,38.354a14.35,14.35,0,0,1-10.544-3.971.423.423,0,0,1,.607-.59c5.694,5.854,15.5,2.988,15.595,2.959a.423.423,0,1,1,.245.81,22.255,22.255,0,0,1-5.9.792" transform="translate(13.014 13.768)" fill="#a37b90"/>
          <path id="Path_765" data-name="Path 765" d="M53.963,14.325s4.884-3.138,3.648-6.463S51.4,4.917,51.4,4.917,48.57-1.935,41.336.539,32.7,7.862,32.7,7.862s-4.764-.28-6.82,3.527A10.7,10.7,0,0,0,24.4,18.029s-3.235,2.064-2.094,5.23,5.358,5.589,5.358,5.589-2.942-3.721.038-5.261S44.193,13.1,44.193,13.1l8.062-1.981Z" transform="translate(9.022 0)"/>
          <path id="Path_766" data-name="Path 766" d="M75.1,60.14l-.113,0a2.22,2.22,0,0,1-2-1.178c-1.355-2.718,2.759-9.187,3.232-9.915a.423.423,0,0,1,.775.173c.116.859,1.079,8.451-.758,10.411a1.529,1.529,0,0,1-1.14.511m1.2-9.6c-1.364,2.326-3.372,6.393-2.549,8.041a1.414,1.414,0,0,0,1.3.712.678.678,0,0,0,.576-.242c1.129-1.2.941-5.8.676-8.51" transform="translate(29.741 19.98)" fill="#e6f4ff"/>
          <path id="Path_767" data-name="Path 767" d="M52.278,35.94l4.93,81.264s5.713-2.652,6.521-3.951-2.991-65.879-2.991-65.879S59,37.487,52.278,35.94" transform="translate(21.381 14.699)" fill="#6876aa"/>
          <path id="Path_768" data-name="Path 768" d="M41.985,36.046s1.777-7.131,3.4-7.62c3.487-1.054.859,3.28.859,3.28S58.859,21.071,61.623,21.337s-5.681,9.374-5.681,9.374,9.219,6.963,9.549,8.981-6.033,9.313-7.063,9.549-1.248-2.581-1.248-2.581A44.065,44.065,0,0,1,51.353,52.7c-2.34,1.709-7.173,2.873-7.173,2.873L36.77,42.468Z" transform="translate(15.039 8.725)" fill="#f48462"/>
          <path id="Path_769" data-name="Path 769" d="M24.485,39.045S-17.846,78.9,8.812,97.389C36.277,116.44,70.758,51.264,70.758,51.264L49.978,34.731,30.514,58.225Z" transform="translate(0 14.205)" fill="#6876aa"/>
          <path id="Path_770" data-name="Path 770" d="M15.75,60.491a.786.786,0,0,1-.516-.172.912.912,0,0,1-.244-.957c.435-2.2,5.2-7.607,11.378-9.5a.424.424,0,0,1,.447.681c-.3.347-7.315,8.531-10.4,9.794a1.819,1.819,0,0,1-.668.154m9.342-9.268a20.8,20.8,0,0,0-6.533,4.431c-2.067,2.064-2.769,3.6-2.757,4,.038-.02.137-.039.3-.106,2.211-.9,6.88-5.957,9-8.33" transform="translate(6.118 20.386)" fill="#e6f4ff"/>
          <path id="Path_771" data-name="Path 771" d="M51.377,40.579a.429.429,0,0,1-.321-.147.424.424,0,0,1,.045-.6l2.887-2.5a.423.423,0,0,1,.552.64l-2.887,2.5a.412.412,0,0,1-.276.1" transform="translate(20.84 15.228)"/>
          <path id="Path_772" data-name="Path 772" d="M37.422,40.386a.428.428,0,0,1-.268-.094.423.423,0,0,1-.062-.6l4.413-5.436c.249-.9,2.208-7.714,4.92-8.913a1.127,1.127,0,0,1,1.2.079c1.174.879.757,4.533.661,5.257a.429.429,0,0,1-.475.365.421.421,0,0,1-.362-.475c.241-1.849.183-4.083-.333-4.469-.034-.024-.114-.087-.351.018-2.053.907-3.921,6.4-4.468,8.446a.441.441,0,0,1-.08.158l-4.471,5.5a.421.421,0,0,1-.327.156" transform="translate(15.132 10.312)"/>
          <path id="Path_773" data-name="Path 773" d="M12.808,87.1c-.395,0-.79-.008-1.191-.025a.424.424,0,0,1,.038-.847c17.9.771,31.381-16.69,31.515-16.866a.423.423,0,1,1,.673.511c-.132.176-13.3,17.226-31.036,17.226" transform="translate(4.586 28.298)" fill="#e6f4ff"/>
        </g>
      </g>
    </g>
    <rect id="Rectangle_307" data-name="Rectangle 307" width="180" height="202" transform="translate(11.421 294)" fill="none"/>
  </g>
</svg>
