<svg xmlns="http://www.w3.org/2000/svg" xmlns:xlink="http://www.w3.org/1999/xlink" width="180" height="202" viewBox="0 0 180 202">
  <defs>
    <clipPath id="clip-path">
      <rect id="Rectangle_131" data-name="Rectangle 131" width="143.843" height="144.348" fill="none"/>
    </clipPath>
  </defs>
  <g id="main-man1" transform="translate(-700.421 -44)">
    <g id="main" transform="translate(0 1.461)">
      <g id="Group_408" data-name="Group 408" transform="translate(718.224 99.309)" style="isolation: isolate">
        <g id="Group_408-2" data-name="Group 408" transform="translate(0 0)" clip-path="url(#clip-path)">
          <path id="Path_859" data-name="Path 859" d="M96.586,104.413h-74.5c5.327-15.279,9.161-23.335,9.161-23.335S90.024,55.933,94.677,88.43c.244,1.737.932,7.524,1.909,15.982" transform="translate(12.285 39.936)" fill="#a37b90"/>
          <path id="Path_860" data-name="Path 860" d="M59.868,28.926s-1.881.47-2.33,1.173-.325,3.5-.325,3.5-20.243.552-38.628,23.8S-3.483,92.8,2.906,102.547,39.833,109,39.833,109s9.1,9.421,32.483,10.1,35.6-10.285,35.6-10.285,38.824-9.647,35.756-36.344S101.521,33.8,92.886,32.005a62.74,62.74,0,0,0-15.042-1.4s-.37-1.362-.775-1.6c-2.163-1.257-17.2-.081-17.2-.081" transform="translate(0 15.811)" fill="#6876aa"/>
          <path id="Path_861" data-name="Path 861" d="M37.028,54.353s-6.248-3.512-4.754,7.272c1.06,7.646,6.318-2.516,6.318-2.516Z" transform="translate(17.823 29.929)" fill="#f48462"/>
          <path id="Path_862" data-name="Path 862" d="M41.659,14.329s-8.66-3.7-9.334,3.008c-.781,7.767,8.5,7.839,8.5,7.839Z" transform="translate(17.954 7.405)" fill="#f48462"/>
          <path id="Path_863" data-name="Path 863" d="M36.734,20.537a.469.469,0,0,1-.4-.232l-2.888-4.953a.468.468,0,1,1,.808-.472l2.89,4.953a.469.469,0,0,1-.4.7" transform="translate(18.565 8.148)"/>
          <path id="Path_864" data-name="Path 864" d="M33.542,17.828a.468.468,0,0,1-.008-.937L36,16.849a.468.468,0,1,1,.016.937l-2.47.042Z" transform="translate(18.396 9.372)"/>
          <path id="Path_865" data-name="Path 865" d="M53.964,26.911,54.037,36a19.179,19.179,0,0,1-7.9,1.965c-5.923.1-7.921-3.414-7.921-3.414L38.262,23.9Z" transform="translate(21.257 13.291)" fill="#f48462"/>
          <path id="Path_866" data-name="Path 866" d="M54.245,26.589s-2.839,7.359-9.563,6.354c-5.42-.809-6.969-8.5-6.969-8.5Z" transform="translate(20.977 13.599)"/>
          <path id="Path_867" data-name="Path 867" d="M37.049,11.757s-3.8,16.639.968,24.009c5.112,7.9,13.343,5.543,16.424,3.175a13.9,13.9,0,0,0,5.006-7.629s5.713,1.138,7.618-3.52c2-4.893-1.558-8.842-4.415-9.074S59.46,19,59.46,19l.839-5.226s-17.369-19.3-23.25-2.022" transform="translate(19.81 2.54)" fill="#f48462"/>
          <path id="Path_868" data-name="Path 868" d="M51.707,20.345a.467.467,0,0,1-.3-.823l4.409-3.782a.467.467,0,0,1,.607.711l-4.409,3.782a.467.467,0,0,1-.3.112" transform="translate(28.5 8.694)"/>
          <path id="Path_869" data-name="Path 869" d="M55.253,20.143a.466.466,0,0,1-.282-.095l-2.6-1.956a.468.468,0,0,1,.563-.749l2.6,1.958a.468.468,0,0,1-.282.842" transform="translate(29.025 9.595)"/>
          <path id="Path_870" data-name="Path 870" d="M46.185,17.043a.472.472,0,0,1-.467-.495l.165-2.8a.453.453,0,0,1,.493-.439.465.465,0,0,1,.439.493l-.163,2.8a.467.467,0,0,1-.467.44" transform="translate(25.429 7.401)"/>
          <path id="Path_871" data-name="Path 871" d="M39.3,16.666a.472.472,0,0,1-.467-.495l.165-2.8a.444.444,0,0,1,.493-.439.465.465,0,0,1,.439.493l-.163,2.8a.467.467,0,0,1-.467.44" transform="translate(21.599 7.19)"/>
          <path id="Path_872" data-name="Path 872" d="M42.575,23.246a.469.469,0,0,1-.459-.377,15.591,15.591,0,0,1,.6-8.127.468.468,0,1,1,.868.349,14.9,14.9,0,0,0-.546,7.6.468.468,0,0,1-.367.549.483.483,0,0,1-.092.009" transform="translate(23.269 8.038)"/>
          <path id="Path_873" data-name="Path 873" d="M38.393,11.985a.468.468,0,0,1-.263-.856,5.514,5.514,0,0,1,3.372-.622.469.469,0,0,1,.4.526.463.463,0,0,1-.526.4,4.6,4.6,0,0,0-2.722.47.467.467,0,0,1-.263.081" transform="translate(21.095 5.82)"/>
          <path id="Path_874" data-name="Path 874" d="M48.128,13.359a.466.466,0,0,1-.37-.181,4.672,4.672,0,0,0-2.445-1.29.467.467,0,0,1-.372-.546.477.477,0,0,1,.542-.375A5.536,5.536,0,0,1,48.5,12.6a.468.468,0,0,1-.367.755" transform="translate(24.992 6.097)"/>
          <path id="Path_875" data-name="Path 875" d="M52.733,15.194s-1.8,5.131-2.46,4.922.454-8.3,2.387-8.629.073,3.707.073,3.707" transform="translate(27.855 6.379)"/>
          <path id="Path_876" data-name="Path 876" d="M44.621,69.8S43.6,80.6,35.3,78.082s-5.612-14.607-5.612-14.607Z" transform="translate(16.28 35.306)" fill="#f48462"/>
          <path id="Path_877" data-name="Path 877" d="M61.136,20.813s-5.727-.766-9.435-3.939a14.838,14.838,0,0,1-4.214-6.337S45.031,10.1,41.4,12.093s-4.239,8.677-4.239,8.677S31.207,9.1,34.506,5.24s8.214-.277,8.214-.277S42.186-2.5,52.314.878A18.079,18.079,0,0,1,64.351,13.235s3.52-.134,3.8,3.134a14.857,14.857,0,0,1-1.212,6.5,3.808,3.808,0,0,0-3.841-.77l-2.387.753Z" transform="translate(18.639 0)"/>
          <path id="Path_878" data-name="Path 878" d="M39.223,28.812s1.815,2.073,6.408,2.618,8.979-2.8,8.979-2.8l2.459,5.721-7.753,3.794-12.2-2.18.514-5.512Z" transform="translate(20.645 15.925)" fill="#6876aa"/>
          <path id="Path_879" data-name="Path 879" d="M41.411,60.59a.465.465,0,0,1-.176-.034c-.154-.065-15.543-6.178-30.345-.223a.469.469,0,0,1-.349-.87c15.167-6.091,30.888.163,31.045.226a.468.468,0,0,1-.176.9" transform="translate(5.7 31.593)" fill="#fff"/>
          <path id="Path_880" data-name="Path 880" d="M70.431,72.947s-6.584-14.092-7.638-15.1-13.326-5.173-15-5.09.952,3.8,2.266,4.851,3.01,2.183,3.01,2.183-9.188,0-10.042,1.553,1.608,2.983,1.608,2.983-3.288.28-2.109,2.392,10.2,4.471,10.2,4.471,1.72,8.962,7.789,11.086,8.9,1.522,8.9,1.522Z" transform="translate(23.513 29.345)" fill="#f48462"/>
          <path id="Path_881" data-name="Path 881" d="M57.019,63.763s2.826-10.486,4.427-7.174.783,14.588.783,14.588l-4.5-1.463Z" transform="translate(31.715 31.116)" fill="#f48462"/>
          <path id="Path_882" data-name="Path 882" d="M37.248,80.5l12.16.638a2.346,2.346,0,0,0,2.467-2.222l1.32-25.125a2.349,2.349,0,0,0-2.222-2.468l-12.159-.638a2.347,2.347,0,0,0-2.468,2.222l-1.32,25.125A2.35,2.35,0,0,0,37.248,80.5" transform="translate(19.48 28.191)" fill="#fff"/>
          <path id="Path_883" data-name="Path 883" d="M36.059,80.44l12.16.638a2.345,2.345,0,0,0,2.467-2.221l1.32-25.127a2.348,2.348,0,0,0-2.222-2.468l-12.159-.638a2.349,2.349,0,0,0-2.468,2.222l-1.32,25.125a2.35,2.35,0,0,0,2.222,2.468" transform="translate(18.819 28.156)"/>
          <path id="Path_884" data-name="Path 884" d="M33.358,64.138s-7.331-2.19-4.417-5.223,16.746-2.271,17.47,2.028-13.054,3.195-13.054,3.195" transform="translate(15.717 31.75)" fill="#f48462"/>
          <path id="Path_885" data-name="Path 885" d="M33.172,68.2s-7.331-2.19-4.417-5.223S45.5,60.709,46.227,65.008,33.172,68.2,33.172,68.2" transform="translate(15.613 34.01)" fill="#f48462"/>
          <path id="Path_886" data-name="Path 886" d="M36.026,71.509a9.591,9.591,0,0,1-4.809-1.618c-1.262-.878-2.185-2.076-.837-3.358,2.7-2.565,14.9-1.337,15.365,2.492.349,2.854-6.307,2.733-9.719,2.485" transform="translate(16.529 36.255)" fill="#f48462"/>
          <path id="Path_887" data-name="Path 887" d="M41.247,62.338c-.056,0-10.56-1.072-10.56-1.072a.552.552,0,0,1,.112-1.1l10.5,1.071a.552.552,0,0,1-.056,1.1" transform="translate(16.793 33.466)"/>
          <path id="Path_888" data-name="Path 888" d="M41.591,66.664c-.056,0-10.56-1.072-10.56-1.072a.552.552,0,0,1,.112-1.1l10.5,1.071a.552.552,0,0,1-.056,1.1" transform="translate(16.984 35.871)"/>
          <path id="Path_889" data-name="Path 889" d="M56.422,58.64c-.048,0-7.071-.66-7.071-.66a.52.52,0,0,1-.468-.565.511.511,0,0,1,.566-.468l7.022.657a.519.519,0,0,1-.048,1.036" transform="translate(27.188 31.674)"/>
          <path id="Path_890" data-name="Path 890" d="M53.786,61.54l-6.777-.356a.52.52,0,0,1-.492-.546.514.514,0,0,1,.546-.49l6.751.355a.519.519,0,0,1-.028,1.038" transform="translate(25.873 33.455)"/>
          <path id="Path_891" data-name="Path 891" d="M60.27,67.441a.517.517,0,0,1-.486-.339l-2.66-7.118a.519.519,0,1,1,.973-.364l2.658,7.121a.519.519,0,0,1-.486.7" transform="translate(31.755 32.974)"/>
          <path id="Path_892" data-name="Path 892" d="M61.721,67.458a.468.468,0,0,1-.338-.792c.11-.114,11.021-11.321,26.5-16.435a.467.467,0,1,1,.294.887c-15.254,5.039-26.014,16.085-26.12,16.2a.467.467,0,0,1-.338.145" transform="translate(34.07 27.926)" fill="#fff"/>
          <path id="Path_893" data-name="Path 893" d="M68.705,59.476a.468.468,0,0,1-.458-.568c.243-1.111,2.476-10.8,6.622-10.8l.09,0a1.259,1.259,0,0,1,1.267.745c.843,2.12-5.288,8.559-7.188,10.481a.468.468,0,0,1-.333.14m6.166-10.431c-2.406,0-4.348,5.062-5.28,8.369,3.24-3.459,6.142-7.271,5.766-8.212-.047-.12-.258-.151-.428-.156-.019,0-.039,0-.058,0" transform="translate(37.955 26.759)" fill="#fff"/>
          <path id="Path_894" data-name="Path 894" d="M23.563,60.094a.424.424,0,0,1-.115-.014c-.761-.191-7.459-1.955-8.2-4.6A2.059,2.059,0,0,1,15.9,53.41a2.416,2.416,0,0,1,2.236-.8c2.947.517,5.732,6.566,5.848,6.824a.465.465,0,0,1-.065.492.47.47,0,0,1-.359.168m-5.839-6.586a1.6,1.6,0,0,0-1.152.554c-.587.6-.467,1.027-.428,1.166.4,1.416,3.889,2.882,6.539,3.671-1.013-1.941-2.975-5.064-4.706-5.367a1.438,1.438,0,0,0-.254-.023" transform="translate(8.441 29.241)" fill="#fff"/>
          <path id="Path_895" data-name="Path 895" d="M25.763,82.236a.468.468,0,0,1-.033-.935,18.643,18.643,0,0,0,9.641-3.8.467.467,0,0,1,.6.714A19.291,19.291,0,0,1,25.8,82.235l-.033,0" transform="translate(14.07 43.046)" fill="#fff"/>
          <path id="Path_896" data-name="Path 896" d="M72.812,81.739c-8.506-.845-11.558-3.106-11.684-3.2a.468.468,0,0,1,.566-.744c.03.022,3.016,2.2,11.163,3.013a.468.468,0,0,1-.045.934" transform="translate(33.899 43.217)" fill="#fff"/>
          <path id="Path_897" data-name="Path 897" d="M44.817,36.561a10.026,10.026,0,0,1-8.288-4.409.468.468,0,0,1,.8-.479,9.022,9.022,0,0,0,9.686,3.721.452.452,0,0,1,.551.363.465.465,0,0,1-.363.552,11.845,11.845,0,0,1-2.389.252" transform="translate(20.281 17.491)" fill="#fff"/>
          <path id="Path_898" data-name="Path 898" d="M43.99,24.36a3.183,3.183,0,0,1-.956-.132.468.468,0,0,1,.31-.882c.086.031,2.1.669,3.431-1.934a.468.468,0,0,1,.833.43,4,4,0,0,1-3.618,2.52" transform="translate(23.763 11.769)"/>
        </g>
      </g>
      <g id="magnifying-glass" transform="translate(790.145 48.539)">
        <path id="Path_1355" data-name="Path 1355" d="M49.74,44.033,38.027,32.32a20.594,20.594,0,1,0-5.683,5.963L43.917,49.857a4.118,4.118,0,1,0,5.823-5.823ZM20.586,35.3A13.915,13.915,0,1,1,34.5,21.389,13.915,13.915,0,0,1,20.586,35.3Z" transform="translate(0 -0.802)" fill="#cfcfcf"/>
      </g>
    </g>
    <rect id="Rectangle_306" data-name="Rectangle 306" width="180" height="202" transform="translate(700.421 44)" fill="none"/>
  </g>
</svg>
