<svg xmlns="http://www.w3.org/2000/svg" width="110" height="110" viewBox="0 0 110 110">
  <g id="menu-ic2" transform="translate(-64 -43)">
    <g id="list" transform="translate(81 51)">
      <g id="Group_836" data-name="Group 836" transform="translate(0 0)">
        <g id="Group_835" data-name="Group 835" transform="translate(0 0)">
          <path id="Path_1287" data-name="Path 1287" d="M122.352,26.3a1.379,1.379,0,0,0,1.379-1.379V9.864a4.293,4.293,0,0,0-4.288-4.288H101.37V4.289A4.293,4.293,0,0,0,97.082,0H93.622a1.379,1.379,0,1,0,0,2.758h3.459a1.531,1.531,0,0,1,1.53,1.53V9.742a1.532,1.532,0,0,1-1.53,1.53H73.449a1.531,1.531,0,0,1-1.53-1.53V4.289a1.532,1.532,0,0,1,1.53-1.53H88.2A1.379,1.379,0,1,0,88.2,0H73.449a4.293,4.293,0,0,0-4.288,4.288V5.576H51.088A4.293,4.293,0,0,0,46.8,9.864v79.99a4.293,4.293,0,0,0,4.288,4.288h68.355a4.293,4.293,0,0,0,4.288-4.288V29.973a1.379,1.379,0,0,0-2.758,0V89.853a1.531,1.531,0,0,1-1.53,1.53H51.088a1.532,1.532,0,0,1-1.53-1.53V9.864a1.532,1.532,0,0,1,1.53-1.53H69.161V9.742a4.293,4.293,0,0,0,4.288,4.288H97.082a4.293,4.293,0,0,0,4.288-4.288V8.334h18.073a1.531,1.531,0,0,1,1.53,1.53V24.917A1.379,1.379,0,0,0,122.352,26.3Z" transform="translate(-46.8 -0.001)" fill="#fff"/>
        </g>
      </g>
      <g id="Group_838" data-name="Group 838" transform="translate(11.737 23.557)">
        <g id="Group_837" data-name="Group 837">
          <path id="Path_1288" data-name="Path 1288" d="M124.434,128.638a1.39,1.39,0,0,0-1.965,0l-6.465,6.5-2.923-2.747a1.389,1.389,0,0,0-1.9,2.025l3.907,3.672a1.39,1.39,0,0,0,1.937-.032l7.418-7.456A1.39,1.39,0,0,0,124.434,128.638Z" transform="translate(-110.74 -128.234)" fill="#fff"/>
        </g>
      </g>
      <g id="Group_840" data-name="Group 840" transform="translate(11.737 38.772)">
        <g id="Group_839" data-name="Group 839">
          <path id="Path_1289" data-name="Path 1289" d="M124.434,211.459a1.389,1.389,0,0,0-1.965.005l-6.465,6.5-2.923-2.747a1.389,1.389,0,0,0-1.9,2.025c4.184,3.933,4.125,4.049,4.858,4.049.778,0,.4.182,8.4-7.866A1.389,1.389,0,0,0,124.434,211.459Z" transform="translate(-110.74 -211.055)" fill="#fff"/>
        </g>
      </g>
      <g id="Group_842" data-name="Group 842" transform="translate(11.737 53.986)">
        <g id="Group_841" data-name="Group 841">
          <path id="Path_1290" data-name="Path 1290" d="M124.433,294.278a1.389,1.389,0,0,0-1.965.005l-6.465,6.5-2.923-2.747a1.389,1.389,0,1,0-1.9,2.025l3.907,3.672a1.389,1.389,0,0,0,1.937-.033l7.418-7.456A1.389,1.389,0,0,0,124.433,294.278Z" transform="translate(-110.739 -293.874)" fill="#fff"/>
        </g>
      </g>
      <g id="Group_844" data-name="Group 844" transform="translate(11.737 69.201)">
        <g id="Group_843" data-name="Group 843">
          <path id="Path_1291" data-name="Path 1291" d="M124.433,377.1a1.389,1.389,0,0,0-1.965,0L116,383.6l-2.923-2.747a1.389,1.389,0,0,0-1.9,2.025l3.907,3.672a1.389,1.389,0,0,0,1.936-.032l7.418-7.456A1.389,1.389,0,0,0,124.433,377.1Z" transform="translate(-110.739 -376.696)" fill="#fff"/>
        </g>
      </g>
      <g id="Group_846" data-name="Group 846" transform="translate(31.503 24.261)">
        <g id="Group_845" data-name="Group 845" transform="translate(0)">
          <path id="Path_1292" data-name="Path 1292" d="M252.589,131.979H221.332a1.389,1.389,0,1,0,0,2.778h31.257a1.389,1.389,0,0,0,0-2.778Z" transform="translate(-219.943 -131.979)" fill="#fff"/>
        </g>
      </g>
      <g id="Group_848" data-name="Group 848" transform="translate(31.503 39.116)">
        <g id="Group_847" data-name="Group 847" transform="translate(0)">
          <path id="Path_1293" data-name="Path 1293" d="M252.589,212.788H221.332a1.389,1.389,0,1,0,0,2.778h31.257a1.389,1.389,0,0,0,0-2.778Z" transform="translate(-219.943 -212.788)" fill="#fff"/>
        </g>
      </g>
      <g id="Group_850" data-name="Group 850" transform="translate(31.503 53.972)">
        <g id="Group_849" data-name="Group 849" transform="translate(0)">
          <path id="Path_1294" data-name="Path 1294" d="M252.589,293.6H221.332a1.389,1.389,0,0,0,0,2.778h31.257a1.389,1.389,0,0,0,0-2.778Z" transform="translate(-219.943 -293.6)" fill="#fff"/>
        </g>
      </g>
      <g id="Group_852" data-name="Group 852" transform="translate(31.503 68.827)">
        <g id="Group_851" data-name="Group 851" transform="translate(0)">
          <path id="Path_1295" data-name="Path 1295" d="M252.589,374.41H221.332a1.389,1.389,0,1,0,0,2.778h31.257a1.389,1.389,0,1,0,0-2.778Z" transform="translate(-219.943 -374.41)" fill="#fff"/>
        </g>
      </g>
      <g id="Group_854" data-name="Group 854" transform="translate(31.762 30.562)">
        <g id="Group_853" data-name="Group 853" transform="translate(0)">
          <path id="Path_1296" data-name="Path 1296" d="M237.124,166.256H221.332a1.389,1.389,0,1,0,0,2.778h15.791a1.389,1.389,0,1,0,0-2.778Z" transform="translate(-219.943 -166.256)" fill="#fff"/>
        </g>
      </g>
      <g id="Group_856" data-name="Group 856" transform="translate(31.762 45.417)">
        <g id="Group_855" data-name="Group 855" transform="translate(0)">
          <path id="Path_1297" data-name="Path 1297" d="M237.124,247.066H221.332a1.389,1.389,0,0,0,0,2.778h15.791a1.389,1.389,0,0,0,0-2.778Z" transform="translate(-219.943 -247.066)" fill="#fff"/>
        </g>
      </g>
      <g id="Group_858" data-name="Group 858" transform="translate(31.762 60.273)">
        <g id="Group_857" data-name="Group 857" transform="translate(0)">
          <path id="Path_1298" data-name="Path 1298" d="M237.124,327.877H221.332a1.389,1.389,0,0,0,0,2.778h15.791a1.389,1.389,0,1,0,0-2.778Z" transform="translate(-219.943 -327.877)" fill="#fff"/>
        </g>
      </g>
      <g id="Group_860" data-name="Group 860" transform="translate(31.762 75.128)">
        <g id="Group_859" data-name="Group 859" transform="translate(0)">
          <path id="Path_1299" data-name="Path 1299" d="M237.124,408.687H221.332a1.389,1.389,0,1,0,0,2.778h15.791a1.389,1.389,0,0,0,0-2.778Z" transform="translate(-219.943 -408.687)" fill="#fff"/>
        </g>
      </g>
    </g>
    <rect id="Rectangle_298" data-name="Rectangle 298" width="110" height="110" transform="translate(64 43)" fill="none"/>
  </g>
</svg>
