<svg xmlns="http://www.w3.org/2000/svg" width="110" height="110" viewBox="0 0 110 110">
  <g id="menu-ic7" transform="translate(-61 -41.965)">
    <g id="folder" transform="translate(72 51.965)">
      <path id="Path_1320" data-name="Path 1320" d="M88.291,23.1H82.964L84.526,7.325a2.841,2.841,0,0,0-2.544-3.1l-4.754-.47A1.282,1.282,0,0,0,76.976,6.3l4.753.47a.275.275,0,0,1,.246.3L79.294,34.161H77.179l-.814-14.9a2.861,2.861,0,0,0-2.988-2.679l-7.243.4-.965-6.874a2.862,2.862,0,0,0-3.2-2.416L38.213,11.026l.824-8.319a.163.163,0,0,1,.18-.142L69.937,5.605a1.282,1.282,0,0,0,.253-2.551L39.469.013a2.727,2.727,0,0,0-2.983,2.441L35.6,11.392,19.659,13.63a2.729,2.729,0,0,0-2.323,3.075l.9,6.4H10.482a4.851,4.851,0,0,0-4.843,4.849V84.574a4.851,4.851,0,0,0,4.843,4.848h8.658a1.282,1.282,0,0,0,0-2.563H10.482A2.285,2.285,0,0,1,8.2,84.574V27.952a2.285,2.285,0,0,1,2.279-2.285H22.19l3.275,10.168a1.281,1.281,0,0,0,1.22.889H90.571v47.85a2.285,2.285,0,0,1-2.279,2.285H26.658a1.282,1.282,0,0,0,0,2.563H88.291a4.851,4.851,0,0,0,4.843-4.848V27.952A4.851,4.851,0,0,0,88.291,23.1ZM73.517,19.145a.274.274,0,0,1,.289.259l.806,14.757H31.387L30.7,21.643a.162.162,0,0,1,.156-.168ZM24.349,24.009a1.3,1.3,0,0,0-1.225-.905h-2.3l-.948-6.754a.163.163,0,0,1,.141-.181l16.57-2.326c.02,0,.04.007.06.009q.064.006.128.006a1.272,1.272,0,0,0,.529-.116l25.02-3.512a.274.274,0,0,1,.31.233l.935,6.658L30.72,18.915a2.749,2.749,0,0,0-2.576,2.867l.676,12.378h-1.2ZM81.87,34.161l.841-8.494h5.581a2.285,2.285,0,0,1,2.279,2.285v6.209h-8.7Z" transform="translate(-5.639 0)" fill="#fff"/>
      <path id="Path_1321" data-name="Path 1321" d="M163.66,379.206a1.284,1.284,0,0,0,1.267-1.3V366.028a1.284,1.284,0,0,0-1.267-1.3H116.829a1.284,1.284,0,0,0-1.267,1.3v11.878a1.284,1.284,0,0,0,1.267,1.3ZM118.1,367.329h44.3V376.6H118.1Z" transform="translate(-96.497 -302.803)" fill="#fff"/>
      <path id="Path_1322" data-name="Path 1322" d="M195.742,398.969H163.937a1.3,1.3,0,0,0,0,2.6h31.805A1.3,1.3,0,0,0,195.742,398.969Z" transform="translate(-136.092 -330.819)" fill="#fff"/>
    </g>
    <rect id="Rectangle_303" data-name="Rectangle 303" width="110" height="110" transform="translate(61 41.965)" fill="none"/>
  </g>
</svg>
