<svg xmlns="http://www.w3.org/2000/svg" width="110" height="110" viewBox="0 0 110 110">
  <g id="menu-ic9" transform="translate(-66.127 -41.965)">
    <g id="comment" transform="translate(70.127 48.965)">
      <path id="Path_1324" data-name="Path 1324" d="M132.484,214.111a1.491,1.491,0,1,0,0-2.982H102.616a1.491,1.491,0,1,0,0,2.982Z" transform="translate(-81.024 -171.869)" fill="#fff"/>
      <path id="Path_1325" data-name="Path 1325" d="M74.174,246.016a1.491,1.491,0,0,0,1.491,1.491h40.086a1.491,1.491,0,1,0,0-2.982H75.665A1.491,1.491,0,0,0,74.174,246.016Z" transform="translate(-59.43 -198.626)" fill="#fff"/>
      <path id="Path_1326" data-name="Path 1326" d="M75.665,280.9h39.067a1.491,1.491,0,0,0,0-2.982H75.665a1.491,1.491,0,1,0,0,2.982Z" transform="translate(-59.43 -225.384)" fill="#fff"/>
      <path id="Path_1327" data-name="Path 1327" d="M75.665,314.3H113.74a1.491,1.491,0,1,0,0-2.982H75.665a1.491,1.491,0,1,0,0,2.982Z" transform="translate(-59.43 -252.143)" fill="#fff"/>
      <path id="Path_1328" data-name="Path 1328" d="M75.665,347.7h36.549a1.491,1.491,0,0,0,0-2.982H75.665a1.491,1.491,0,0,0,0,2.982Z" transform="translate(-59.43 -278.9)" fill="#fff"/>
      <path id="Path_1329" data-name="Path 1329" d="M12.682,95.114h11.3a1.491,1.491,0,1,0,0-2.982h-11.3a9.712,9.712,0,0,1-9.7-9.7V50.723a9.712,9.712,0,0,1,9.7-9.7H59.873a9.712,9.712,0,0,1,9.7,9.7V52.7L60.422,68.556a2.645,2.645,0,0,0-.014,2.611l-2.5,8.906a2.162,2.162,0,0,0,3.626,2.094L68,75.549a2.692,2.692,0,0,0,1.575-.543v7.426a9.712,9.712,0,0,1-9.7,9.7,5.01,5.01,0,0,0-3.9,1.836,61.7,61.7,0,0,1-15.066,12.972.2.2,0,0,1-.274-.021.21.21,0,0,1-.05-.282A49.086,49.086,0,0,0,44.3,96.277a3.378,3.378,0,0,0-3.294-4.144H30.937a1.491,1.491,0,1,0,0,2.982H41.006a.4.4,0,0,1,.392.48,46.113,46.113,0,0,1-3.487,9.731,3.212,3.212,0,0,0,4.57,4.151A64.7,64.7,0,0,0,58.286,95.857a2.039,2.039,0,0,1,1.587-.743A12.7,12.7,0,0,0,72.556,82.432V80.627h2.5A12.7,12.7,0,0,0,87.738,67.944V64.487a1.491,1.491,0,1,0-2.982,0v3.457a9.712,9.712,0,0,1-9.7,9.7h-2.5v-7.4l9.872-17.1a3.169,3.169,0,0,0,2.329-.97V57.53a1.491,1.491,0,0,0,2.982,0V47.209L97.17,30.873c1.562,1.34,1.917,2.939,1.387,3.857l-9,15.591a1.491,1.491,0,1,0,2.582,1.491l9-15.591c1.394-2.414.448-5.844-2.578-8.052a7.287,7.287,0,0,0-.082-4.88h0l-.007-.016,1.56-2.7A4.635,4.635,0,0,0,92,15.936l-1.56,2.7-.017,0a7.284,7.284,0,0,0-5.12,3.552l-2.379,4.121a12.692,12.692,0,0,0-7.873-2.759H27.865A12.7,12.7,0,0,0,15.183,36.235v1.806h-2.5A12.7,12.7,0,0,0,0,50.723V82.432A12.7,12.7,0,0,0,12.682,95.114Zm48.966-17.33,1.322-4.713,2.1,1.211Zm6.2-5.342-4.667-2.695,11.8-20.437,4.667,2.695-11.8,20.437ZM94.586,17.426a1.654,1.654,0,0,1,2.864,1.654l-1.191,2.063L93.395,19.49Zm-6.7,6.255a4.312,4.312,0,0,1,3.032-2.1.368.368,0,0,1,.215.049l4.4,2.541a.349.349,0,0,1,.149.161,4.314,4.314,0,0,1-.3,3.677L82.647,50.064a.2.2,0,0,1-.265.077c-.113-.061-7.111-4.1-7.167-4.138a.2.2,0,0,1-.059-.265L87.89,23.681ZM18.164,36.235a9.712,9.712,0,0,1,9.7-9.7H75.056a9.71,9.71,0,0,1,6.36,2.4L72.573,44.248a3.17,3.17,0,0,0,.023,3.221l-.329.57a12.7,12.7,0,0,0-12.394-10H18.164Z" transform="translate(0 -13.619)" fill="#fff"/>
    </g>
    <rect id="Rectangle_305" data-name="Rectangle 305" width="110" height="110" transform="translate(66.127 41.965)" fill="none"/>
  </g>
</svg>
