<svg xmlns="http://www.w3.org/2000/svg" width="110" height="110" viewBox="0 0 110 110">
  <g id="menu-ic1" transform="translate(-66 -43)">
    <g id="service" transform="translate(77 54)">
      <path id="Path_1283" data-name="Path 1283" d="M99.684,321.408a1.327,1.327,0,0,0-1.876,0L80.825,338.391a1.327,1.327,0,0,0,1.876,1.876l16.982-16.982A1.327,1.327,0,0,0,99.684,321.408Z" transform="translate(-66.618 -265.871)" fill="#fff"/>
      <path id="Path_1284" data-name="Path 1284" d="M71.421,57.357,55.29,41.226,85.326,11.19a2.707,2.707,0,0,0,.623-.962L88.424,3.7A2.7,2.7,0,0,0,87.8.8,2.7,2.7,0,0,0,84.9.182L78.379,2.658a2.707,2.707,0,0,0-.962.622l-8.567,8.567a1.3,1.3,0,0,0,1.834,1.834l8.568-8.568a.134.134,0,0,1,.047-.03l6.526-2.475A.136.136,0,0,1,86,2.782L83.523,9.309a.132.132,0,0,1-.031.047L49.02,43.828l-4.242-4.242L67.016,17.348a1.3,1.3,0,1,0-1.834-1.834l-17.8,17.8L31.234,17.17A15.613,15.613,0,0,0,12.667.3a2.731,2.731,0,0,0-1.413,4.61l6.95,6.95a.134.134,0,0,1,.033.138l-1.519,4.557a.136.136,0,0,1-.086.085l-4.557,1.519a.135.135,0,0,1-.139-.033l-6.95-6.95A2.731,2.731,0,0,0,.376,12.583,15.634,15.634,0,0,0,17.263,31.17L28.337,42.244c-.05.045-.1.09-.149.137L11.925,58.645a1.3,1.3,0,0,0,1.834,1.834L24.62,49.617h0a1.567,1.567,0,1,1,2.217,2.217l-16.6,16.6a1.567,1.567,0,0,1-2.218-2.215l2.056-2.056a1.3,1.3,0,0,0-1.834-1.834L2.137,68.432A4.167,4.167,0,0,0,1.4,73.313,6.839,6.839,0,0,0,2,82.28l4.327,4.327a6.837,6.837,0,0,0,8.966.6,4.166,4.166,0,0,0,4.881-.741l26.05-26.05c.048-.048.092-.1.137-.149L57.45,71.358A15.613,15.613,0,0,0,72.98,88.527a15.7,15.7,0,0,0,3.038-.3,2.731,2.731,0,0,0,1.413-4.61l-6.95-6.95a.135.135,0,0,1-.033-.139l1.519-4.557a.135.135,0,0,1,.086-.085L76.61,70.37a.135.135,0,0,1,.138.033l6.95,6.95a2.731,2.731,0,0,0,4.609-1.408A15.634,15.634,0,0,0,71.421,57.357ZM45.065,56.075,32.531,43.541l3.879-.554,9.21,9.21Zm-9.34-17.442a.086.086,0,0,1,0-.122l2.094-2.095a.086.086,0,0,1,.061-.025.087.087,0,0,1,.061.025L52.188,50.664a.086.086,0,0,1,0,.122L50.094,52.88a.086.086,0,0,1-.122,0ZM17.548,28.523A13.039,13.039,0,0,1,2.921,13.085a.131.131,0,0,1,.1-.11.119.119,0,0,1,.133.034l6.95,6.95a2.714,2.714,0,0,0,2.792.659L17.452,19.1a2.742,2.742,0,0,0,1.726-1.726L20.7,12.816a2.715,2.715,0,0,0-.659-2.793l-6.95-6.95a.116.116,0,0,1-.034-.131.137.137,0,0,1,.114-.1A13.02,13.02,0,0,1,28.587,17.458a1.3,1.3,0,0,0,.367,1.1L45.546,35.15l-2.6,2.6-3.168-3.168a2.683,2.683,0,0,0-3.79,0l-2.095,2.094a2.683,2.683,0,0,0,0,3.79l.226.226-3.205.458L18.65,28.889a1.3,1.3,0,0,0-1.1-.366ZM8.16,84.773,3.833,80.445a4.241,4.241,0,0,1-.677-5.11L13.27,85.449a4.244,4.244,0,0,1-5.11-.676Zm9.072.321a1.557,1.557,0,0,1-1.108-.459L3.971,72.482h0a1.567,1.567,0,0,1,0-2.216L5.3,68.939a4.161,4.161,0,0,0,6.774,1.327l16.6-16.6a4.165,4.165,0,0,0-1.324-6.777l2.432-2.432L44.148,58.826l-2.432,2.432a4.163,4.163,0,0,0-6.777-1.324l-16.6,16.6a4.156,4.156,0,0,0,1.327,6.774L18.34,84.634a1.557,1.557,0,0,1-1.108.459Zm5.159-4.51a1.568,1.568,0,0,1-2.217-2.217l16.6-16.6a1.568,1.568,0,0,1,2.217,2.217Zm63.372-5.142a.13.13,0,0,1-.1.11.119.119,0,0,1-.133-.034l-6.95-6.95a2.714,2.714,0,0,0-2.792-.659l-4.557,1.519a2.742,2.742,0,0,0-1.726,1.726l-1.519,4.557a2.715,2.715,0,0,0,.659,2.793l6.95,6.95a.116.116,0,0,1,.034.131.136.136,0,0,1-.114.1A13.02,13.02,0,0,1,60.1,71.069a1.3,1.3,0,0,0-.367-1.1L47.454,57.694l.458-3.205.226.226a2.683,2.683,0,0,0,3.79,0l2.095-2.095a2.683,2.683,0,0,0,0-3.79l-3.168-3.168,2.6-2.6L70.035,59.638a1.3,1.3,0,0,0,1.1.367A13.039,13.039,0,0,1,85.763,75.442Z" transform="translate(-0.003 0)" fill="#fff"/>
      <path id="Path_1285" data-name="Path 1285" d="M123.9,121.39l-2.072,2.072a1.327,1.327,0,0,0,1.876,1.876l2.072-2.072a1.327,1.327,0,0,0-1.876-1.876Z" transform="translate(-100.471 -100.108)" fill="#fff"/>
      <path id="Path_1286" data-name="Path 1286" d="M367.2,364.688l-2.072,2.072A1.327,1.327,0,0,0,367,368.637l2.072-2.072a1.327,1.327,0,0,0-1.877-1.876Z" transform="translate(-301.757 -301.393)" fill="#fff"/>
    </g>
    <rect id="Rectangle_297" data-name="Rectangle 297" width="110" height="110" transform="translate(66 43)" fill="none"/>
  </g>
</svg>
