<svg xmlns="http://www.w3.org/2000/svg" width="110" height="110" viewBox="0 0 110 110">
  <g id="menu-ic6" transform="translate(-66 -31.482)">
    <g id="_x32_3_seo_2_" transform="translate(78 47.482)">
      <path id="Path_1316" data-name="Path 1316" d="M86.862,116.439a34.374,34.374,0,0,0,21.446,7.475h0a34.24,34.24,0,0,0,29.754-17.14,2.547,2.547,0,0,0,0-2.545A34.226,34.226,0,0,0,108.818,87.1q-.254-.007-.51-.007t-.51.007a34.226,34.226,0,0,0-29.245,17.133,2.548,2.548,0,0,0,0,2.545,34.428,34.428,0,0,0,8.309,9.665Zm21.446-26.81a15.873,15.873,0,0,1,0,31.746h0a15.873,15.873,0,1,1,0-31.746Zm19.857,6.917a31.876,31.876,0,0,1,7.7,8.958,31.9,31.9,0,0,1-7.7,8.954,31.181,31.181,0,0,1-7.032,4.242,18.38,18.38,0,0,0-.017-26.412A31.223,31.223,0,0,1,128.165,96.546Zm-39.715,0A31.238,31.238,0,0,1,95.5,92.286a18.38,18.38,0,0,0-.017,26.413,31.184,31.184,0,0,1-7.033-4.242,31.874,31.874,0,0,1-7.7-8.957A31.9,31.9,0,0,1,88.451,96.546Z" transform="translate(-64.973 -77.178)" fill="#fff"/>
      <path id="Path_1317" data-name="Path 1317" d="M81.169,28.542H5.5a5.508,5.508,0,0,0-5.5,5.5V45.925a1.27,1.27,0,0,0,2.539,0V34.044A2.966,2.966,0,0,1,5.5,31.081H81.169a2.966,2.966,0,0,1,2.962,2.962V79.687a2.966,2.966,0,0,1-2.962,2.962H73.326a1.27,1.27,0,0,0,0,2.539h7.843a5.508,5.508,0,0,0,5.5-5.5V34.044a5.508,5.508,0,0,0-5.5-5.5Z" transform="translate(0 -28.542)" fill="#fff"/>
      <path id="Path_1318" data-name="Path 1318" d="M5.5,188.879a2.966,2.966,0,0,1-2.962-2.962V157.688a1.27,1.27,0,1,0-2.539,0v28.229a5.508,5.508,0,0,0,5.5,5.5H31l-3.486,9.819H21.791a5.508,5.508,0,0,0-5.5,5.5v2.078a2.966,2.966,0,0,0,2.962,2.962h36.1a1.27,1.27,0,1,0,0-2.539h-36.1a.424.424,0,0,1-.423-.423v-2.078a2.966,2.966,0,0,1,2.962-2.962H64.879a2.966,2.966,0,0,1,2.962,2.962v2.078a.424.424,0,0,1-.423.423H60.886a1.27,1.27,0,1,0,0,2.539h6.533a2.966,2.966,0,0,0,2.962-2.962v-2.078a5.508,5.508,0,0,0-5.5-5.5H59.153l-3.486-9.819H67.793a1.27,1.27,0,1,0,0-2.539Zm24.71,12.358,3.486-9.819H52.973l3.486,9.819Z" transform="translate(0 -134.771)" fill="#fff"/>
      <path id="Path_1319" data-name="Path 1319" d="M209.658,158.961a9.443,9.443,0,1,0-9.443-9.443A9.454,9.454,0,0,0,209.658,158.961Zm0-16.347a6.9,6.9,0,1,1-6.9,6.9A6.912,6.912,0,0,1,209.658,142.614Z" transform="translate(-166.323 -121.195)" fill="#fff"/>
    </g>
    <rect id="Rectangle_302" data-name="Rectangle 302" width="110" height="110" transform="translate(66 31.482)" fill="none"/>
  </g>
</svg>
