<svg xmlns="http://www.w3.org/2000/svg" width="110" height="110" viewBox="0 0 110 110">
  <g id="menu-ic3" transform="translate(-67 -43)">
    <g id="personal-id" transform="translate(75 53)">
      <path id="Path_1300" data-name="Path 1300" d="M93.177,87.424a1.385,1.385,0,0,0,1.385-1.385V65.588a8.245,8.245,0,0,0-8.235-8.235h-.8V42.726A8.231,8.231,0,0,0,83.1,36.867L71.851,25.622A8.231,8.231,0,0,0,65.992,23.2H61.236v-.18A10.167,10.167,0,0,0,51.082,12.86H17.553a1.385,1.385,0,1,0,0,2.77H51.082a7.393,7.393,0,0,1,7.384,7.386V57.352H37.491a8.246,8.246,0,0,0-8.237,8.235v19.45h-19.1A7.392,7.392,0,0,1,2.77,77.654V23.016a7.393,7.393,0,0,1,7.384-7.386h1.858a1.385,1.385,0,1,0,0-2.77H10.154A10.167,10.167,0,0,0,0,23.016V77.654A10.166,10.166,0,0,0,10.154,87.808h19.1v6.627a8.246,8.246,0,0,0,8.237,8.237H86.327a8.246,8.246,0,0,0,8.235-8.237V91.579a1.385,1.385,0,0,0-2.77,0v2.855A5.472,5.472,0,0,1,86.327,99.9H37.491a5.473,5.473,0,0,1-5.467-5.467V65.588a5.472,5.472,0,0,1,5.467-5.465H86.327a5.471,5.471,0,0,1,5.465,5.465V86.039a1.385,1.385,0,0,0,1.385,1.385ZM80.846,38.535a5.447,5.447,0,0,0-.747-.053H74.37a4.14,4.14,0,0,1-4.135-4.135V28.618a5.447,5.447,0,0,0-.053-.747ZM61.236,25.966h3.577a2.654,2.654,0,0,1,2.65,2.652v5.729a6.913,6.913,0,0,0,6.906,6.906H80.1a2.655,2.655,0,0,1,2.653,2.633V57.352H61.236Z" transform="translate(0 -12.86)" fill="#fff"/>
      <path id="Path_1301" data-name="Path 1301" d="M96.6,106.255a1.385,1.385,0,0,0,1.787-.8l.837-2.2H104.9l.827,2.193a1.385,1.385,0,1,0,2.592-.978l-4.68-12.4-.015-.038A1.664,1.664,0,0,0,102.083,91h0a1.664,1.664,0,0,0-1.545,1.038l-.012.032-4.723,12.4A1.385,1.385,0,0,0,96.6,106.255Zm5.476-10.485,1.78,4.717h-3.576Z" transform="translate(-78.033 -76.565)" fill="#fff"/>
      <path id="Path_1302" data-name="Path 1302" d="M173.68,103.576a4.569,4.569,0,0,1-3.357-1.41,1.385,1.385,0,0,0-2.053,1.86,7.379,7.379,0,0,0,5.41,2.32,5,5,0,0,0,5.109-3.868c.3-1.679-.472-3.877-3.537-5.007-1.575-.581-3.039-1.214-3.456-1.4a1.055,1.055,0,0,1-.4-1.007,1.443,1.443,0,0,1,1.132-1.161,4.381,4.381,0,0,1,3.634.835,1.385,1.385,0,0,0,1.777-2.126,7.133,7.133,0,0,0-6.21-1.362,4.239,4.239,0,0,0-3.075,3.42,3.812,3.812,0,0,0,1.7,3.774,1.38,1.38,0,0,0,.192.1c.073.032,1.8.8,3.744,1.519.6.22,1.961.847,1.769,1.921a2.31,2.31,0,0,1-2.382,1.584Z" transform="translate(-136.899 -76.565)" fill="#fff"/>
      <path id="Path_1303" data-name="Path 1303" d="M238.614,103.575a4.57,4.57,0,0,1-3.357-1.41,1.385,1.385,0,1,0-2.053,1.86,7.38,7.38,0,0,0,5.41,2.32,5,5,0,0,0,5.109-3.868c.3-1.679-.472-3.877-3.537-5.007-1.575-.581-3.039-1.214-3.456-1.4a1.055,1.055,0,0,1-.4-1.007,1.443,1.443,0,0,1,1.132-1.161,4.38,4.38,0,0,1,3.635.835,1.385,1.385,0,0,0,1.776-2.126,7.134,7.134,0,0,0-6.21-1.362,4.239,4.239,0,0,0-3.075,3.42,3.813,3.813,0,0,0,1.7,3.774,1.383,1.383,0,0,0,.192.1c.073.032,1.8.8,3.744,1.519.6.22,1.961.847,1.769,1.921A2.309,2.309,0,0,1,238.614,103.575Z" transform="translate(-189.84 -76.564)" fill="#fff"/>
      <path id="Path_1304" data-name="Path 1304" d="M49.373,91h-3.5a1.385,1.385,0,0,0-1.385,1.39s.008,2.441.009,3.394a1.416,1.416,0,0,0-.009.152v9.029a1.385,1.385,0,1,0,2.77,0v-4.086c.75,0,1.628-.008,2.117-.008a4.936,4.936,0,1,0,0-9.87Zm0,7.1c-.486,0-1.353,0-2.1.008,0-.771-.008-1.674-.008-2.173,0-.421,0-1.358,0-2.165h2.113a2.166,2.166,0,1,1,0,4.33Z" transform="translate(-36.269 -76.566)" fill="#fff"/>
      <path id="Path_1305" data-name="Path 1305" d="M210.158,293.319a5.186,5.186,0,0,0-3.073,1.015,4.381,4.381,0,0,0-2.808-1.015h-3.992a7.349,7.349,0,0,0-7.341,7.341V306.4a4.272,4.272,0,0,0,1.268,8.351h.194a9.743,9.743,0,0,0,9.729,9.269h.075a9.615,9.615,0,0,0,2.47-.34,9.843,9.843,0,0,0,7.183-8.929h.2a4.272,4.272,0,0,0,1.266-8.351v-7.9a5.178,5.178,0,0,0-5.171-5.173ZM192.71,310.475a1.5,1.5,0,0,1,1.5-1.5h.182v3h-.182A1.5,1.5,0,0,1,192.71,310.475Zm3-5.289V300.66a4.576,4.576,0,0,1,4.571-4.571h3.992a1.633,1.633,0,0,1,1.631,1.631v2.236a5.213,5.213,0,0,1-4.7,2.935c-.277,0-.886-.009-1.153.014A6.048,6.048,0,0,0,195.715,305.185Zm15.4,8.982A7.073,7.073,0,0,1,205.949,321a6.954,6.954,0,0,1-6.723-1.782,6.925,6.925,0,0,1-2.061-4.949v-5.318a3.3,3.3,0,0,1,3.078-3.286c.151-.014.805-.005.967-.007a7.978,7.978,0,0,0,5.95-2.646,6.768,6.768,0,0,0,.6.683,6.655,6.655,0,0,0,3.355,1.821v8.648Zm-1.4-12.426a3.929,3.929,0,0,1-1.037-1.835V297.72a4.4,4.4,0,0,0-.12-1.017,2.366,2.366,0,0,1,1.6-.614,2.4,2.4,0,0,1,2.4,2.4v4.4c-.021,0-.042,0-.064,0a3.9,3.9,0,0,1-2.78-1.15Zm5.408,9.8a1.486,1.486,0,0,1-1.06.439h-.183v-3h.183a1.5,1.5,0,0,1,1.06,2.563Z" transform="translate(-154.86 -241.52)" fill="#fff"/>
      <path id="Path_1306" data-name="Path 1306" d="M248.89,378.031a1.385,1.385,0,0,0,1.385-1.385v-1.269a1.385,1.385,0,1,0-2.77,0v1.269A1.385,1.385,0,0,0,248.89,378.031Z" transform="translate(-201.793 -307.293)" fill="#fff"/>
      <path id="Path_1307" data-name="Path 1307" d="M272.5,373.991a1.385,1.385,0,0,0-1.385,1.385v1.269a1.385,1.385,0,0,0,2.77,0v-1.269A1.385,1.385,0,0,0,272.5,373.991Z" transform="translate(-221.045 -307.293)" fill="#fff"/>
      <path id="Path_1308" data-name="Path 1308" d="M253.815,403.863a2.057,2.057,0,0,1-2.159,0,1.385,1.385,0,0,0-1.447,2.362,4.815,4.815,0,0,0,5.055,0,1.385,1.385,0,1,0-1.448-2.362Z" transform="translate(-203.457 -331.481)" fill="#fff"/>
      <path id="Path_1309" data-name="Path 1309" d="M361.869,306.358h7.954a1.385,1.385,0,0,0,0-2.77h-7.954a1.385,1.385,0,1,0,0,2.77Z" transform="translate(-293.905 -249.893)" fill="#fff"/>
      <path id="Path_1310" data-name="Path 1310" d="M380.615,336.254H361.869a1.385,1.385,0,1,0,0,2.77h18.746a1.385,1.385,0,0,0,0-2.77Z" transform="translate(-293.905 -276.526)" fill="#fff"/>
      <path id="Path_1311" data-name="Path 1311" d="M380.615,368.92H361.869a1.385,1.385,0,1,0,0,2.77h18.746a1.385,1.385,0,0,0,0-2.77Z" transform="translate(-293.905 -303.159)" fill="#fff"/>
      <path id="Path_1312" data-name="Path 1312" d="M361.869,404.355h11.247a1.385,1.385,0,1,0,0-2.77H361.869a1.385,1.385,0,1,0,0,2.77Z" transform="translate(-293.905 -329.791)" fill="#fff"/>
      <path id="Path_1313" data-name="Path 1313" d="M361.869,437.021h18.746a1.385,1.385,0,1,0,0-2.77H361.869a1.385,1.385,0,1,0,0,2.77Z" transform="translate(-293.905 -356.423)" fill="#fff"/>
    </g>
    <rect id="Rectangle_299" data-name="Rectangle 299" width="110" height="110" transform="translate(67 43)" fill="none"/>
  </g>
</svg>
