<svg xmlns="http://www.w3.org/2000/svg" width="110" height="110" viewBox="0 0 110 110">
  <g id="menu-ic4" transform="translate(-76 -31.482)">
    <g id="Group_970" data-name="Group 970">
      <rect id="Rectangle_300" data-name="Rectangle 300" width="110" height="110" transform="translate(76 31.482)" fill="none"/>
      <g id="management" transform="translate(83.5 38.983)">
        <path id="Subtraction_12" data-name="Subtraction 12" d="M69.334,93.833H30.5a1.341,1.341,0,0,1-1.34-1.34V64.481l-.38-.1A28.752,28.752,0,0,1,21.84,61.5l-.341-.2-4.84,4.84a1.338,1.338,0,0,1-1.894,0L6.518,57.9a1.34,1.34,0,0,1,0-1.895l4.839-4.839-.2-.342a28.786,28.786,0,0,1-2.876-6.938l-.1-.381H1.34A1.341,1.341,0,0,1,0,42.162V30.5a1.341,1.341,0,0,1,1.34-1.338H8.18l.1-.381a28.869,28.869,0,0,1,2.879-6.939l.2-.342L6.518,16.657a1.34,1.34,0,0,1,0-1.894l8.247-8.248a1.331,1.331,0,0,1,.946-.392,1.354,1.354,0,0,1,.949.392l4.839,4.84.341-.2a28.779,28.779,0,0,1,6.94-2.876l.381-.1V1.338A1.34,1.34,0,0,1,30.5,0H42.163A1.34,1.34,0,0,1,43.5,1.338V8.18l.381.1a28.78,28.78,0,0,1,6.94,2.877l.341.2L56,6.516a1.348,1.348,0,0,1,.948-.392,1.326,1.326,0,0,1,.946.392l8.248,8.248a1.341,1.341,0,0,1,0,1.894L61.3,21.5l.2.342a28.791,28.791,0,0,1,2.877,6.938l.1.381h6.842A1.34,1.34,0,0,1,72.66,30.5v9.84h9.248a1.34,1.34,0,0,1,1.338,1.338V65.746h9.272a1.345,1.345,0,0,1,1.315,1.338V92.494a1.341,1.341,0,0,1-1.34,1.338H86.01a1.339,1.339,0,0,1,0-2.678h5.146V68.424H83.247v9.248a1.34,1.34,0,0,1-1.938,1.2l-3.636-1.818L74.037,78.87a1.34,1.34,0,0,1-1.3-.059,1.332,1.332,0,0,1-.635-1.14V68.424H64.19V91.155h5.145a1.339,1.339,0,1,1,0,2.678Zm-37.5-25.409V91.154H61.511V68.424h-9.54v9.247a1.339,1.339,0,0,1-1.339,1.34,1.35,1.35,0,0,1-.6-.141L46.4,77.051,42.762,78.87a1.356,1.356,0,0,1-.6.141,1.339,1.339,0,0,1-1.339-1.34V68.424Zm45.835,5.791a1.329,1.329,0,0,1,.6.142l2.3,1.148V68.424H74.778V75.5l2.3-1.148A1.329,1.329,0,0,1,77.674,74.215Zm-31.275,0a1.329,1.329,0,0,1,.6.139l2.3,1.148V68.424H43.5V75.5l2.3-1.148A1.343,1.343,0,0,1,46.4,74.218Zm7.2-31.2V65.746H80.57V43.014H72.66v9.25a1.338,1.338,0,0,1-1.937,1.2l-3.636-1.816L63.451,53.46a1.341,1.341,0,0,1-1.3-.057,1.334,1.334,0,0,1-.636-1.14v-9.25ZM50.926,61.453h0l-.759.414a28.82,28.82,0,0,1-6.285,2.512l-.381.1v1.266h7.425V61.453Zm-29.62-3.189a1.34,1.34,0,0,1,.727.214,26.108,26.108,0,0,0,8.747,3.628,1.345,1.345,0,0,1,1.059,1.309v2.329h8.986V63.416a1.345,1.345,0,0,1,1.059-1.309,26.149,26.149,0,0,0,8.748-3.627l.014-.008.016-.009.013-.007.252-.149V46.675l-.908,1.085A17.842,17.842,0,0,1,19.067,31.813a1.338,1.338,0,0,1,1.293-1,1.375,1.375,0,0,1,.341.044,1.339,1.339,0,0,1,.958,1.634A15.15,15.15,0,1,0,32.493,21.657a1.4,1.4,0,0,1-.339.043,1.339,1.339,0,0,1-.338-2.635A17.847,17.847,0,0,1,53.847,39.726l-.118.611H69.983v-8.5H63.415a1.345,1.345,0,0,1-1.308-1.059,26.139,26.139,0,0,0-3.626-8.748,1.343,1.343,0,0,1,.177-1.673L63.3,15.711,56.95,9.357,52.3,14a1.34,1.34,0,0,1-1.675.178,26.171,26.171,0,0,0-8.748-3.628,1.345,1.345,0,0,1-1.057-1.31V2.678H31.838V9.243a1.345,1.345,0,0,1-1.059,1.31,26.185,26.185,0,0,0-8.748,3.627A1.337,1.337,0,0,1,20.357,14L15.712,9.357,9.359,15.711,14,20.357a1.347,1.347,0,0,1,.178,1.674,26.092,26.092,0,0,0-3.628,8.747,1.345,1.345,0,0,1-1.309,1.059H2.678v8.986H9.247a1.345,1.345,0,0,1,1.309,1.057,26.114,26.114,0,0,0,3.625,8.749A1.347,1.347,0,0,1,14,52.3L9.359,56.947,15.712,63.3l4.646-4.646A1.333,1.333,0,0,1,21.306,58.264Zm45.781-9.458a1.357,1.357,0,0,1,.6.142l2.3,1.148V43.014H64.192V50.1l2.3-1.148A1.348,1.348,0,0,1,67.087,48.806Z" transform="translate(0.5 0.5)" fill="#fff"/>
        <path id="Subtraction_11" data-name="Subtraction 11" d="M10.374,20.746A10.373,10.373,0,1,1,20.747,10.373,10.385,10.385,0,0,1,10.374,20.746Zm0-18.065a7.691,7.691,0,1,0,7.691,7.691A7.7,7.7,0,0,0,10.374,2.681Z" transform="translate(26.441 26.441)" fill="#fff"/>
        <path id="Path_1723" data-name="Path 1723" d="M190.7,192.54a1.841,1.841,0,0,0,0-3.681h0a1.841,1.841,0,1,0,0,3.681Zm0,0" transform="translate(-153.876 -153.873)" fill="#fff"/>
        <path id="Path_1723_-_Outline" data-name="Path 1723 - Outline" d="M190.7,193.04a2.341,2.341,0,1,1,2.341-2.341A2.344,2.344,0,0,1,190.7,193.04Zm0-3.681a1.341,1.341,0,1,0,1.341,1.341A1.342,1.342,0,0,0,190.7,189.359Z" transform="translate(-153.88 -153.877)" fill="#51bdc5"/>
        <path id="Path_1724" data-name="Path 1724" d="M127.72,129.558a1.836,1.836,0,0,0,1.358-.6h0a1.841,1.841,0,1,0-1.359.6Zm0,0" transform="translate(-102.565 -102.563)" fill="#fff"/>
        <path id="Path_1724_-_Outline" data-name="Path 1724 - Outline" d="M127.72,130.058a2.341,2.341,0,1,1,1.728-.76l-.064.07-.007,0A2.348,2.348,0,0,1,127.72,130.058Zm0-3.682a1.341,1.341,0,1,0,0,2.682,1.327,1.327,0,0,0,.989-.435l.028-.031a1.341,1.341,0,0,0-1.015-2.216Z" transform="translate(-102.572 -102.57)" fill="#51bdc5"/>
        <path id="Subtraction_13" data-name="Subtraction 13" d="M1.343,2.681h0A1.341,1.341,0,1,1,2.682,1.34,1.343,1.343,0,0,1,1.342,2.681Z" transform="translate(76.926 91.651)" fill="#fff"/>
      </g>
    </g>
  </g>
</svg>
