<svg xmlns="http://www.w3.org/2000/svg" width="110" height="110" viewBox="0 0 110 110">
  <g id="menu-ic8" transform="translate(-63 -41.965)">
    <g id="question" transform="translate(72 50.965)">
      <path id="Path_1323" data-name="Path 1323" d="M79.819,62.01a4.346,4.346,0,1,0-4.346,4.346,4.351,4.351,0,0,0,4.346-4.346Zm-6,0a1.653,1.653,0,1,1,1.653,1.653,1.655,1.655,0,0,1-1.653-1.653Zm-20.931,0a4.346,4.346,0,1,0-4.346,4.346,4.351,4.351,0,0,0,4.346-4.346Zm-6,0a1.653,1.653,0,1,1,1.653,1.653,1.655,1.655,0,0,1-1.653-1.653ZM87.035,87.571l-5.257-3.111A29.939,29.939,0,0,0,62.446,32.1c-.9-.012-1.8.02-2.7.086q.084-1.125.085-2.264A29.881,29.881,0,0,0,14.182,4.5a1.347,1.347,0,0,0,1.424,2.286A27.2,27.2,0,0,1,57.14,29.918a27.585,27.585,0,0,1-.229,3.537h0a27.228,27.228,0,0,1-26.467,23.68l-23.075.006,4.273-2.528a2.587,2.587,0,0,0,.382-4.177,27.167,27.167,0,0,1-.947-40.122A1.346,1.346,0,0,0,9.211,8.372a29.859,29.859,0,0,0,.934,44L4.888,55.48a2.34,2.34,0,0,0,1.192,4.354h0l24.378-.006h.025A29.928,29.928,0,0,0,59.42,34.908a28.025,28.025,0,0,1,2.988-.118A27.222,27.222,0,0,1,79.9,82.527a2.587,2.587,0,0,0,.383,4.177l4.273,2.528L61.48,89.228A27.186,27.186,0,0,1,34.907,64.615a1.347,1.347,0,1,0-2.681.254A29.877,29.877,0,0,0,61.442,91.921h.025l24.376.005a2.34,2.34,0,0,0,1.192-4.355ZM29.916,44.921a4.346,4.346,0,1,0,4.346,4.346,4.351,4.351,0,0,0-4.346-4.346Zm0,6a1.653,1.653,0,1,1,1.653-1.653A1.655,1.655,0,0,1,29.916,50.921ZM66.354,62.01a4.346,4.346,0,1,0-4.346,4.346,4.351,4.351,0,0,0,4.346-4.346Zm-6,0a1.653,1.653,0,1,1,1.653,1.653,1.655,1.655,0,0,1-1.653-1.653ZM39.5,28.528a13.1,13.1,0,0,0,3.613-9.792,13.211,13.211,0,0,0-26.4.7,4.04,4.04,0,1,0,8.079,0,5.2,5.2,0,0,1,.05-.721,5.131,5.131,0,1,1,5.082,5.853,4.044,4.044,0,0,0-4.04,4.04V38.2a4.04,4.04,0,1,0,8.079,0V32.007a13.184,13.184,0,0,0,5.541-3.48Zm-7.2,1.146a1.346,1.346,0,0,0-1.039,1.311V38.2a1.347,1.347,0,0,1-2.693,0V28.6a1.348,1.348,0,0,1,1.347-1.347,7.829,7.829,0,0,0,7.814-8.243,7.826,7.826,0,0,0-15.564-.675c-.144,1.035.015,2.44-1.422,2.44-1.554,0-1.393-1.755-1.245-2.812a10.519,10.519,0,0,1,20.92.908,10.516,10.516,0,0,1-8.118,10.8Z" transform="translate(0 -0.001)" fill="#fff"/>
    </g>
    <rect id="Rectangle_304" data-name="Rectangle 304" width="110" height="110" transform="translate(63 41.965)" fill="none"/>
  </g>
</svg>
