<svg xmlns="http://www.w3.org/2000/svg" width="110" height="110" viewBox="0 0 110 110">
  <g id="menu-ic5" transform="translate(-64 -31.482)">
    <g id="protection" transform="translate(85 39.482)">
      <path id="Path_1315" data-name="Path 1315" d="M122.616,76.045a31.226,31.226,0,0,0,7.209-19.919V39.079a1.837,1.837,0,0,0-1.841-1.833,32.523,32.523,0,0,1-13.305-2.8,32.349,32.349,0,0,1-8.025-5.1,1.842,1.842,0,0,0-2.4,0,32.36,32.36,0,0,1-8.025,5.1,32.533,32.533,0,0,1-13.31,2.8,1.838,1.838,0,0,0-1.836,1.836V56.126a31.226,31.226,0,0,0,7.209,19.919A32.126,32.126,0,0,0,104.64,86.472a3.186,3.186,0,0,0,1.628,0A32.138,32.138,0,0,0,122.616,76.045Zm-17.054,7.761a.419.419,0,0,1-.215,0,29.344,29.344,0,0,1-14.933-9.524,28.462,28.462,0,0,1-6.572-18.156V39.992A35.187,35.187,0,0,0,97.35,36.968a35.085,35.085,0,0,0,8.1-5.026,35.084,35.084,0,0,0,8.1,5.026,35.187,35.187,0,0,0,13.509,3.024V56.126a28.461,28.461,0,0,1-6.572,18.156A29.336,29.336,0,0,1,105.562,83.806Zm32.051-65.782a13.221,13.221,0,0,0,.669-11.837,2.044,2.044,0,0,0-3.613-.208l-5.124,8.876a.647.647,0,0,1-.882.235L124.688,12.8a.646.646,0,0,1-.236-.881l5.124-8.875A2.046,2.046,0,0,0,127.589.014a13.162,13.162,0,0,0-10.344,18.857l-3.912,6.379a25.814,25.814,0,0,1-5.806-5.737,2.568,2.568,0,0,0-4.146,0,25.809,25.809,0,0,1-5.806,5.737l-3.912-6.379A13.162,13.162,0,0,0,83.32.014a2.032,2.032,0,0,0-1.988,3.025l5.124,8.875a.646.646,0,0,1-.236.882L82.245,15.09a.646.646,0,0,1-.882-.234L76.239,5.979a2.043,2.043,0,0,0-3.613.21A13.163,13.163,0,0,0,83.791,24.574l2.947,5.033a27.031,27.031,0,0,1-9.86-.4,2.57,2.57,0,0,0-3.15,2.5v9.845a1.379,1.379,0,0,0,2.758,0V31.947c3.854.882,12.4.736,17.875-1.7a31.371,31.371,0,0,0,11.093-8.9,31.621,31.621,0,0,0,11.093,8.9c5.431,2.416,13.939,2.617,17.875,1.7v24.18a35.831,35.831,0,0,1-8.271,22.857,36.559,36.559,0,0,1-20.673,12.395.11.11,0,0,1-.047,0A36.559,36.559,0,0,1,84.758,78.984a35.831,35.831,0,0,1-8.271-22.857V47.989a1.379,1.379,0,0,0-2.758,0v8.138a38.59,38.59,0,0,0,7.057,22.2l-3.638,5.934a6.485,6.485,0,0,0,5.529,9.878,6.506,6.506,0,0,0,5.6-3.211l1.892-3.233a39.281,39.281,0,0,0,14.709,6.385,2.868,2.868,0,0,0,1.158,0,39.278,39.278,0,0,0,14.709-6.385l1.892,3.233a6.507,6.507,0,0,0,5.6,3.211,6.485,6.485,0,0,0,5.53-9.877l-3.638-5.934a38.589,38.589,0,0,0,7.057-22.2V31.709a2.569,2.569,0,0,0-3.15-2.5,27.032,27.032,0,0,1-9.86.4l2.947-5.033a13.137,13.137,0,0,0,10.5-6.549Zm-44.373,9.7a24.685,24.685,0,0,1-3.651,1.291l-3.476-5.936a2.515,2.515,0,0,0-2.034-1.254A10.4,10.4,0,0,1,74.648,8.74l4.327,7.5a3.409,3.409,0,0,0,4.649,1.243L87.6,15.185a3.407,3.407,0,0,0,1.246-4.649l-4.329-7.5a10.407,10.407,0,0,1,6.623,14.717,2.5,2.5,0,0,0,.07,2.389l.016.026,4.02,6.555c-.634.353-1.3.69-2,1ZM85.894,89.535a3.739,3.739,0,0,1-3.217,1.845A3.727,3.727,0,0,1,79.5,85.7l3.081-5.026a39.025,39.025,0,0,0,5.374,5.338ZM131.41,85.7a3.727,3.727,0,0,1-3.179,5.677,3.739,3.739,0,0,1-3.217-1.846l-2.06-3.52a39.007,39.007,0,0,0,5.374-5.339ZM124.8,23.073l-3.481,5.945a24.679,24.679,0,0,1-3.651-1.291c-.7-.313-1.369-.649-2-1l4.02-6.555.016-.026a2.5,2.5,0,0,0,.07-2.388,10.407,10.407,0,0,1,6.623-14.718l-4.329,7.5a3.407,3.407,0,0,0,1.246,4.648l3.976,2.295a3.409,3.409,0,0,0,4.649-1.244L136.26,8.74a10.4,10.4,0,0,1-9.435,13.089,2.51,2.51,0,0,0-2.025,1.245ZM111.9,51.849,101.872,61.872l-2.859-2.859a1.379,1.379,0,1,0-1.95,1.95l3.075,3.075a2.473,2.473,0,0,0,3.468,0l10.24-10.24a1.379,1.379,0,0,0-1.95-1.95Zm-6.441-10.316a16.568,16.568,0,1,0,9.817,29.916,1.379,1.379,0,0,0-1.635-2.221,13.793,13.793,0,1,1,3.859-4.358,1.379,1.379,0,1,0,2.4,1.354,16.572,16.572,0,0,0-14.444-24.691Z" transform="translate(-71.538 0)" fill="#fff"/>
    </g>
    <rect id="Rectangle_301" data-name="Rectangle 301" width="110" height="110" transform="translate(64 31.482)" fill="none"/>
  </g>
</svg>
