<svg xmlns="http://www.w3.org/2000/svg" xmlns:xlink="http://www.w3.org/1999/xlink" width="281" height="135" viewBox="0 0 281 135">
  <defs>
    <clipPath id="clip-path">
      <rect id="Rectangle_349" data-name="Rectangle 349" width="281" height="135" rx="8" transform="translate(303 356.982)" fill="#f6f6f6"/>
    </clipPath>
    <clipPath id="clip-path-2">
      <rect id="Rectangle_348" data-name="Rectangle 348" width="101.307" height="75.237" fill="#f7b369"/>
    </clipPath>
    <clipPath id="clip-path-3">
      <rect id="Rectangle_345" data-name="Rectangle 345" width="109.007" height="154.377" fill="none"/>
    </clipPath>
    <clipPath id="clip-path-5">
      <rect id="Rectangle_342" data-name="Rectangle 342" width="60.199" height="60.199" fill="none"/>
    </clipPath>
    <clipPath id="clip-path-6">
      <path id="Path_1626" data-name="Path 1626" d="M.034,28.675A30.1,30.1,0,1,1,28.675,60.165,30.1,30.1,0,0,1,.034,28.675m29,23.978A22.579,22.579,0,1,0,7.546,29.031,22.579,22.579,0,0,0,29.031,52.653" transform="translate(0 0)" fill="none"/>
    </clipPath>
    <clipPath id="clip-path-7">
      <rect id="Rectangle_346" data-name="Rectangle 346" width="100.096" height="233.754" fill="none"/>
    </clipPath>
    <clipPath id="clip-path-8">
      <rect id="Rectangle_347" data-name="Rectangle 347" width="83.553" height="112.485" fill="none"/>
    </clipPath>
  </defs>
  <g id="search-vision" transform="translate(-303 -356.982)" clip-path="url(#clip-path)">
    <g id="Group_967" data-name="Group 967" transform="translate(320.485 371.709)">
      <g id="Group_968" data-name="Group 968" transform="translate(27.509 41.639)">
        <g id="Group_965" data-name="Group 965" clip-path="url(#clip-path-2)">
          <path id="Path_1709" data-name="Path 1709" d="M101.459,75.237H23.076l15.2-65.506a3.95,3.95,0,0,1,3.72-3.225H84.276L85,3.262A3.955,3.955,0,0,1,88.73,0h25.138c2.478,0,4.29,2.621,3.671,5.311Z" transform="translate(-16.354)" fill="#f7b369"/>
          <path id="Path_1710" data-name="Path 1710" d="M101.459,102.861H23.076L34.508,38.977h78.383Z" transform="translate(-16.354 -27.623)" fill="#cde8f9"/>
          <path id="Path_1711" data-name="Path 1711" d="M101.459,110.846H23.076l7.667-60.6h78.383Z" transform="translate(-16.354 -35.609)" fill="#def0f9"/>
          <path id="Path_1712" data-name="Path 1712" d="M101.459,121.918H23.076l2.568-56.051h78.383Z" transform="translate(-16.354 -46.681)" fill="#eaf5f9"/>
          <path id="Path_1713" data-name="Path 1713" d="M95.408,131.7H17.025l-2.487-52.03H92.921Z" transform="translate(-10.303 -56.465)" fill="#fff"/>
          <path id="Path_1714" data-name="Path 1714" d="M85.105,115.569H6.722L.037,61.719c-.315-2.542,1.446-4.81,3.735-4.81H73.316a5.412,5.412,0,0,1,5.128,5Z" transform="translate(0 -40.332)" fill="#f7b369"/>
        </g>
      </g>
      <g id="Group_958" data-name="Group 958" transform="translate(0 41.321)">
        <g id="Group_957" data-name="Group 957" clip-path="url(#clip-path-3)">
          <path id="Path_1591" data-name="Path 1591" d="M89.886,106.7,74.979,130.461l9.609,5.566,12.886-25.211" transform="translate(-33.562 -42.527)" fill="#3e659f"/>
          <path id="Path_1592" data-name="Path 1592" d="M70.2,101.553,77.637,87l-6.26-3.533L62.609,97.44" transform="translate(-6.285 -33.266)" fill="#3e659f"/>
          <g id="Group_956" data-name="Group 956">
            <g id="Group_955" data-name="Group 955" clip-path="url(#clip-path-3)">
              <path id="Path_1593" data-name="Path 1593" d="M131.492,24.359s4.687,17.361-6.439,11.017l.194,10.853-8.314-8.588,3.327-10.5s-.858-10.18,11.232-2.786" transform="translate(-93.171 -8.635)" fill="#ffcc94"/>
              <path id="Path_1596" data-name="Path 1596" d="M119.286,39.668a1.034,1.034,0,0,1-1.046-.651.131.131,0,0,1,.091-.16.134.134,0,0,1,.161.091c.015.039-.011-.02.007.017,0,.008.007.016.011.024s.022.042.035.063.024.037.037.054.005.007,0,0l.008.01.025.03a.894.894,0,0,0,.094.091l.018.014.018.013.061.04c.019.011.038.022.058.031l.029.014c.037.018-.011,0,.011,0a.851.851,0,0,0,.131.041l.064.013c-.022,0,.007,0,.011,0l.032,0a.883.883,0,0,0,.144,0,.131.131,0,0,1,.131.13.134.134,0,0,1-.131.131" transform="translate(-81.52 -13.485)" fill="#090a1a"/>
              <path id="Path_1598" data-name="Path 1598" d="M114.195,31.065l.25.475,1.8,3.547-1.826.422Z" transform="translate(-75.921 -12.381)" fill="#ffcc94"/>
              <path id="Path_1600" data-name="Path 1600" d="M128.1,44.331l-1.756-.8.373,3.512Z" transform="translate(-95.078 -17.351)" fill="#090a1a"/>
              <path id="Path_1601" data-name="Path 1601" d="M147.42,84.392s-15.965,2.235-26.182-5.109c0,0,7.024-32.248,22.989-32.568,16.57-.331,11.814,23.308,3.193,37.676" transform="translate(-119.188 -18.618)" fill="#a37b90"/>
              <path id="Path_1602" data-name="Path 1602" d="M102.082,240.195l-6.426-.389-.37,9.9,2.924-.073-.16-1.117,3.832,1.277,15.485.159s-5.587-4.949-12.612-4.629Z" transform="translate(-65.668 -95.578)" fill="#f2422e"/>
              <path id="Path_1603" data-name="Path 1603" d="M146.145,240.195,141,239.806l-1.647,9.9,2.924-.073.479-1.117,4.47,1.277,14.208.159s-5.587-4.949-12.612-4.629Z" transform="translate(-136.233 -95.578)" fill="#f2422e"/>
              <path id="Path_1604" data-name="Path 1604" d="M137.549,105.977s-15.645.958-26.182-5.109c0,0-4.151,9.9-.639,23.627s7.982,36.718.639,61.623c0,0,2.874,2.874,10.537,1.6,0,0,11.175-25.862,10.537-43.1,0,0,8.94,15.645,5.109,43.1,0,0,5.747,2.235,10.856.319a113.836,113.836,0,0,0,4.151-26.5c.319-13.73-2.874-29.055-7.663-38.953s-6.7-9.26-7.344-16.6" transform="translate(-109.318 -40.202)" fill="#6876aa"/>
              <path id="Path_1605" data-name="Path 1605" d="M157.832,155.794c-.254-5.206-5.338-9.168-8.26-13.484s-6.514-9.156-6.545-14.368c0,0-1.756,7.344,4.311,19.8,4.942,10.144,8.621,23.627,5.747,34.8,0,0,5.345-14.54,4.748-26.747" transform="translate(-134.751 -50.993)" fill="#090a1a"/>
              <path id="Path_1606" data-name="Path 1606" d="M154.476,117.541a23.759,23.759,0,0,1-8.828-.4,23.432,23.432,0,0,1-2.437-.721c-.175-.062-.1-.343.078-.281a23.449,23.449,0,0,0,8.618,1.336,23.2,23.2,0,0,0,2.492-.22c.183-.026.263.254.078.281" transform="translate(-131.647 -46.287)" fill="#eeeff2"/>
              <path id="Path_1607" data-name="Path 1607" d="M154.79,121.253a17.949,17.949,0,0,1-11.088-.97c-.171-.074-.023-.325.147-.251a17.82,17.82,0,0,0,8.525,1.348,13.749,13.749,0,0,0,2.338-.408.146.146,0,0,1,.078.281" transform="translate(-132.267 -47.835)" fill="#eeeff2"/>
              <path id="Path_1608" data-name="Path 1608" d="M175.514,113.208a9.868,9.868,0,0,1-5.811-1.984c-.148-.112,0-.364.147-.251a9.612,9.612,0,0,0,5.664,1.944.146.146,0,0,1,0,.291" transform="translate(-168.676 -44.218)" fill="#eeeff2"/>
              <path id="Path_1609" data-name="Path 1609" d="M177.271,116.755a7.728,7.728,0,0,1-4.413-1.795c-.144-.121.063-.326.206-.206a7.4,7.4,0,0,0,4.207,1.709c.186.013.187.3,0,.291" transform="translate(-172.337 -45.722)" fill="#eeeff2"/>
              <path id="Path_1610" data-name="Path 1610" d="M115.711,109.772a22.841,22.841,0,0,0,1.521,8.048,58.339,58.339,0,0,0,3.478,7.136,79.555,79.555,0,0,1,3.789,7.671,53.551,53.551,0,0,1,2.052,6.1,88.243,88.243,0,0,1,2.564,13.556,107.094,107.094,0,0,1,.543,17.344,108.625,108.625,0,0,1-2.791,19.734q-.3,1.268-.632,2.528a.146.146,0,0,1-.281-.078,108.259,108.259,0,0,0,3.291-20.1,107.834,107.834,0,0,0-.231-17.617,91.039,91.039,0,0,0-2.434-14.136c-.475-1.833-1.016-3.651-1.659-5.433a60.833,60.833,0,0,0-3.775-8.151c-2.477-4.605-5.124-9.194-5.629-14.505-.066-.7-.1-1.4-.1-2.1a.146.146,0,0,1,.291,0" transform="translate(-90.2 -43.695)" fill="#eeeff2"/>
              <path id="Path_1611" data-name="Path 1611" d="M135.2,116.17a4.749,4.749,0,0,1-.6,2.4,4.328,4.328,0,0,1-1.654,1.813c-.164.091-.312-.161-.147-.251a4.057,4.057,0,0,0,1.549-1.709,4.452,4.452,0,0,0,.56-2.256c-.01-.187.281-.187.291,0" transform="translate(-106.026 -46.245)" fill="#eeeff2"/>
              <path id="Path_1612" data-name="Path 1612" d="M133.7,119.915a5.939,5.939,0,0,1-2.546,3.989c-.156.105-.3-.147-.147-.251a5.661,5.661,0,0,0,2.412-3.815c.028-.185.309-.106.281.078" transform="translate(-103.44 -47.721)" fill="#eeeff2"/>
              <path id="Path_1613" data-name="Path 1613" d="M70.873,61.626S70,83.1,84.393,88.877a38.393,38.393,0,0,0,25.928.693l4.379-6.819s-3.009-3.268-9.28-3.031c-12.555.475-21-.286-20.351-18.257.346-9.574-2.8-13.836-8.417-14.1s-5.78,14.264-5.78,14.264" transform="translate(-48.312 -18.875)" fill="#ffcc94"/>
              <path id="Path_1614" data-name="Path 1614" d="M126.57,47.356s7.166-.685,8.352,8.489c.724,5.6.429,11.026.8,14.324a49.788,49.788,0,0,1-14.478,2.012s-7.877-24.674,5.329-24.825" transform="translate(-98.229 -18.87)" fill="#a37b90"/>
              <path id="Path_1615" data-name="Path 1615" d="M74.86,106.691l.1-.166a1,1,0,0,0-.323-1.374l-3.086-1.911a1,1,0,0,0-1.374.323l-.1.166A1,1,0,0,0,70.4,105.1l3.087,1.911a1,1,0,0,0,1.374-.323" transform="translate(-8.162 -41.088)" fill="#ffcc94"/>
              <path id="Path_1616" data-name="Path 1616" d="M76.439,109.88l.1-.166a1,1,0,0,0-.323-1.374l-3.086-1.911a1,1,0,0,0-1.374.323l-.1.166a1,1,0,0,0,.322,1.374l3.087,1.911a1,1,0,0,0,1.374-.323" transform="translate(-10.691 -42.359)" fill="#ffcc94"/>
              <path id="Path_1617" data-name="Path 1617" d="M78.087,112.823l.1-.166a1,1,0,0,0-.323-1.374l-3.087-1.911a1,1,0,0,0-1.374.323l-.1.166a1,1,0,0,0,.324,1.374l3.086,1.911a1,1,0,0,0,1.374-.323" transform="translate(-13.33 -43.532)" fill="#ffcc94"/>
              <path id="Path_1618" data-name="Path 1618" d="M79.7,116.135l.1-.166a1,1,0,0,0-.323-1.374l-3.087-1.911a1,1,0,0,0-1.374.323l-.1.166a1,1,0,0,0,.323,1.374l3.086,1.911a1,1,0,0,0,1.374-.323" transform="translate(-15.906 -44.852)" fill="#ffcc94"/>
              <path id="Path_1619" data-name="Path 1619" d="M140.5,92.639l-.319,3.938s-9.259-10.218-6.385-26.5c0,0,.425,14.9,6.7,22.563" transform="translate(-111.632 -27.93)" fill="#090a1a"/>
              <path id="Path_1621" data-name="Path 1621" d="M134.321,25.551c.884.649,2.132-.128,2.755-1.03s1.108-2.035,2.133-2.426a14.688,14.688,0,0,1,1.923-.294,2.989,2.989,0,0,0,2.11-3.311,3.639,3.639,0,0,0-2.883-2.854c-.782-.155-1.6-.075-2.371-.279A12.316,12.316,0,0,1,134.9,13.5c-2.134-1.327-5.554-1.046-6.477,1.291-.379.961-.312,2.165-1.081,2.855a3.561,3.561,0,0,1-2.007.631c-2.405.3-5.181,1.583-5.374,4-.147,1.824,1.3,3.622.748,5.365-.616,1.932-3.271,2.483-4.167,4.3-1.18,2.4,1.344,5.082,1.146,7.745-.111,1.5-1.065,2.771-1.848,4.051a7.057,7.057,0,0,0-1.3,4.938c.349,1.709,2.2,3.172,3.828,2.54,2.076-.808,2.055-3.914,3.76-5.349,1.424-1.2,3.56-.867,5.322-1.471a5.314,5.314,0,0,0,2.914-7.08c-.554-1.117-1.549-2.2-1.276-3.416.249-1.108,1.421-1.689,2.319-2.383a6.619,6.619,0,0,0,2.442-6.132" transform="translate(-103.106 -5.064)" fill="#090a1a"/>
              <path id="Path_1622" data-name="Path 1622" d="M128.024,32.042a2,2,0,1,1,1.35,2.482,2,2,0,0,1-1.35-2.482" transform="translate(-99.88 -12.2)" fill="#ffcc94"/>
              <path id="Path_1623" data-name="Path 1623" d="M129.841,32.187a1.3,1.3,0,0,1,1.109,1.528c-.035.164-.286.094-.251-.069a1.039,1.039,0,0,0-.858-1.2.134.134,0,0,1-.13-.13.131.131,0,0,1,.13-.131" transform="translate(-99.983 -12.828)" fill="#090a1a"/>
              <path id="Path_1624" data-name="Path 1624" d="M133.257,79.849a59.346,59.346,0,0,1-10.9,1.806q-1.59.1-3.184.118a.146.146,0,0,1,0-.291,56.068,56.068,0,0,0,10.94-1.194q1.543-.323,3.069-.719a.145.145,0,0,1,.078.28" transform="translate(-95.941 -31.711)" fill="#eeeff2"/>
              <path id="Path_1625" data-name="Path 1625" d="M.034,28.675a30.1,30.1,0,1,1,28.64,31.489A30.1,30.1,0,0,1,.034,28.675m29,23.978A22.579,22.579,0,1,0,7.546,29.031,22.58,22.58,0,0,0,29.031,52.653" transform="translate(48.808 0)" fill="#68b6d8"/>
              <path id="Path_1629" data-name="Path 1629" d="M167.445,112.74a31.813,31.813,0,0,0-.625,5.717.146.146,0,0,1-.292,0,32.3,32.3,0,0,1,.636-5.795c.037-.183.318-.106.281.078" transform="translate(-158.596 -44.861)" fill="#eeeff2"/>
              <path id="Path_1630" data-name="Path 1630" d="M165.656,106.166q-.359,1.044-.645,2.11a.146.146,0,0,1-.281-.078q.286-1.066.645-2.11c.061-.176.342-.1.281.078" transform="translate(-155.729 -42.243)" fill="#eeeff2"/>
              <path id="Path_1719" data-name="Path 1719" d="M383.809,94.437a.2.2,0,0,1-.154-.075,1.337,1.337,0,0,0-.778-.492.62.62,0,0,0-.489.211.194.194,0,0,1-.274-.276,1,1,0,0,1,.79-.323,1.706,1.706,0,0,1,1.059.642.2.2,0,0,1-.035.272.2.2,0,0,1-.119.04" transform="translate(-346.316 -74.796)"/>
              <path id="Path_1720" data-name="Path 1720" d="M389.816,112.991a.2.2,0,0,1-.195-.2l.058-1.294a.193.193,0,0,1,.069-.139l.6-.5a.194.194,0,1,1,.251.3l-.53.447-.053,1.209a.2.2,0,0,1-.195.186" transform="translate(-353.176 -90.51)"/>
            </g>
          </g>
        </g>
      </g>
      <g id="Group_961" data-name="Group 961" transform="translate(114.95)">
        <path id="Path_1631" data-name="Path 1631" d="M485.635,1833.869,481.8,1828.3l13.325-8.987,5.841,5.032-8.944,10.424Z" transform="translate(-428.917 -1619.615)" fill="#f48462"/>
        <path id="Path_1632" data-name="Path 1632" d="M142.9,1902.08l.183,9.705-17.159-.18.73-10.424Z" transform="translate(-112.1 -1692.499)" fill="#f48462"/>
        <g id="Group_960" data-name="Group 960" transform="translate(0 0)">
          <g id="Group_959" data-name="Group 959" clip-path="url(#clip-path-7)">
            <path id="Path_1633" data-name="Path 1633" d="M142.813,1954.71a.685.685,0,0,0,.561-.81c-.313-1.85-1.425-7.019-4.35-9.212-3.6-2.7-11.129-3.774-13.869-5.572s-5.8-6.136-7.44-5.315-4.717,4.6-9.168,4.057-6.506-1.618-7.7-.539-1.883,16.176-1.37,17.074,6.784.068,7.33.214,2.087-3.449,3.114-2.91,2.281,2.225,3.794,3c1.412.723,24.614.615,29.1.013" transform="translate(-88.4 -1721.448)" fill="#5d2866"/>
            <path id="Path_1634" data-name="Path 1634" d="M88.585,1079.6l-2.19-41.159-26.833-.18a116.594,116.594,0,0,0-4.2,20.849c-.913,10.245-3.286,75.307-2.921,76.206s30.119,1.977,31.944.9,4.2-56.615,4.2-56.615" transform="translate(-46.652 -924.298)" fill="#9792e0"/>
            <path id="Path_1635" data-name="Path 1635" d="M544.885,1816.835a.678.678,0,0,0,.008-.983c-1.315-1.358-5.186-5.019-8.882-5.205-4.542-.229-11.456,3.076-14.77,3.114s-8.347-1.847-9.247-.256-1.329,6.435-5.359,8.469-6.362,2.286-6.75,3.847,7.632,14.446,8.573,14.9,5.713-3.724,6.252-3.907-.218-4.019.948-4.145,3.174.572,4.881.37c1.593-.188,20.935-13.207,24.346-16.206" transform="translate(-445.003 -1611.892)" fill="#5d2866"/>
            <path id="Path_1636" data-name="Path 1636" d="M340.164,1036.625s31.579,81.778,31.214,83.575-24.46,14.558-25.92,14.558-12.048-18.512-12.048-18.512l-1.278-79.441Z" transform="translate(-295.676 -922.84)" fill="#9792e0"/>
            <path id="Path_1637" data-name="Path 1637" d="M280.337,1972.72a.235.235,0,0,1-.134-.428l4.167-2.885a.235.235,0,1,1,.268.386l-4.167,2.885a.232.232,0,0,1-.134.042" transform="translate(-249.357 -1753.198)" fill="#fff"/>
            <path id="Path_1638" data-name="Path 1638" d="M318.3,1991.362a.235.235,0,0,1-.142-.422l3.274-2.481a.235.235,0,1,1,.284.375l-3.274,2.481a.231.231,0,0,1-.142.048" transform="translate(-283.149 -1770.153)" fill="#fff"/>
            <path id="Path_1639" data-name="Path 1639" d="M658.5,1842.793a.235.235,0,0,1-.2-.363l2.762-4.249a.235.235,0,1,1,.394.256l-2.762,4.249a.236.236,0,0,1-.2.107" transform="translate(-586.014 -1636.318)" fill="#fff"/>
            <path id="Path_1640" data-name="Path 1640" d="M708.975,1837.361a.235.235,0,0,1-.2-.354l2.089-3.537a.235.235,0,1,1,.4.239l-2.089,3.537a.233.233,0,0,1-.2.116" transform="translate(-630.945 -1632.116)" fill="#fff"/>
            <path id="Path_1641" data-name="Path 1641" d="M125.3,1091.677a5.787,5.787,0,0,1-1.342-.16.235.235,0,0,1-.175-.283.232.232,0,0,1,.283-.174c5.072,1.188,8.282-5.349,8.314-5.416a.235.235,0,1,1,.423.2c-.031.063-2.865,5.828-7.5,5.828" transform="translate(-110.19 -966.361)" fill="#8b558e"/>
            <path id="Path_1642" data-name="Path 1642" d="M112.069,1222.092a.236.236,0,0,1-.235-.238c0-.325.352-32.759,1.311-51.982s3.094-34.932,3.116-35.088a.241.241,0,0,1,.265-.2.236.236,0,0,1,.2.265c-.022.157-2.152,15.841-3.112,35.048s-1.307,51.639-1.31,51.965a.236.236,0,0,1-.235.232" transform="translate(-99.558 -1010.044)" fill="#8b558e"/>
            <path id="Path_1643" data-name="Path 1643" d="M333.409,1209.486a.235.235,0,0,1-.235-.224l-3.183-66.933a.235.235,0,0,1,.105-.207l7.077-4.671a.235.235,0,0,1,.259.392l-6.965,4.6,3.176,66.8a.236.236,0,0,1-.224.247Z" transform="translate(-293.77 -1012.564)" fill="#8b558e"/>
            <path id="Path_1644" data-name="Path 1644" d="M368.632,1677.414a.235.235,0,0,1-.2-.117l-16.076-27.385a.235.235,0,1,1,.405-.237l16.076,27.385a.235.235,0,0,1-.2.354" transform="translate(-313.648 -1468.497)" fill="#8b558e"/>
            <path id="Path_1645" data-name="Path 1645" d="M113.985,630.644s6.828.31,9.534,5.78,4.753,38.072,4.753,38.072a48.618,48.618,0,0,1-18.618,3.2c-11.048-.144-14.784-3.007-14.784-3.007l-2.125-20.1s.887-21.19,3.641-22.676,13.026-2.441,17.6-1.265" transform="translate(-82.566 -560.953)" fill="#40507f"/>
            <path id="Path_1646" data-name="Path 1646" d="M149.369,409.352s3.471-6.72.192-7.927-6.881,2.581-6.881,2.581-7.107,1.055-9.6,5.041,4.581,10.295,4.581,10.295Z" transform="translate(-118.005 -357.152)"/>
            <path id="Path_1647" data-name="Path 1647" d="M191.29,579.122l-.019,6.606s1.186,1.9,5.049,2.228c2.878.242,3.891-.405,3.891-.405l-.392-3.347-.386-3.264-6.974-1.555Z" transform="translate(-170.276 -515.555)" fill="#f48462"/>
            <path id="Path_1648" data-name="Path 1648" d="M202.106,581.511a2.166,2.166,0,0,0,.19.638c1.469,3.3,5.507,4.028,7.17,4.181l-.386-3.264Z" transform="translate(-179.922 -517.682)"/>
            <path id="Path_1649" data-name="Path 1649" d="M163.222,438.57s3.443,8.292,2.063,12.89-5.577,3.793-8.08,2.853a8.34,8.34,0,0,1-3.644-2.506,3.552,3.552,0,0,1-3.9-1.463c-1.534-2.217-.518-4.713.836-5.264a3.7,3.7,0,0,1,2.934.449l-1.208-2.414s5.493-12.052,11-4.545" transform="translate(-132.547 -388.239)" fill="#f48462"/>
            <path id="Path_1650" data-name="Path 1650" d="M161.938,532.927a.234.234,0,0,1-.138-.045l-2.97-2.149a.235.235,0,1,1,.275-.38l2.97,2.149a.235.235,0,0,1-.138.425" transform="translate(-141.31 -472.099)"/>
            <path id="Path_1651" data-name="Path 1651" d="M161.309,545.9a.235.235,0,0,1-.058-.463l1.961-.5a.235.235,0,0,1,.116.456l-1.961.5a.244.244,0,0,1-.058.007" transform="translate(-143.394 -485.119)"/>
            <path id="Path_1652" data-name="Path 1652" d="M266.282,513.719a.242.242,0,0,1-.233-.271,3.39,3.39,0,0,0-1.009-3.1.235.235,0,0,1,.3-.364,3.859,3.859,0,0,1,1.176,3.537.235.235,0,0,1-.232.2" transform="translate(-235.871 -453.958)"/>
            <path id="Path_1653" data-name="Path 1653" d="M281.763,498.109a.236.236,0,0,1-.227-.174l-.409-1.516a.235.235,0,0,1,.454-.122l.409,1.516a.235.235,0,0,1-.166.288.242.242,0,0,1-.061.008" transform="translate(-250.261 -441.666)"/>
            <path id="Path_1654" data-name="Path 1654" d="M243.677,500.673a.235.235,0,0,1-.227-.174l-.409-1.516a.235.235,0,1,1,.454-.122l.409,1.516a.235.235,0,0,1-.166.288.247.247,0,0,1-.061.008" transform="translate(-216.356 -443.95)"/>
            <path id="Path_1655" data-name="Path 1655" d="M177.944,425.928a2.789,2.789,0,0,0-2.361-1.346,3.563,3.563,0,0,0-2.614,1.142,4.054,4.054,0,0,1-1.53,4.245,5.476,5.476,0,0,1-3.978,1.05l-1.624-.584-1.185-2.378L169.369,423l6.1-3.195,3.093,2.825Z" transform="translate(-146.579 -373.728)"/>
            <path id="Path_1656" data-name="Path 1656" d="M163.17,406.931s-.2-3.656-4.048-2.05-3.546,6.594-3.546,6.594Z" transform="translate(-138.495 -360.076)"/>
            <path id="Path_1657" data-name="Path 1657" d="M276.436,473.481c-.023,0-1.277-.119-1.277-.119a.235.235,0,0,1,.044-.468l1.255.118a.235.235,0,0,1-.022.469" transform="translate(-244.766 -420.986)"/>
            <path id="Path_1658" data-name="Path 1658" d="M235.189,484.026a.235.235,0,0,1-.094-.451l1.694-.737a.235.235,0,1,1,.187.431l-1.694.737a.231.231,0,0,1-.094.02" transform="translate(-209.164 -429.823)"/>
            <path id="Path_1659" data-name="Path 1659" d="M280.9,549.144a.235.235,0,0,1-.2-.362l.936-1.466a.235.235,0,1,1,.4.253l-.936,1.466a.235.235,0,0,1-.2.108" transform="translate(-249.854 -487.145)"/>
            <path id="Path_1660" data-name="Path 1660" d="M18.073,635.809s-10.182,0-15.768,16.285A38.841,38.841,0,0,0,.268,669.735L17.69,663.2Z" transform="translate(0 -566.02)" fill="#40507f"/>
            <path id="Path_1661" data-name="Path 1661" d="M339.034,654.921s-.8-5.215-1.8-9.875-2.156-11.719-2.156-11.719l5.084-5.982s10.206,12.015,12.876,23.2.689,14.6-5.01,13.907c-6.751-.818-9-9.526-9-9.526" transform="translate(-298.299 -558.485)" fill="#f48462"/>
            <path id="Path_1662" data-name="Path 1662" d="M24.179,864.263s1.427,8.589,13.689,9.425c9.832.67,26.324-4.386,26.324-4.386s7.817.119,9.942-.856,2.406-2.307,2.406-2.307,1.452-1.383,1.371-2.132S77,859.876,77,859.876s1.178-2.791.1-2.938l-2.932-.4s-3.472-1.529-4.976-1.1-5.491,4.1-5.491,4.1l-24.486-.882Z" transform="translate(-21.525 -761.473)" fill="#f99178"/>
            <path id="Path_1663" data-name="Path 1663" d="M159,826.447a.235.235,0,0,1-.235-.234l-.032-7.057a.235.235,0,0,1,.47,0l.031,7.057a.235.235,0,0,1-.234.236Z" transform="translate(-141.31 -729.031)" fill="#fff"/>
            <path id="Path_1664" data-name="Path 1664" d="M190.5,636.733c-.389,0-.814-.014-1.278-.045A6.956,6.956,0,0,1,184,634.036a.235.235,0,0,1,.389-.264,6.61,6.61,0,0,0,4.86,2.445c3.332.23,4.577-.5,4.589-.511a.235.235,0,0,1,.248.4,7.3,7.3,0,0,1-3.591.626" transform="translate(-163.768 -564.115)" fill="#fff"/>
            <path id="Path_1665" data-name="Path 1665" d="M298.926,542.847s-3-10.6-4.568-10.416-4.684,3.321-5.319,4.47a3.336,3.336,0,0,0,0,2.611s-.618.776,0,1.276,2.394-.562,2.394-.562-1.567,7.851,3.029,8.791,4.463-6.17,4.463-6.17" transform="translate(-257.062 -473.987)" fill="#f48462"/>
            <path id="Path_1666" data-name="Path 1666" d="M432.083,861.221a.235.235,0,0,1-.066-.461l3.793-1.12a.238.238,0,0,1,.292.159.235.235,0,0,1-.159.292l-3.793,1.12a.245.245,0,0,1-.066.01" transform="translate(-384.446 -765.274)"/>
            <path id="Path_1667" data-name="Path 1667" d="M493.937,888.192a.235.235,0,0,1-.112-.442l1.336-.727a.235.235,0,0,1,.225.413l-1.336.727a.232.232,0,0,1-.112.029" transform="translate(-439.51 -789.634)"/>
            <path id="Path_1668" data-name="Path 1668" d="M289.423,567.6a.235.235,0,0,1-.145-.42l3.438-2.694a.235.235,0,0,1,.29.37l-3.438,2.694a.233.233,0,0,1-.145.05" transform="translate(-257.445 -502.483)"/>
            <path id="Path_1669" data-name="Path 1669" d="M294.1,549.572a.235.235,0,0,1-.128-.432l2.925-1.891a.235.235,0,1,1,.255.395l-2.925,1.891a.235.235,0,0,1-.128.038" transform="translate(-261.609 -487.147)"/>
            <path id="Path_1670" data-name="Path 1670" d="M309.228,15.426a7.707,7.707,0,0,0-12.669-5.9A7.7,7.7,0,0,0,282.5,3.69a7.7,7.7,0,1,0-13.1,8.112,7.72,7.72,0,1,0-1.234,14.99,7.7,7.7,0,0,0,13.2,7.942,7.706,7.706,0,0,0,14.5-2.9,7.7,7.7,0,0,0,10.823-10.707,7.682,7.682,0,0,0,2.533-5.7" transform="translate(-230.925 -0.005)" fill="#59acc9"/>
            <path id="Path_1671" data-name="Path 1671" d="M417.123,377.848a2.682,2.682,0,1,1-2.682-2.682,2.682,2.682,0,0,1,2.682,2.682" transform="translate(-366.562 -333.986)" fill="#59acc9"/>
            <path id="Path_1672" data-name="Path 1672" d="M350.952,438.65a2.057,2.057,0,1,1-2.057-2.057,2.057,2.057,0,0,1,2.057,2.057" transform="translate(-308.767 -388.671)" fill="#59acc9"/>
            <path id="Path_1673" data-name="Path 1673" d="M486.984,108.293c.355-1.284-.5-2.461-2.27-2.95a4.486,4.486,0,0,0-4.227.731l-1.825-2.062a7.571,7.571,0,0,1,6.99-1.076c3.371.934,5.193,3.092,4.462,5.73-1.035,3.738-5.052,3-5.8,5.7l-2.912-.807c.94-3.395,4.948-2.976,5.583-5.27m-6.973,8.86a1.892,1.892,0,1,1,1.339,2.3,1.84,1.84,0,0,1-1.339-2.3" transform="translate(-426.122 -91.298)" fill="#fff"/>
            <path id="Path_1674" data-name="Path 1674" d="M380.841,137.5c-.266-.938-1.251-1.347-2.541-.982a3.282,3.282,0,0,0-2.365,2.064l-1.925-.6a5.54,5.54,0,0,1,3.962-3.33c2.462-.7,4.422-.041,4.968,1.886.774,2.731-2.02,3.794-1.46,5.772l-2.128.6c-.7-2.48,1.962-3.742,1.488-5.418m-.992,8.191a1.385,1.385,0,1,1,1.711.927,1.346,1.346,0,0,1-1.711-.927" transform="translate(-332.957 -119.639)" fill="#fff"/>
          </g>
        </g>
      </g>
      <g id="Group_964" data-name="Group 964" transform="translate(173.27 60.634)">
        <path id="Path_1675" data-name="Path 1675" d="M549.807,915.55l-.574,6.39H536.959V914.7Z" transform="translate(-486.968 -829.544)" fill="#ffa98f"/>
        <path id="Path_1676" data-name="Path 1676" d="M296.128,918.5l-1.239,6.408-13.51-3.2,2.36-7Z" transform="translate(-255.183 -829.544)" fill="#ffa98f"/>
        <g id="Group_963" data-name="Group 963" transform="translate(0 0)">
          <g id="Group_962" data-name="Group 962" clip-path="url(#clip-path-8)">
            <path id="Path_1677" data-name="Path 1677" d="M112.148,1.493a6.872,6.872,0,0,0-7.811-.543c-4.588,2.413-4.017,9.284-4.017,9.284a8.591,8.591,0,0,0-5.219,7.61c-.4,5.9,6.376,8.2,6.376,8.2l11.532-1.816s2.3-3.431,2.285-3.558.457-14.341.457-14.341Z" transform="translate(-86.233 -0.002)"/>
            <path id="Path_1678" data-name="Path 1678" d="M211.482,253.055s-2.041-22.451-10.36-25.9c-10.9-4.517-21.371.108-21.371.108l.593,29.556Z" transform="translate(-163.016 -204.213)" fill="#ee8569"/>
            <path id="Path_1679" data-name="Path 1679" d="M465.764,510.905s17.751-4.32,22.619,3.181-1.939,36.124-1.939,36.124H470.1Z" transform="translate(-422.401 -462.217)" fill="#59acc9"/>
            <path id="Path_1680" data-name="Path 1680" d="M25.157,522.839s-3.7,17.174,3.711,19.939,24.482-.514,24.482-.514l-6.927,12.224,22.28,6.6s18.5-33.407,7.24-42.311-34.964,4.061-34.964,4.061Z" transform="translate(-21.978 -467.648)" fill="#68b6d8"/>
            <path id="Path_1681" data-name="Path 1681" d="M535.32,955.509s4.248,5.013,5.236,5.489,11.287,3.944,13.262,5.878,2.116,5.735,1.552,6.092-34.444,0-34.444,0l-.355-16.337Z" transform="translate(-472.105 -866.551)" fill="#968bd6"/>
            <path id="Path_1682" data-name="Path 1682" d="M240.451,951.5s1.729,6.716,3.123,7.423a53.289,53.289,0,0,1,10.645,7.884c2.731,2.864,0,4.508,0,4.508H235.343l-16.226-11.92,5.8-12.4Z" transform="translate(-198.717 -858.829)" fill="#9792e0"/>
            <path id="Path_1683" data-name="Path 1683" d="M678.769,992.433s-4.725,5.416-3.644,5.856,10.2-.957,9.969-1.933-5.231-4-6.325-3.923" transform="translate(-612.125 -900.036)" fill="#fff"/>
            <path id="Path_1684" data-name="Path 1684" d="M416.195,1039.044s-6.056,3.87-5.143,4.6,10.063,1.949,10.111.946-3.9-5.311-4.968-5.542" transform="translate(-372.698 -942.308)" fill="#fff"/>
            <path id="Path_1685" data-name="Path 1685" d="M285.976,174.76l-.752,4.813s.765,1.562,3.913,2.371a6.358,6.358,0,0,0,3.252.28l.05-2.5.045-2.436-5.574-2.165Z" transform="translate(-258.669 -158.49)" fill="#ffad94"/>
            <path id="Path_1686" data-name="Path 1686" d="M303.273,178.823a1.819,1.819,0,0,0,.069.554c.758,2.934,4,4.09,5.35,4.446l.131-2.752Z" transform="translate(-275.036 -162.175)"/>
            <path id="Path_1687" data-name="Path 1687" d="M270.21,46.161s1.7,7.331-.073,10.941-5.134,2.366-7.074,1.244a6.991,6.991,0,0,1-2.667-2.575,2.977,2.977,0,0,1-3.024-1.748c-.962-2.045.222-3.968,1.417-4.236a3.1,3.1,0,0,1,2.364.776l-.666-2.162s6.2-9.206,9.722-2.239" transform="translate(-233.091 -39.5)" fill="#ffad94"/>
            <path id="Path_1688" data-name="Path 1688" d="M376.229,131.117a.194.194,0,0,1-.172-.286,3.556,3.556,0,0,0-.053-2.737.195.195,0,0,1,.355-.159,3.884,3.884,0,0,1,.041,3.079.2.2,0,0,1-.172.1" transform="translate(-340.983 -115.92)"/>
            <path id="Path_1689" data-name="Path 1689" d="M276.053,125.886a.194.194,0,0,1-.164-.09l-1.464-2.3a.195.195,0,1,1,.328-.209l1.464,2.3a.194.194,0,0,1-.164.3" transform="translate(-248.849 -111.724)"/>
            <path id="Path_1690" data-name="Path 1690" d="M271.79,138.732l-1.317-.053a.195.195,0,0,1,.015-.389l1.309.053a.195.195,0,0,1-.008.389" transform="translate(-245.122 -125.416)"/>
            <path id="Path_1691" data-name="Path 1691" d="M393.8,325.22a.195.195,0,0,1-.156-.311,24.887,24.887,0,0,0,2.781-5.123c1.874-4.651.012-11.621-.006-11.691a.194.194,0,1,1,.374-.1c.079.29,1.916,7.165-.006,11.939a25.343,25.343,0,0,1-2.832,5.211.2.2,0,0,1-.156.077" transform="translate(-356.959 -279.189)" fill="#fff"/>
            <path id="Path_1692" data-name="Path 1692" d="M337.418,160.831a1.258,1.258,0,0,1-.783-.262,2.533,2.533,0,0,1-.884-1.634.2.2,0,0,1,.088-.182.189.189,0,0,1,.2-.006l2.478,1.39a.194.194,0,0,1,.016.329,2.194,2.194,0,0,1-1.116.365m-1.187-1.531a1.961,1.961,0,0,0,.64.961,1.136,1.136,0,0,0,1.146.041Z" transform="translate(-304.492 -143.944)"/>
            <path id="Path_1693" data-name="Path 1693" d="M341.352,93.716a.194.194,0,0,1-.153-.314,1.52,1.52,0,0,1,1.732-.325.195.195,0,1,1-.152.358c-.034-.015-.84-.347-1.274.207a.2.2,0,0,1-.153.074" transform="translate(-309.396 -84.283)"/>
            <path id="Path_1694" data-name="Path 1694" d="M383.809,94.437a.2.2,0,0,1-.154-.075,1.337,1.337,0,0,0-.778-.492.62.62,0,0,0-.489.211.194.194,0,0,1-.274-.276,1,1,0,0,1,.79-.323,1.706,1.706,0,0,1,1.059.642.2.2,0,0,1-.035.272.2.2,0,0,1-.119.04" transform="translate(-346.487 -84.778)"/>
            <path id="Path_1695" data-name="Path 1695" d="M389.816,112.991a.2.2,0,0,1-.195-.2l.058-1.294a.193.193,0,0,1,.069-.139l.6-.5a.194.194,0,1,1,.251.3l-.53.447-.053,1.209a.2.2,0,0,1-.195.186" transform="translate(-353.347 -100.491)"/>
            <path id="Path_1696" data-name="Path 1696" d="M348.966,107.935a.2.2,0,0,1-.194-.207l.083-1.292a.194.194,0,0,1,.086-.15l.837-.558a.195.195,0,0,1,.216.324l-.757.5-.077,1.2a.194.194,0,0,1-.194.182" transform="translate(-316.301 -95.856)"/>
            <path id="Path_1697" data-name="Path 1697" d="M254.916,16.077s3.416-.456,4.874-2.735,1.379-3.366,1.379-3.366a6.475,6.475,0,0,1,2.283,2.254,8.089,8.089,0,0,1,.7,1.953s.566-2.74.275-3.579-1.883-5.541-8.44-4.967c-9.944.871-5.9,8.943-1.071,10.441" transform="translate(-226.595 -5.067)"/>
            <path id="Path_1698" data-name="Path 1698" d="M272.833,442.842s.3-.133,1.587-.592c1.216-.435,5.6-.1,5.6-.1a36.855,36.855,0,0,1,6.994,1.818c3.178,1.255,2.746,2.687,2.746,2.687s2.047,1.075,1.29,1.979-4.013.353-4.013.353,4.147,1.169,2.566,2.215-6.868-.657-6.868-.657-7.837,3.621-10.71,1.084.805-8.785.805-8.785" transform="translate(-245.707 -400.873)" fill="#ffad94"/>
            <path id="Path_1699" data-name="Path 1699" d="M28.727,263.528,31.914,275.9S11.166,291.725,2.5,279.314s7.457-31.012,14.236-32.76S20.089,264.8,20.089,264.8Z" transform="translate(0 -223.501)" fill="#ee8569"/>
            <path id="Path_1700" data-name="Path 1700" d="M335.067,742.438a.2.2,0,0,1-.116-.038.2.2,0,0,1-.073-.2c.05-.206,1.258-5.039,3.242-5.9a1.544,1.544,0,0,1,1.436.092,1.18,1.18,0,0,1,.689,1.031c.025,1.915-4.87,4.863-5.078,4.988a.193.193,0,0,1-.1.028m3.677-5.885a1.172,1.172,0,0,0-.469.1c-1.469.636-2.536,3.926-2.891,5.164,1.556-.988,4.489-3.114,4.472-4.392a.808.808,0,0,0-.491-.7,1.257,1.257,0,0,0-.62-.177" transform="translate(-303.696 -667.626)" fill="#9792e0"/>
            <path id="Path_1701" data-name="Path 1701" d="M139.536,442.032a.195.195,0,0,1-.07-.376c4.5-1.741,13.209-1.467,13.577-1.453a.2.2,0,0,1,.188.2.222.222,0,0,1-.2.188c-.09,0-9-.285-13.423,1.427a.193.193,0,0,1-.07.013" transform="translate(-126.369 -399.199)" fill="#fff"/>
            <path id="Path_1702" data-name="Path 1702" d="M150.541,421.2c-1.48-.182-6.251-.846-6.495-1.809a.49.49,0,0,1,.259-.533c1.537-1.1,5.855,1.667,6.343,1.984a.195.195,0,0,1-.106.358m-5.292-2.212a1.226,1.226,0,0,0-.719.187c-.086.061-.111.106-.107.122.109.431,2.651,1.021,5.233,1.394a11.316,11.316,0,0,0-4.408-1.7" transform="translate(-130.623 -379.625)" fill="#fff"/>
            <path id="Path_1703" data-name="Path 1703" d="M290.33,227.407c-.926,0-5.214-.143-7.155-2.73a.195.195,0,0,1,.311-.233c2.014,2.685,6.954,2.572,7,2.573.115.019.2.082.2.189a.2.2,0,0,1-.189.2l-.171,0" transform="translate(-256.776 -203.478)" fill="#fff"/>
            <path id="Path_1704" data-name="Path 1704" d="M471.786,370.778h26.575l7.59-17.168H480.424a1.609,1.609,0,0,0-1.471.958Z" transform="translate(-427.862 -320.689)" fill="#fff"/>
            <path id="Path_1705" data-name="Path 1705" d="M496.582,370.778h26.575l6.774-15.322a1.315,1.315,0,0,0-1.2-1.846H504.172Z" transform="translate(-450.35 -320.689)" fill="#6876aa"/>
            <path id="Path_1706" data-name="Path 1706" d="M365.541,540.178h37.52a1.084,1.084,0,1,0,0-2.169h-37.52a1.084,1.084,0,0,0,0,2.169" transform="translate(-330.526 -487.92)"/>
            <path id="Path_1707" data-name="Path 1707" d="M410.9,465.112a.192.192,0,0,1-.1-.026,30.588,30.588,0,0,0-6.159-2.539.195.195,0,1,1,.107-.375A31.031,31.031,0,0,1,411,464.749a.195.195,0,0,1-.1.363" transform="translate(-366.843 -419.138)"/>
            <path id="Path_1708" data-name="Path 1708" d="M403.39,497.243a.2.2,0,0,1-.108-.032,11.214,11.214,0,0,0-4.311-1.682.2.2,0,0,1-.177-.211.189.189,0,0,1,.211-.177,11.408,11.408,0,0,1,4.493,1.745.195.195,0,0,1-.108.357" transform="translate(-361.666 -449.041)"/>
          </g>
        </g>
      </g>
    </g>
  </g>
</svg>
