<svg xmlns="http://www.w3.org/2000/svg" xmlns:xlink="http://www.w3.org/1999/xlink" width="146" height="64" viewBox="0 0 146 64">
  <defs>
    <clipPath id="clip-path">
      <rect id="Rectangle_1693" data-name="Rectangle 1693" width="146" height="64" transform="translate(600 493)" fill="#8cacd6" stroke="#707070" stroke-width="1"/>
    </clipPath>
    <clipPath id="clip-path-2">
      <rect id="Rectangle_1692" data-name="Rectangle 1692" width="83.042" height="156" fill="none"/>
    </clipPath>
  </defs>
  <g id="support-ic1" transform="translate(-600 -493)" clip-path="url(#clip-path)">
    <g id="Group_1055" data-name="Group 1055">
      <g id="server" transform="translate(604.548 505.983)">
        <path id="Path_4564" data-name="Path 4564" d="M105.675,124.729a1.919,1.919,0,0,1-2.076,2.192H50.076A1.919,1.919,0,0,1,48,124.729v-2.422c0-1.384.692-2.307,2.076-2.307H103.6c1.384,0,2.076.923,2.076,2.307Z" transform="translate(-34.233 -102.698)" fill="#112827"/>
        <path id="Path_4565" data-name="Path 4565" d="M77.21,18.917a3.548,3.548,0,0,1-3,3H11a3.548,3.548,0,0,1-3-3V2.653C8,1.269,9.73,0,11,0H74.21c1.269,0,3,1.269,3,2.653Z" fill="#6876aa"/>
        <g id="Group_1049" data-name="Group 1049" transform="translate(13.767 6.69)">
          <path id="Path_4567" data-name="Path 4567" d="M49.153,54.013c0,.231-.346.461-.577.461h0c-.231,0-.577-.231-.577-.461V46.861c0-.231.346-.461.577-.461h0c.231,0,.577.231.577.461Z" transform="translate(-48 -46.4)" fill="#bed7ee"/>
          <path id="Path_4568" data-name="Path 4568" d="M73.153,54.013c0,.231-.346.461-.577.461h0c-.231,0-.577-.231-.577-.461V46.861c0-.231.346-.461.577-.461h0c.231,0,.577.231.577.461Z" transform="translate(-68.54 -46.4)" fill="#bed7ee"/>
          <path id="Path_4569" data-name="Path 4569" d="M97.154,54.013c0,.231-.346.461-.577.461h0c-.231,0-.577-.231-.577-.461V46.861c0-.231.346-.461.577-.461h0c.231,0,.577.231.577.461Z" transform="translate(-89.079 -46.4)" fill="#bed7ee"/>
        </g>
        <g id="Group_1050" data-name="Group 1050" transform="translate(25.302 7.152)">
          <path id="Path_4570" data-name="Path 4570" d="M163.758,72.577a.545.545,0,0,1-.577.577h-34.6a.545.545,0,0,1-.577-.577h0a.545.545,0,0,1,.577-.577h34.489c.461,0,.692.231.692.577Z" transform="translate(-128 -68.77)" fill="#afbcb8"/>
          <circle id="Ellipse_81" data-name="Ellipse 81" cx="3.576" cy="3.576" r="3.576" transform="translate(31.952)" fill="#afbcb8"/>
        </g>
        <circle id="Ellipse_82" data-name="Ellipse 82" cx="1.73" cy="1.73" r="1.73" transform="translate(59.1 8.997)" fill="#1bcc73"/>
        <path id="Path_4571" data-name="Path 4571" d="M364.941,68.822a1.713,1.713,0,1,1-2.422-2.422" transform="translate(-302.958 -56.826)" fill="#36e88f"/>
        <path id="Path_4574" data-name="Path 4574" d="M105.675,285.075c0,1.384-.692,3-2.076,3H50.076c-1.384,0-2.076-1.615-2.076-3v-2.422c0-1.384.692-2.653,2.076-2.653H103.6c1.384,0,2.076,1.269,2.076,2.653Z" transform="translate(-34.233 -239.628)" fill="#112827"/>
        <path id="Path_4575" data-name="Path 4575" d="M77.21,179.263c0,1.384-1.73,2.653-3,2.653H11c-1.269,0-3-1.269-3-2.653V163a3.548,3.548,0,0,1,3-3H74.21a3.43,3.43,0,0,1,3,3v16.264Z" transform="translate(0 -136.93)" fill="#6876aa"/>
        <g id="Group_1051" data-name="Group 1051" transform="translate(13.767 30.106)">
          <path id="Path_4577" data-name="Path 4577" d="M49.153,216.413c0,.231-.346.461-.577.461h0c-.231.115-.577-.115-.577-.461v-7.152c0-.231.346-.461.577-.461h0c.231,0,.577.231.577.461Z" transform="translate(-48 -208.8)" fill="#bed7ee"/>
          <path id="Path_4578" data-name="Path 4578" d="M73.838,216.3a.5.5,0,0,1-.461.461h-.115a.5.5,0,0,1-.461-.461v-7.036a.5.5,0,0,1,.461-.461h.115a.5.5,0,0,1,.461.461Z" transform="translate(-69.224 -208.8)" fill="#bed7ee"/>
          <path id="Path_4579" data-name="Path 4579" d="M97.838,216.3a.5.5,0,0,1-.461.461h-.115a.5.5,0,0,1-.461-.461v-7.036a.5.5,0,0,1,.461-.461h.115a.5.5,0,0,1,.461.461Z" transform="translate(-89.764 -208.8)" fill="#bed7ee"/>
        </g>
        <g id="Group_1052" data-name="Group 1052" transform="translate(25.302 30.568)">
          <path id="Path_4580" data-name="Path 4580" d="M163.412,232.577a.545.545,0,0,1-.577.577H128.577a.545.545,0,0,1-.577-.577h0a.545.545,0,0,1,.577-.577h34.259a.545.545,0,0,1,.577.577Z" transform="translate(-128 -229.116)" fill="#afbcb8"/>
          <circle id="Ellipse_83" data-name="Ellipse 83" cx="3.576" cy="3.576" r="3.576" transform="translate(31.952)" fill="#afbcb8"/>
        </g>
        <circle id="Ellipse_84" data-name="Ellipse 84" cx="1.73" cy="1.73" r="1.73" transform="translate(59.1 32.413)" fill="#5c69a5"/>
        <path id="Path_4582" data-name="Path 4582" d="M426.66,226.53a1.73,1.73,0,1,1-1.73-1.73A1.774,1.774,0,0,1,426.66,226.53Z" transform="translate(-355.334 -192.387)" fill="#4affa8"/>
        <path id="Path_4583" data-name="Path 4583" d="M425.741,231.222a1.713,1.713,0,0,1-2.422-2.422" transform="translate(-354.991 -195.81)" fill="#36e88f"/>
        <path id="Path_4584" data-name="Path 4584" d="M105.675,452.268c0,1.384-.692,2.653-2.076,2.653H50.076c-1.384,0-2.076-1.269-2.076-2.653v-2.422c0-1.269.692-1.846,2.076-1.846H103.6c1.384,0,2.076.577,2.076,1.846Z" transform="translate(-34.233 -383.404)" fill="#112827"/>
        <path id="Path_4585" data-name="Path 4585" d="M77.21,346.456c0,1.384-1.73,2.307-3,2.307H11c-1.269,0-3-.923-3-2.307V330.192C8,328.808,9.73,328,11,328H74.21c1.384,0,3,.808,3,2.192v16.264Z" transform="translate(0 -280.707)" fill="#6876aa"/>
        <g id="Group_1053" data-name="Group 1053" transform="translate(13.767 53.522)">
          <path id="Path_4587" data-name="Path 4587" d="M49.153,378.813c0,.231-.346.461-.577.461h0c-.231.115-.577-.115-.577-.461v-7.152c0-.231.346-.461.577-.461h0c.231,0,.577.231.577.461Z" transform="translate(-48 -371.2)" fill="#bed7ee"/>
          <path id="Path_4588" data-name="Path 4588" d="M73.153,378.813c0,.231-.346.461-.577.461h0c-.231,0-.577-.231-.577-.461v-7.152c0-.231.346-.461.577-.461h0c.231,0,.577.231.577.461Z" transform="translate(-68.54 -371.2)" fill="#bed7ee"/>
          <path id="Path_4589" data-name="Path 4589" d="M97.154,378.813c0,.231-.346.461-.577.461h0c-.231,0-.577-.231-.577-.461v-7.152c0-.231.346-.461.577-.461h0c.231,0,.577.231.577.461Z" transform="translate(-89.079 -371.2)" fill="#bed7ee"/>
        </g>
        <g id="Group_1054" data-name="Group 1054" transform="translate(25.302 53.983)">
          <path id="Path_4590" data-name="Path 4590" d="M163.758,392.577a.545.545,0,0,1-.577.577h-34.6a.545.545,0,0,1-.577-.577h0a.545.545,0,0,1,.577-.577h34.489c.461,0,.692.231.692.577Z" transform="translate(-128 -389.462)" fill="#afbcb8"/>
          <circle id="Ellipse_85" data-name="Ellipse 85" cx="3.576" cy="3.576" r="3.576" transform="translate(31.952)" fill="#afbcb8"/>
        </g>
        <circle id="Ellipse_86" data-name="Ellipse 86" cx="1.73" cy="1.73" r="1.73" transform="translate(59.1 55.829)" fill="#5c69a5"/>
        <path id="Path_4592" data-name="Path 4592" d="M426.66,388.93a1.73,1.73,0,1,1-1.73-1.73A1.774,1.774,0,0,1,426.66,388.93Z" transform="translate(-355.334 -331.371)" fill="#4affa8"/>
      </g>
      <g id="Group_1048" data-name="Group 1048" transform="translate(656.958 506)">
        <g id="Group_1047" data-name="Group 1047" clip-path="url(#clip-path-2)">
          <path id="Path_4514" data-name="Path 4514" d="M84.827,13.472s-5.155-.934-6.171-2.935,8.749-.062,8.749-.062Z" transform="translate(-35.652 -4.37)" fill="#40507f"/>
          <path id="Path_4515" data-name="Path 4515" d="M18.914,35.838s1.063-2.4,5.252-2.115,6.25,9.739,6.25,9.739l-4.63,5.927S14.262,44.24,16.4,39.575s2.512-3.737,2.512-3.737" transform="translate(-7.321 -15.289)" fill="#f48462"/>
          <path id="Path_4516" data-name="Path 4516" d="M62.767,246.421v7.362l-13.378-.52v-6.841Z" transform="translate(-22.407 -111.798)" fill="#f7b369"/>
          <path id="Path_4517" data-name="Path 4517" d="M120.134,244.9v7.362l-12.383-.52V244.9Z" transform="translate(-48.885 -111.109)" fill="#f7b369"/>
          <path id="Path_4518" data-name="Path 4518" d="M60.512,96.465S53.5,110.526,47.774,135.882a292.054,292.054,0,0,0-6.343,42.256H64s2.511-18.857,3.18-26.318a167.346,167.346,0,0,1,2.894-17.449s3.1,43.038,3.837,43.767,22.346.161,22.115-.828-6.829-72.365-7.414-77.07c-1.8-14.466-28.1-3.774-28.1-3.774" transform="translate(-18.797 -42.039)" fill="#a37b90"/>
          <path id="Path_4519" data-name="Path 4519" d="M102.123,266.046c0,1.3.421,2.785,1.284,3.159s7.846,1.154,13.956.6c5.849-.53,7.063-.977,7.495-1.527.21-.281-.2-1.579-.673-2.837-.03-.062-.05-.135-.08-.2-.24-.634-.492-1.247-.672-1.683a7.349,7.349,0,0,0-.662-1.2,21.061,21.061,0,0,1-2.208-3.741c-.421-1.289-1.063-4.074-1.495-5.383a2.343,2.343,0,0,0-1.485-1.559s-12.03-.852-12.892-.1-1.284,6.869-1.284,7.794v.925a23.526,23.526,0,0,1-.943,3.98c-.1.353-.18.686-.24.987a4.187,4.187,0,0,0-.1.78" transform="translate(-46.332 -113.999)" fill="#92b4ea"/>
          <path id="Path_4520" data-name="Path 4520" d="M9.772,269.147c.8.343,34.945,1.31,35.738,0a11.488,11.488,0,0,0,.522-3.419c.281-3.97.281-9.873.281-9.873a24.284,24.284,0,0,0,.2-2.951c-.04-.925-16.464-.571-16.464-.571l-10.675,8.719a19.766,19.766,0,0,0-6.13,0c-1.7.281-2.789,2.432-3.331,4.458-.482,1.8-.522,3.471-.14,3.637" transform="translate(-4.317 -114.45)" fill="#92b4ea"/>
          <path id="Path_4521" data-name="Path 4521" d="M86.684,149.993a.207.207,0,0,1-.207-.192c-.008-.093-.711-9.365-.916-13.477-.174-3.517-.206-5.469-.211-5.974l-7.193-3.317a.208.208,0,1,1,.174-.378l7.313,3.372a.207.207,0,0,1,.12.188c0,.019.009,1.984.213,6.087s.908,13.373.915,13.466a.208.208,0,0,1-.191.223h-.016" transform="translate(-35.404 -57.454)" fill="#f7b369"/>
          <path id="Path_4522" data-name="Path 4522" d="M121.681,260.587a.2.2,0,0,1-.056-.008c-.046-.013-4.746-1.307-7.108-.887l-2.437.433a.206.206,0,0,1-.223-.114.208.208,0,0,1,.049-.246c.179-.158,4.4-3.852,6.929-2.73a.208.208,0,0,1-.169.38c-1.754-.781-4.621,1.192-5.871,2.161l1.648-.293c2.451-.435,7.1.84,7.292.9a.208.208,0,0,1-.056.408" transform="translate(-50.739 -116.518)" fill="#fff"/>
          <path id="Path_4523" data-name="Path 4523" d="M32.074,261.868a.208.208,0,0,1-.022-.414l5.7-.608-1.878-2.29a.208.208,0,1,1,.321-.264l2.122,2.587a.208.208,0,0,1-.139.339l-6.084.648h-.022" transform="translate(-14.457 -117.15)" fill="#fff"/>
          <path id="Path_4524" data-name="Path 4524" d="M83.375,37.749s-.839.193-1.044.5a4.7,4.7,0,0,0-.173,1.549L75.742,55.846l-1.261,17.87s3.313,3.687,13.693,4.175,15.892-4.279,15.892-4.279-4.228-29.051-6.781-32.852c-1.134-1.688-5.941-2.122-5.941-2.122s-.153-.607-.331-.715c-.951-.576-7.638-.175-7.638-.175" transform="translate(-33.791 -17.065)" fill="#f7b369"/>
          <path id="Path_4525" data-name="Path 4525" d="M86.906,19.183s-3.805-1.471-4,1.443c-.222,3.376,3.8,3.267,3.8,3.267Z" transform="translate(-37.611 -8.535)" fill="#f48462"/>
          <path id="Path_4526" data-name="Path 4526" d="M85.723,23.037a.2.2,0,0,1-.171-.095l-1.326-2.1a.2.2,0,1,1,.343-.216l1.325,2.1a.2.2,0,0,1-.063.28.2.2,0,0,1-.108.031" transform="translate(-38.198 -9.314)"/>
          <path id="Path_4527" data-name="Path 4527" d="M84.119,23.652a.2.2,0,0,1-.011-.405l1.069-.055a.2.2,0,0,1,.213.192.2.2,0,0,1-.191.213l-1.069.055h-.011" transform="translate(-38.072 -10.522)"/>
          <path id="Path_4528" data-name="Path 4528" d="M97.43,32.812l.168,3.936a8.306,8.306,0,0,1-3.392.97,3.741,3.741,0,0,1-3.482-1.359l-.14-4.617Z" transform="translate(-41.097 -14.401)" fill="#f48462"/>
          <path id="Path_4529" data-name="Path 4529" d="M97.141,33.127s-1.119,3.23-4.046,2.9c-2.36-.269-3.146-3.575-3.146-3.575Z" transform="translate(-40.809 -14.721)"/>
          <path id="Path_4530" data-name="Path 4530" d="M87.48,10.985s-1.395,7.264.78,10.383A4.867,4.867,0,0,0,95.421,22.5a6.027,6.027,0,0,0,2.054-3.379s2.491.407,3.246-1.639a2.782,2.782,0,0,0-2.048-3.864c-1.241-.058-1.377.172-1.377.172l.285-2.275s-7.812-8.1-10.1-.527" transform="translate(-39.489 -3.516)" fill="#f48462"/>
          <path id="Path_4531" data-name="Path 4531" d="M106.58,22.965a.2.2,0,0,1-.137-.352l1.853-1.7a.2.2,0,1,1,.274.3l-1.853,1.7a.2.2,0,0,1-.137.054" transform="translate(-48.262 -9.462)"/>
          <path id="Path_4532" data-name="Path 4532" d="M108.866,24.148a.206.206,0,0,1-.116-.037l-1.157-.808a.2.2,0,0,1,.233-.333l1.157.809a.2.2,0,0,1-.116.369" transform="translate(-48.774 -10.405)"/>
          <path id="Path_4533" data-name="Path 4533" d="M99.641,19.963a.2.2,0,0,1-.2-.208l.029-1.214a.2.2,0,0,1,.207-.2.2.2,0,0,1,.2.208l-.029,1.215a.2.2,0,0,1-.2.2" transform="translate(-45.114 -8.322)"/>
          <path id="Path_4534" data-name="Path 4534" d="M91.638,20.178a.2.2,0,0,1-.2-.208l.029-1.214a.186.186,0,0,1,.208-.2.2.2,0,0,1,.2.208L91.84,19.98a.2.2,0,0,1-.2.2" transform="translate(-41.483 -8.419)"/>
          <path id="Path_4535" data-name="Path 4535" d="M95.117,23.718a.2.2,0,0,1-.2-.157,6.726,6.726,0,0,1,.136-3.528.2.2,0,0,1,.381.138,6.444,6.444,0,0,0-.122,3.3.2.2,0,0,1-.151.244.2.2,0,0,1-.046.005" transform="translate(-42.986 -9.029)"/>
          <path id="Path_4536" data-name="Path 4536" d="M89.758,16.259a.2.2,0,0,1-.138-.055.2.2,0,0,1-.01-.286,2.4,2.4,0,0,1,1.364-.59.2.2,0,0,1,.037.4,2.015,2.015,0,0,0-1.1.462.2.2,0,0,1-.148.064" transform="translate(-40.63 -6.954)"/>
          <path id="Path_4537" data-name="Path 4537" d="M99.7,16.479a.2.2,0,0,1-.148-.064,2.016,2.016,0,0,0-1.107-.458.2.2,0,1,1,.036-.4,2.4,2.4,0,0,1,1.367.584.2.2,0,0,1-.147.341" transform="translate(-44.58 -7.056)"/>
          <path id="Path_4538" data-name="Path 4538" d="M105.952,17.444s-.7,2.249-.992,2.168.072-3.6.9-3.773.087,1.6.087,1.6" transform="translate(-47.574 -7.181)"/>
          <path id="Path_4539" data-name="Path 4539" d="M97.092,10.886a9.057,9.057,0,0,1-4.145-1.564,6.429,6.429,0,0,1-1.92-2.681,4.388,4.388,0,0,0-2.614.765c-1.543.918-1.706,3.822-1.706,3.822s-1.32-3.521.05-5.244S88.877,4.3,88.877,4.3s-.343-3.224,4.094-1.913a7.835,7.835,0,0,1,5.4,5.171s1.1-.357,1.3,1.049c.365,2.505-.039,3.087-.039,3.087a1.648,1.648,0,0,0-1.674-.276l-1.023.362Z" transform="translate(-39.078 -0.94)"/>
          <path id="Path_4540" data-name="Path 4540" d="M89.937,37.862a4.574,4.574,0,0,0,2.824,1.214,6.35,6.35,0,0,0,4.01-1.171l1.046,2.56-3.473,1.622-5.4-1.067.273-2.443Z" transform="translate(-40.353 -17.178)" fill="#f7b369"/>
          <path id="Path_4541" data-name="Path 4541" d="M97.308,29.161a1.019,1.019,0,0,1-.16-.012.2.2,0,0,1,.063-.4c.084.013.8.087,1.033-.882a.2.2,0,0,1,.244-.151.2.2,0,0,1,.151.244,1.381,1.381,0,0,1-1.331,1.2" transform="translate(-43.997 -12.572)"/>
          <path id="Path_4542" data-name="Path 4542" d="M35.471,44.212,28.294,54.718S34.878,66.153,46.842,65.86c14.453-.355,16.3-14.228,16.3-14.228L61.951,41.617a14.781,14.781,0,0,0-7.2,2.968c-2.29,1.856-12.267,4.842-19.283-.373" transform="translate(-12.837 -18.881)" fill="#f7b369"/>
          <path id="Path_4543" data-name="Path 4543" d="M61.721,56.2a.691.691,0,0,1-.174-.023.812.812,0,0,1-.508-.413c-.617-1.1.26-4.09.362-4.427a.208.208,0,0,1,.4.008c.172.661,1,4,.293,4.7a.519.519,0,0,1-.374.155m-.132-3.957c-.263,1.093-.535,2.694-.187,3.318a.4.4,0,0,0,.251.214c.094.025.125,0,.149-.023.331-.331.107-2.049-.213-3.508" transform="translate(-27.594 -23.223)" fill="#fff"/>
          <path id="Path_4544" data-name="Path 4544" d="M75.219,78.966a.21.21,0,0,1-.207-.222l.313-4.422a.2.2,0,0,1,.222-.193.208.208,0,0,1,.192.222l-.313,4.421a.208.208,0,0,1-.207.193" transform="translate(-34.032 -33.631)" fill="#fff"/>
          <path id="Path_4545" data-name="Path 4545" d="M73.543,75.751s.432-16.455,1.979-23.735,2.44-10.053,2.44-10.053,1.95-.775,2.52-.918,1.535-.332,1.535-.332-1.272,7.346-1.789,11.58-.815,8.126-.815,8.126h9.744s.434-7.878.71-11.465c.309-4.016,1.051-9.464,1.051-9.464a12.416,12.416,0,0,1,1.961.3c1.137.26,2.169.544,2.169.544s-2.108,18.118,1.338,22.71,6.587,2.225,6.587,2.225L100.7,80.155l-22.4.864Z" transform="translate(-33.366 -17.916)" fill="#a37b90"/>
          <path id="Path_4546" data-name="Path 4546" d="M24.5,47.224a1.347,1.347,0,0,1-1.619-1L16.3,18.172a1.347,1.347,0,1,1,2.623-.616L25.505,45.6a1.347,1.347,0,0,1-1,1.619" transform="translate(-7.38 -7.494)" fill="#49578c"/>
          <path id="Path_4547" data-name="Path 4547" d="M23.82,47.384a1.348,1.348,0,0,1-1.62-1L15.621,18.331a1.347,1.347,0,1,1,2.622-.615l6.58,28.048a1.347,1.347,0,0,1-1,1.619" transform="translate(-7.071 -7.566)" fill="#5c69a5"/>
          <path id="Path_4548" data-name="Path 4548" d="M17.545,10.11l.936,3.989a.939.939,0,0,1,.028.217,1.142,1.142,0,0,1-.881,1.149L9.406,17.395a1.135,1.135,0,0,1-1.366-.847L7.1,12.559a1.135,1.135,0,0,1,.847-1.366l8.223-1.929a1.144,1.144,0,0,1,1.3.638.949.949,0,0,1,.071.208" transform="translate(-3.21 -4.189)" fill="#9ad9ef"/>
          <path id="Path_4549" data-name="Path 4549" d="M28.761,10.326l.581,2.479a1.14,1.14,0,0,1-.845,1.371l-1.064.25a1.192,1.192,0,0,1-.587-.014,1.166,1.166,0,0,1-.786-.837L25.479,11.1a1.166,1.166,0,0,1,.332-1.1,1.187,1.187,0,0,1,.519-.274l1.064-.25a1.14,1.14,0,0,1,1.367.852" transform="translate(-11.546 -4.285)" fill="#9ad9ef"/>
          <path id="Path_4550" data-name="Path 4550" d="M5.537,17.27a.31.31,0,0,0-.123-.523L2.907,15.99.4,15.233a.311.311,0,0,0-.392.368l.6,2.55.6,2.55a.311.311,0,0,0,.515.155l1.909-1.793Z" transform="translate(0 -6.905)" fill="#9ad9ef"/>
          <path id="Path_4551" data-name="Path 4551" d="M27.394,10.231l.581,2.479a1.14,1.14,0,0,1-.845,1.371l-1.064.25a1.192,1.192,0,0,1-.587-.014,1.142,1.142,0,0,1-.881,1.149l-.707.166-1.455-6.2.707-.166a1.143,1.143,0,0,1,1.3.638,1.187,1.187,0,0,1,.519-.274l1.064-.25a1.14,1.14,0,0,1,1.367.852" transform="translate(-10.179 -4.189)" fill="#68b6d8"/>
          <path id="Path_4552" data-name="Path 4552" d="M9.118,13.651a.208.208,0,0,1-.048-.41l2.615-.614a.208.208,0,0,1,.1.4l-2.615.614a.239.239,0,0,1-.048.005" transform="translate(-4.042 -5.727)" fill="#fff"/>
          <path id="Path_4553" data-name="Path 4553" d="M115.426,109.09l3.936-6.452,5.528,7.37s-1.022,5.535-4.955,5.535c-1.24,0-4.509-6.452-4.509-6.452" transform="translate(-52.367 -46.566)" fill="#f48462"/>
          <path id="Path_4554" data-name="Path 4554" d="M13.989,44.556a3.317,3.317,0,0,0,1.466.575c1.779.278,6.9.174,7.572-1.608.644-1.707-2.2-1.737-2.2-1.737s2.3-.434,1.467-1.9A2.267,2.267,0,0,0,20.1,38.873s2.348-.681.683-2.109-6.929-.867-8.556-.017.592,2.449.592,2.449-1.633,1.147-1.157,2.13c.5,1.04,2.09.76,2.09.76a1.568,1.568,0,0,0,.238,2.471" transform="translate(-5.251 -16.283)" fill="#f48462"/>
          <path id="Path_4555" data-name="Path 4555" d="M16.454,46.891a.2.2,0,0,1-.005-.405l6.492-.174a.2.2,0,0,1,.208.2.2.2,0,0,1-.2.208l-6.492.174Z" transform="translate(-7.373 -21.011)"/>
          <path id="Path_4556" data-name="Path 4556" d="M15.092,41.64a.2.2,0,0,1-.008-.405L21.6,40.98a.2.2,0,1,1,.016.4L15.1,41.64h-.008" transform="translate(-6.755 -18.592)"/>
          <path id="Path_4557" data-name="Path 4557" d="M113.381,41.351s14.52,2.74,19.834,16.31c5.571,14.223-9.061,26.948-9.061,26.948l-8.842-8.162,4.154-9.754-2.105-1.308Z" transform="translate(-51.44 -18.76)" fill="#f7b369"/>
          <path id="Path_4558" data-name="Path 4558" d="M124.538,82.912a.211.211,0,0,1-.07-.013.207.207,0,0,1-.135-.221c.106-.845.7-5.075,2.063-5a.472.472,0,0,1,.423.253c.448.859-1.676,4.224-2.106,4.889a.207.207,0,0,1-.175.1m1.832-4.822c-.6,0-1.164,1.9-1.474,3.648.974-1.622,1.745-3.252,1.554-3.618-.006-.013-.014-.028-.069-.029h-.011" transform="translate(-56.407 -35.24)" fill="#fff"/>
          <path id="Path_4559" data-name="Path 4559" d="M120.606,121.217a.207.207,0,0,1-.122-.039,17.19,17.19,0,0,1-5.5-7.766.208.208,0,1,1,.4-.126,16.761,16.761,0,0,0,5.345,7.555.208.208,0,0,1-.122.376" transform="translate(-52.164 -51.33)" fill="#f7b369"/>
          <path id="Path_4560" data-name="Path 4560" d="M87.855,81.338l-8.876-.361a.208.208,0,0,1,.009-.416l8.876.362a.208.208,0,0,1-.009.415" transform="translate(-35.741 -36.55)" fill="#f7b369"/>
          <path id="Path_4561" data-name="Path 4561" d="M91.912,43.573a4.45,4.45,0,0,1-3.732-2.025.207.207,0,0,1,.361-.205,4,4,0,0,0,4.271,1.729.208.208,0,1,1,.076.408,5.3,5.3,0,0,1-.975.093" transform="translate(-39.994 -18.709)" fill="#fff"/>
          <path id="Path_4562" data-name="Path 4562" d="M86.659,5.388A6.77,6.77,0,0,1,94.587.1c6.671.946,5.665,8.961,5.665,8.961l-3.145-.58Z" transform="translate(-39.316 0.001)" fill="#5c69a5"/>
          <path id="Path_4563" data-name="Path 4563" d="M83.047,9.64s2.327-.222,8.658,1.75a41.03,41.03,0,0,1,4.124,1.555s-7.249-1.975-9.914-1.589a3.774,3.774,0,0,0-1.636.62Z" transform="translate(-37.677 -4.37)" fill="#40507f"/>
        </g>
      </g>
    </g>
  </g>
</svg>
